SplineFontDB: 3.2
FontName: HoneyInk
FullName: HoneyInk
FamilyName: HoneyInk
Weight: Regular
Copyright: Copyright (c) 2022 by cosmic.lamanite@gmail.com All rights reserved
Version: 1.006
ItalicAngle: 0
UnderlinePosition: 100
UnderlineWidth: 0
Ascent: 819
Descent: 205
InvalidEm: 0
sfntRevision: 0x00010189
LayerCount: 2
Layer: 0 1 "Back" 1
Layer: 1 1 "Fore" 0
XUID: [1021 573 -1871970208 6725985]
StyleMap: 0x0040
FSType: 8
OS2Version: 3
OS2_WeightWidthSlopeOnly: 0
OS2_UseTypoMetrics: 0
CreationTime: 1535727847
ModificationTime: 1651636660
PfmFamily: 17
TTFWeight: 400
TTFWidth: 5
LineGap: 26
VLineGap: 0
Panose: 2 0 5 6 0 0 0 2 0 4
OS2TypoAscent: 769
OS2TypoAOffset: 0
OS2TypoDescent: -233
OS2TypoDOffset: 0
OS2TypoLinegap: 52
OS2WinAscent: 992
OS2WinAOffset: 0
OS2WinDescent: 298
OS2WinDOffset: 0
HheadAscent: 992
HheadAOffset: 0
HheadDescent: -298
HheadDOffset: 0
OS2SubXSize: 665
OS2SubYSize: 716
OS2SubXOff: 0
OS2SubYOff: 143
OS2SupXSize: 665
OS2SupYSize: 716
OS2SupXOff: 0
OS2SupYOff: 491
OS2StrikeYSize: 51
OS2StrikeYPos: 256
OS2CapHeight: 733
OS2XHeight: 521
OS2FamilyClass: 1285
OS2Vendor: 'JMH '
OS2CodePages: 00000097.00000000
OS2UnicodeRanges: 8000022f.1000004b.00000000.00000000
Lookup: 1 0 0 "'aalt' Access All Alternates in Latin lookup 0" { "'aalt' Access All Alternates in Latin lookup 0 subtable"  } ['aalt' ('latn' <'AZE ' 'CRT ' 'MOL ' 'ROM ' 'TRK ' 'dflt' > ) ]
Lookup: 1 0 0 "'locl' Localized Forms in Latin lookup 1" { "'locl' Localized Forms in Latin lookup 1 subtable"  } ['locl' ('latn' <'AZE ' > ) ]
Lookup: 1 0 0 "'locl' Localized Forms in Latin lookup 2" { "'locl' Localized Forms in Latin lookup 2 subtable"  } ['locl' ('latn' <'TRK ' > ) ]
Lookup: 1 0 0 "'locl' Localized Forms in Latin lookup 3" { "'locl' Localized Forms in Latin lookup 3 subtable"  } ['locl' ('latn' <'MOL ' > ) ]
Lookup: 1 0 0 "'locl' Localized Forms in Latin lookup 4" { "'locl' Localized Forms in Latin lookup 4 subtable"  } ['locl' ('latn' <'ROM ' > ) ]

StartChar: exclam
Encoding: 33 33 6
Width: 212
GlyphClass: 2
Flags: W
LayerCount: 2
Fore
SplineSet
77 152 m 1,0,-1
 77 164 l 1,1,-1
 123 164 l 1,2,-1
 123 152 l 1,3,-1
 133 152 l 1,4,-1
 133 141 l 1,5,-1
 145 141 l 1,6,-1
 145 129 l 1,7,-1
 156 129 l 1,8,-1
 156 118 l 1,9,-1
 168 118 l 1,10,-1
 168 106 l 1,11,-1
 178 106 l 1,12,-1
 178 84 l 1,13,-1
 190 84 l 1,14,-1
 190 73 l 1,15,-1
 178 73 l 1,16,-1
 178 28 l 1,17,-1
 168 28 l 1,18,-1
 168 17 l 1,19,-1
 156 17 l 1,20,-1
 156 5 l 1,21,-1
 133 5 l 1,22,-1
 133 -5 l 1,23,-1
 100 -5 l 1,24,-1
 100 -17 l 1,25,-1
 77 -17 l 1,26,-1
 77 -5 l 1,27,-1
 55 -5 l 1,28,-1
 55 5 l 1,29,-1
 44 5 l 1,30,-1
 44 17 l 1,31,-1
 32 17 l 1,32,-1
 32 28 l 1,33,-1
 22 28 l 1,34,-1
 22 118 l 1,35,-1
 32 118 l 1,36,-1
 32 129 l 1,37,-1
 44 129 l 1,38,-1
 44 141 l 1,39,-1
 55 141 l 1,40,-1
 55 152 l 1,41,-1
 77 152 l 1,0,-1
67 771 m 1,42,-1
 67 781 l 1,43,-1
 133 781 l 1,44,-1
 133 771 l 1,45,-1
 156 771 l 1,46,-1
 156 759 l 1,47,-1
 168 759 l 1,48,-1
 168 736 l 1,49,-1
 178 736 l 1,50,-1
 178 703 l 1,51,-1
 190 703 l 1,52,-1
 190 680 l 1,53,-1
 178 680 l 1,54,-1
 178 602 l 1,55,-1
 168 602 l 1,56,-1
 168 524 l 1,57,-1
 156 524 l 1,58,-1
 156 433 l 1,59,-1
 145 433 l 1,60,-1
 145 230 l 1,61,-1
 133 230 l 1,62,-1
 133 197 l 1,63,-1
 111 197 l 1,64,-1
 111 186 l 1,65,-1
 89 186 l 1,66,-1
 89 197 l 1,67,-1
 77 197 l 1,68,-1
 77 209 l 1,69,-1
 67 209 l 1,70,-1
 67 265 l 1,71,-1
 55 265 l 1,72,-1
 55 478 l 1,73,-1
 44 478 l 1,74,-1
 44 567 l 1,75,-1
 32 567 l 1,76,-1
 32 602 l 1,77,-1
 22 602 l 1,78,-1
 22 715 l 1,79,-1
 32 715 l 1,80,-1
 32 748 l 1,81,-1
 44 748 l 1,82,-1
 44 759 l 1,83,-1
 55 759 l 1,84,-1
 55 771 l 1,85,-1
 67 771 l 1,42,-1
EndSplineSet
EndChar

StartChar: quotedbl
Encoding: 34 34 7
Width: 394
GlyphClass: 2
Flags: W
LayerCount: 2
Fore
SplineSet
44 805 m 1,0,-1
 44 815 l 1,1,-1
 123 815 l 1,2,-1
 123 805 l 1,3,-1
 145 805 l 1,4,-1
 145 793 l 1,5,-1
 156 793 l 1,6,-1
 156 725 l 1,7,-1
 145 725 l 1,8,-1
 145 636 l 1,9,-1
 133 636 l 1,10,-1
 133 512 l 1,11,-1
 123 512 l 1,12,-1
 123 500 l 1,13,-1
 111 500 l 1,14,-1
 111 490 l 1,15,-1
 77 490 l 1,16,-1
 77 500 l 1,17,-1
 66 500 l 1,18,-1
 66 512 l 1,19,-1
 55 512 l 1,20,-1
 55 568 l 1,21,-1
 44 568 l 1,22,-1
 44 647 l 1,23,-1
 32 647 l 1,24,-1
 32 725 l 1,25,-1
 22 725 l 1,26,-1
 22 793 l 1,27,-1
 32 793 l 1,28,-1
 32 805 l 1,29,-1
 44 805 l 1,0,-1
271 805 m 1,30,-1
 271 815 l 1,31,-1
 338 815 l 1,32,-1
 338 805 l 1,33,-1
 360 805 l 1,34,-1
 360 793 l 1,35,-1
 372 793 l 1,36,-1
 372 714 l 1,37,-1
 360 714 l 1,38,-1
 360 546 l 1,39,-1
 350 546 l 1,40,-1
 350 512 l 1,41,-1
 338 512 l 1,42,-1
 338 500 l 1,43,-1
 327 500 l 1,44,-1
 327 490 l 1,45,-1
 293 490 l 1,46,-1
 293 500 l 1,47,-1
 282 500 l 1,48,-1
 282 512 l 1,49,-1
 271 512 l 1,50,-1
 271 568 l 1,51,-1
 259 568 l 1,52,-1
 259 669 l 1,53,-1
 249 669 l 1,54,-1
 249 737 l 1,55,-1
 237 737 l 1,56,-1
 237 793 l 1,57,-1
 249 793 l 1,58,-1
 249 805 l 1,59,-1
 271 805 l 1,30,-1
EndSplineSet
EndChar

StartChar: numbersign
Encoding: 35 35 8
Width: 446
GlyphClass: 2
Flags: W
LayerCount: 2
Fore
SplineSet
267 354 m 1,0,-1
 267 195 l 1,1,-1
 272 195 l 1,2,-1
 272 162 l 1,3,-1
 265 162 l 1,4,-1
 265 94 l 1,5,-1
 276 94 l 1,6,-1
 276 84 l 1,7,-1
 288 84 l 1,8,-1
 288 72 l 1,9,-1
 401 72 l 1,10,-1
 401 61 l 1,11,-1
 411 61 l 1,12,-1
 411 49 l 1,13,-1
 424 49 l 1,14,-1
 424 0 l 1,15,-1
 299 0 l 1,16,-1
 299 -3 l 1,17,-1
 254 -3 l 1,18,-1
 254 2 l 1,19,-1
 121 2 l 1,20,-1
 121 -1 l 1,21,-1
 64 -1 l 1,22,-1
 64 6 l 1,23,-1
 30 6 l 1,24,-1
 30 29 l 1,25,-1
 22 29 l 1,26,-1
 22 41 l 1,27,-1
 30 41 l 1,28,-1
 30 51 l 1,29,-1
 41 51 l 1,30,-1
 41 63 l 1,31,-1
 64 63 l 1,32,-1
 64 73 l 1,33,-1
 153 73 l 1,34,-1
 153 84 l 1,35,-1
 175 84 l 1,36,-1
 175 106 l 1,37,-1
 187 106 l 1,38,-1
 187 195 l 1,39,-1
 181 195 l 1,40,-1
 181 275 l 1,41,-1
 188 275 l 1,42,-1
 187 402 l 1,43,-1
 174 402 l 1,44,-1
 174 410 l 1,45,-1
 161 410 l 1,46,-1
 161 417 l 1,47,-1
 151 417 l 1,48,-1
 151 426 l 1,49,-1
 139 426 l 1,50,-1
 139 436 l 1,51,-1
 127 436 l 1,52,-1
 127 445 l 1,53,-1
 116 445 l 1,54,-1
 116 453 l 1,55,-1
 101 453 l 1,56,-1
 101 462 l 1,57,-1
 87 462 l 1,58,-1
 87 472 l 1,59,-1
 73 472 l 1,60,-1
 73 484 l 1,61,-1
 58 484 l 1,62,-1
 58 497 l 1,63,-1
 44 497 l 1,64,-1
 44 547 l 1,65,-1
 60 547 l 1,66,-1
 60 565 l 1,67,-1
 80 565 l 1,68,-1
 80 554 l 1,69,-1
 90 554 l 1,70,-1
 90 544 l 1,71,-1
 101 544 l 1,72,-1
 101 536 l 1,73,-1
 114 536 l 1,74,-1
 114 526 l 1,75,-1
 128 526 l 1,76,-1
 128 516 l 1,77,-1
 139 516 l 1,78,-1
 139 505 l 1,79,-1
 152 505 l 1,80,-1
 152 496 l 1,81,-1
 163 496 l 1,82,-1
 163 487 l 1,83,-1
 175 487 l 1,84,-1
 176 633 l 1,85,-1
 171 633 l 1,86,-1
 171 645 l 1,87,-1
 176 645 l 1,88,-1
 176 735 l 1,89,-1
 188 735 l 1,90,-1
 188 745 l 1,91,-1
 254 745 l 1,92,-1
 254 736 l 1,93,-1
 272 736 l 1,94,-1
 272 723 l 1,95,-1
 349 723 l 1,96,-1
 349 712 l 1,97,-1
 384 712 l 1,98,-1
 384 700 l 1,99,-1
 403 700 l 1,100,-1
 403 655 l 1,101,-1
 384 655 l 1,102,-1
 384 644 l 1,103,-1
 348 644 l 1,104,-1
 348 655 l 1,105,-1
 277 655 l 1,106,-1
 277 645 l 1,107,-1
 261 645 l 1,108,-1
 261 440 l 1,109,-1
 270 440 l 1,110,-1
 270 432 l 1,111,-1
 282 432 l 1,112,-1
 282 425 l 1,113,-1
 292 425 l 1,114,-1
 292 415 l 1,115,-1
 304 415 l 1,116,-1
 304 406 l 1,117,-1
 316 406 l 1,118,-1
 316 397 l 1,119,-1
 327 397 l 1,120,-1
 327 388 l 1,121,-1
 342 388 l 1,122,-1
 342 380 l 1,123,-1
 356 380 l 1,124,-1
 356 369 l 1,125,-1
 371 369 l 1,126,-1
 371 358 l 1,127,-1
 386 358 l 1,128,-1
 386 345 l 1,129,-1
 399 345 l 1,130,-1
 399 295 l 1,131,-1
 384 295 l 1,132,-1
 384 283 l 1,133,-1
 363 283 l 1,134,-1
 363 288 l 1,135,-1
 353 288 l 1,136,-1
 353 298 l 1,137,-1
 343 298 l 1,138,-1
 343 306 l 1,139,-1
 330 306 l 1,140,-1
 330 315 l 1,141,-1
 316 315 l 1,142,-1
 316 326 l 1,143,-1
 305 326 l 1,144,-1
 305 336 l 1,145,-1
 292 336 l 1,146,-1
 292 346 l 1,147,-1
 281 346 l 1,148,-1
 281 354 l 1,149,-1
 267 354 l 1,0,-1
EndSplineSet
EndChar

StartChar: dollar
Encoding: 36 36 9
Width: 584
GlyphClass: 2
Flags: W
LayerCount: 2
Fore
SplineSet
256 343 m 1,0,-1
 256 353 l 1,1,-1
 240 353 l 1,2,-1
 240 384 l 1,3,-1
 228 384 l 1,4,-1
 228 405 l 1,5,-1
 213 405 l 1,6,-1
 213 441 l 1,7,-1
 190 441 l 1,8,-1
 190 428 l 1,9,-1
 180 428 l 1,10,-1
 180 417 l 1,11,-1
 168 417 l 1,12,-1
 168 405 l 1,13,-1
 157 405 l 1,14,-1
 157 395 l 1,15,-1
 145 395 l 1,16,-1
 145 372 l 1,17,-1
 135 372 l 1,18,-1
 135 338 l 1,19,-1
 123 338 l 1,20,-1
 123 294 l 1,21,-1
 112 294 l 1,22,-1
 112 214 l 1,23,-1
 123 214 l 1,24,-1
 123 169 l 1,25,-1
 135 169 l 1,26,-1
 135 158 l 1,27,-1
 145 158 l 1,28,-1
 145 136 l 1,29,-1
 157 136 l 1,30,-1
 157 125 l 1,31,-1
 168 125 l 1,32,-1
 168 113 l 1,33,-1
 180 113 l 1,34,-1
 180 102 l 1,35,-1
 190 102 l 1,36,-1
 190 90 l 1,37,-1
 202 90 l 1,38,-1
 202 80 l 1,39,-1
 225 80 l 1,40,-1
 225 68 l 1,41,-1
 258 68 l 1,42,-1
 258 57 l 1,43,-1
 326 57 l 1,44,-1
 326 68 l 1,45,-1
 359 68 l 1,46,-1
 359 80 l 1,47,-1
 382 80 l 1,48,-1
 382 90 l 1,49,-1
 404 90 l 1,50,-1
 404 102 l 1,51,-1
 416 102 l 1,52,-1
 416 113 l 1,53,-1
 427 113 l 1,54,-1
 427 136 l 1,55,-1
 437 136 l 1,56,-1
 437 158 l 1,57,-1
 449 158 l 1,58,-1
 449 181 l 1,59,-1
 460 181 l 1,60,-1
 460 212 l 1,61,-1
 416 212 l 1,62,-1
 416 223 l 1,63,-1
 403 223 l 1,64,-1
 403 231 l 1,65,-1
 381 231 l 1,66,-1
 381 241 l 1,67,-1
 368 241 l 1,68,-1
 368 251 l 1,69,-1
 354 251 l 1,70,-1
 354 260 l 1,71,-1
 339 260 l 1,72,-1
 339 270 l 1,73,-1
 325 270 l 1,74,-1
 325 280 l 1,75,-1
 312 280 l 1,76,-1
 312 292 l 1,77,-1
 301 292 l 1,78,-1
 301 305 l 1,79,-1
 292 305 l 1,80,-1
 292 316 l 1,81,-1
 281 316 l 1,82,-1
 281 327 l 1,83,-1
 270 327 l 1,84,-1
 270 343 l 1,85,-1
 256 343 l 1,0,-1
436 293 m 1,86,-1
 460 289 l 1,87,-1
 460 327 l 1,88,-1
 449 327 l 1,89,-1
 449 350 l 1,90,-1
 437 350 l 1,91,-1
 437 360 l 1,92,-1
 427 360 l 1,93,-1
 427 395 l 1,94,-1
 416 395 l 1,95,-1
 416 405 l 1,96,-1
 404 405 l 1,97,-1
 404 417 l 1,98,-1
 394 417 l 1,99,-1
 394 428 l 1,100,-1
 371 428 l 1,101,-1
 371 440 l 1,102,-1
 348 440 l 1,103,-1
 348 451 l 1,104,-1
 293 451 l 1,105,-1
 293 421 l 1,106,-1
 313 421 l 1,107,-1
 313 383 l 1,108,-1
 333 383 l 1,109,-1
 333 364 l 1,110,-1
 353 364 l 1,111,-1
 353 348 l 1,112,-1
 367 348 l 1,113,-1
 367 337 l 1,114,-1
 385 337 l 1,115,-1
 384 325 l 1,116,-1
 399 325 l 1,117,-1
 399 314 l 1,118,-1
 412 314 l 1,119,-1
 411 307 l 1,120,-1
 426 307 l 1,121,-1
 426 300 l 1,122,-1
 436 300 l 1,123,-1
 436 293 l 1,86,-1
248 518 m 1,124,-1
 248 529 l 1,125,-1
 326 529 l 1,126,-1
 326 518 l 1,127,-1
 382 518 l 1,128,-1
 382 506 l 1,129,-1
 416 506 l 1,130,-1
 416 496 l 1,131,-1
 449 496 l 1,132,-1
 449 484 l 1,133,-1
 460 484 l 1,134,-1
 460 473 l 1,135,-1
 472 473 l 1,136,-1
 472 463 l 1,137,-1
 482 463 l 1,138,-1
 482 451 l 1,139,-1
 494 451 l 1,140,-1
 494 440 l 1,141,-1
 505 440 l 1,142,-1
 505 417 l 1,143,-1
 517 417 l 1,144,-1
 517 405 l 1,145,-1
 528 405 l 1,146,-1
 528 383 l 1,147,-1
 540 383 l 1,148,-1
 540 360 l 1,149,-1
 550 360 l 1,150,-1
 550 304 l 1,151,-1
 562 304 l 1,152,-1
 562 226 l 1,153,-1
 550 226 l 1,154,-1
 550 191 l 1,155,-1
 540 191 l 1,156,-1
 540 136 l 1,157,-1
 528 136 l 1,158,-1
 528 113 l 1,159,-1
 517 113 l 1,160,-1
 517 102 l 1,161,-1
 505 102 l 1,162,-1
 505 90 l 1,163,-1
 494 90 l 1,164,-1
 494 80 l 1,165,-1
 482 80 l 1,166,-1
 482 68 l 1,167,-1
 472 68 l 1,168,-1
 472 57 l 1,169,-1
 449 57 l 1,170,-1
 449 45 l 1,171,-1
 437 45 l 1,172,-1
 437 35 l 1,173,-1
 427 35 l 1,174,-1
 427 23 l 1,175,-1
 404 23 l 1,176,-1
 404 12 l 1,177,-1
 382 12 l 1,178,-1
 382 0 l 1,179,-1
 336 0 l 1,180,-1
 336 -11 l 1,181,-1
 225 -11 l 1,182,-1
 225 0 l 1,183,-1
 190 0 l 1,184,-1
 190 12 l 1,185,-1
 157 12 l 1,186,-1
 157 23 l 1,187,-1
 135 23 l 1,188,-1
 135 35 l 1,189,-1
 123 35 l 1,190,-1
 123 45 l 1,191,-1
 100 45 l 1,192,-1
 100 57 l 1,193,-1
 90 57 l 1,194,-1
 90 68 l 1,195,-1
 79 68 l 1,196,-1
 79 80 l 1,197,-1
 67 80 l 1,198,-1
 67 102 l 1,199,-1
 56 102 l 1,200,-1
 56 125 l 1,201,-1
 44 125 l 1,202,-1
 44 158 l 1,203,-1
 34 158 l 1,204,-1
 34 181 l 1,205,-1
 22 181 l 1,206,-1
 22 327 l 1,207,-1
 34 327 l 1,208,-1
 34 360 l 1,209,-1
 44 360 l 1,210,-1
 44 383 l 1,211,-1
 56 383 l 1,212,-1
 56 405 l 1,213,-1
 67 405 l 1,214,-1
 67 417 l 1,215,-1
 79 417 l 1,216,-1
 79 440 l 1,217,-1
 90 440 l 1,218,-1
 90 451 l 1,219,-1
 112 451 l 1,220,-1
 112 463 l 1,221,-1
 123 463 l 1,222,-1
 123 473 l 1,223,-1
 135 473 l 1,224,-1
 135 484 l 1,225,-1
 157 484 l 1,226,-1
 157 496 l 1,227,-1
 180 496 l 1,228,-1
 180 506 l 1,229,-1
 202 506 l 1,230,-1
 202 518 l 1,231,-1
 248 518 l 1,124,-1
EndSplineSet
EndChar

StartChar: percent
Encoding: 37 37 10
Width: 628
GlyphClass: 3
Flags: W
LayerCount: 2
Fore
SplineSet
300 632 m 1,0,-1
 285 633 l 1,1,-1
 285 599 l 1,2,-1
 278 599 l 1,3,-1
 278 551 l 1,4,-1
 288 551 l 1,5,-1
 288 538 l 1,6,-1
 295 538 l 1,7,-1
 295 524 l 1,8,-1
 304 524 l 1,9,-1
 304 513 l 1,10,-1
 317 513 l 1,11,-1
 318 505 l 1,12,-1
 328 505 l 1,13,-1
 328 491 l 1,14,-1
 346 492 l 1,15,-1
 346 480 l 1,16,-1
 388 480 l 1,17,-1
 388 472 l 1,18,-1
 453 472 l 1,19,-1
 453 477 l 1,20,-1
 485 477 l 1,21,-1
 485 502 l 1,22,-1
 492 502 l 1,23,-1
 492 556 l 1,24,-1
 484 556 l 1,25,-1
 484 570 l 1,26,-1
 470 570 l 1,27,-1
 470 589 l 1,28,-1
 458 589 l 1,29,-1
 458 599 l 1,30,-1
 449 599 l 1,31,-1
 449 607 l 1,32,-1
 438 607 l 1,33,-1
 438 618 l 1,34,-1
 419 618 l 1,35,-1
 419 629 l 1,36,-1
 399 629 l 1,37,-1
 399 633 l 1,38,-1
 390 633 l 1,39,-1
 390 641 l 1,40,-1
 374 641 l 1,41,-1
 374 649 l 1,42,-1
 316 649 l 1,43,-1
 316 645 l 1,44,-1
 300 645 l 1,45,-1
 300 632 l 1,0,-1
499 249 m 1,46,-1
 499 288 l 1,47,-1
 509 288 l 1,48,-1
 509 363 l 1,49,-1
 514 363 l 1,50,-1
 514 374 l 1,51,-1
 501 374 l 1,52,-1
 500 391 l 1,53,-1
 468 391 l 1,54,-1
 468 385 l 1,55,-1
 376 385 l 1,56,-1
 376 393 l 1,57,-1
 341 393 l 1,58,-1
 341 404 l 1,59,-1
 317 403 l 1,60,-1
 317 414 l 1,61,-1
 300 414 l 1,62,-1
 300 423 l 1,63,-1
 289 423 l 1,64,-1
 289 433 l 1,65,-1
 278 433 l 1,66,-1
 278 442 l 1,67,-1
 266 442 l 1,68,-1
 266 451 l 1,69,-1
 252 451 l 1,70,-1
 252 462 l 1,71,-1
 239 462 l 1,72,-1
 239 474 l 1,73,-1
 228 474 l 1,74,-1
 228 486 l 1,75,-1
 221 486 l 1,76,-1
 221 534 l 1,77,-1
 215 534 l 1,78,-1
 215 589 l 1,79,-1
 221 589 l 1,80,-1
 221 642 l 1,81,-1
 201 642 l 1,82,-1
 201 632 l 1,83,-1
 191 632 l 1,84,-1
 191 620 l 1,85,-1
 179 620 l 1,86,-1
 179 598 l 1,87,-1
 168 598 l 1,88,-1
 168 575 l 1,89,-1
 156 575 l 1,90,-1
 156 552 l 1,91,-1
 145 552 l 1,92,-1
 145 519 l 1,93,-1
 133 519 l 1,94,-1
 133 474 l 1,95,-1
 123 474 l 1,96,-1
 123 272 l 1,97,-1
 133 272 l 1,98,-1
 133 227 l 1,99,-1
 145 227 l 1,100,-1
 145 194 l 1,101,-1
 156 194 l 1,102,-1
 156 171 l 1,103,-1
 168 171 l 1,104,-1
 168 148 l 1,105,-1
 179 148 l 1,106,-1
 179 136 l 1,107,-1
 191 136 l 1,108,-1
 191 126 l 1,109,-1
 201 126 l 1,110,-1
 201 114 l 1,111,-1
 213 114 l 1,112,-1
 213 103 l 1,113,-1
 236 103 l 1,114,-1
 236 91 l 1,115,-1
 258 91 l 1,116,-1
 258 81 l 1,117,-1
 291 81 l 1,118,-1
 325 81 l 1,119,-1
 370 81 l 1,120,-1
 370 93 l 1,121,-1
 392 93 l 1,122,-1
 392 103 l 1,123,-1
 410 103 l 1,124,-1
 410 118 l 1,125,-1
 427 118 l 1,126,-1
 427 132 l 1,127,-1
 437 132 l 1,128,-1
 437 147 l 1,129,-1
 452 147 l 1,130,-1
 452 164 l 1,131,-1
 465 164 l 1,132,-1
 465 182 l 1,133,-1
 478 182 l 1,134,-1
 478 204 l 1,135,-1
 492 204 l 1,136,-1
 492 249 l 1,137,-1
 499 249 l 1,46,-1
279 744 m 1,138,-1
 279 756 l 1,139,-1
 351 756 l 1,140,-1
 351 744 l 1,141,-1
 382 744 l 1,142,-1
 382 734 l 1,143,-1
 427 734 l 1,144,-1
 427 721 l 1,145,-1
 448 721 l 1,146,-1
 448 710 l 1,147,-1
 460 710 l 1,148,-1
 460 700 l 1,149,-1
 471 700 l 1,150,-1
 471 688 l 1,151,-1
 493 688 l 1,152,-1
 493 677 l 1,153,-1
 505 677 l 1,154,-1
 505 655 l 1,155,-1
 516 655 l 1,156,-1
 516 643 l 1,157,-1
 528 643 l 1,158,-1
 528 632 l 1,159,-1
 538 632 l 1,160,-1
 538 620 l 1,161,-1
 550 620 l 1,162,-1
 550 598 l 1,163,-1
 561 598 l 1,164,-1
 561 564 l 1,165,-1
 573 564 l 1,166,-1
 573 542 l 1,167,-1
 583 542 l 1,168,-1
 583 497 l 1,169,-1
 595 497 l 1,170,-1
 595 441 l 1,171,-1
 606 441 l 1,172,-1
 606 305 l 1,173,-1
 595 305 l 1,174,-1
 595 249 l 1,175,-1
 583 249 l 1,176,-1
 583 194 l 1,177,-1
 573 194 l 1,178,-1
 573 171 l 1,179,-1
 561 171 l 1,180,-1
 561 148 l 1,181,-1
 550 148 l 1,182,-1
 550 126 l 1,183,-1
 538 126 l 1,184,-1
 538 103 l 1,185,-1
 528 103 l 1,186,-1
 528 91 l 1,187,-1
 514 91 l 1,188,-1
 514 81 l 1,189,-1
 502 81 l 1,190,-1
 502 69 l 1,191,-1
 492 69 l 1,192,-1
 492 58 l 1,193,-1
 480 58 l 1,194,-1
 480 46 l 1,195,-1
 470 46 l 1,196,-1
 470 35 l 1,197,-1
 446 35 l 1,198,-1
 446 25 l 1,199,-1
 424 25 l 1,200,-1
 424 13 l 1,201,-1
 347 13 l 1,202,-1
 347 2 l 1,203,-1
 246 2 l 1,204,-1
 246 13 l 1,205,-1
 201 13 l 1,206,-1
 201 25 l 1,207,-1
 179 25 l 1,208,-1
 179 35 l 1,209,-1
 156 35 l 1,210,-1
 156 46 l 1,211,-1
 133 46 l 1,212,-1
 133 58 l 1,213,-1
 123 58 l 1,214,-1
 123 69 l 1,215,-1
 111 69 l 1,216,-1
 111 91 l 1,217,-1
 100 91 l 1,218,-1
 100 103 l 1,219,-1
 90 103 l 1,220,-1
 90 114 l 1,221,-1
 78 114 l 1,222,-1
 78 136 l 1,223,-1
 67 136 l 1,224,-1
 67 148 l 1,225,-1
 55 148 l 1,226,-1
 55 182 l 1,227,-1
 45 182 l 1,228,-1
 45 215 l 1,229,-1
 33 215 l 1,230,-1
 33 260 l 1,231,-1
 22 260 l 1,232,-1
 22 451 l 1,233,-1
 33 451 l 1,234,-1
 33 531 l 1,235,-1
 45 531 l 1,236,-1
 45 552 l 1,237,-1
 55 552 l 1,238,-1
 55 587 l 1,239,-1
 67 587 l 1,240,-1
 67 598 l 1,241,-1
 78 598 l 1,242,-1
 78 632 l 1,243,-1
 90 632 l 1,244,-1
 90 643 l 1,245,-1
 100 643 l 1,246,-1
 100 655 l 1,247,-1
 111 655 l 1,248,-1
 111 677 l 1,249,-1
 133 677 l 1,250,-1
 133 688 l 1,251,-1
 145 688 l 1,252,-1
 145 700 l 1,253,-1
 168 700 l 1,254,-1
 168 710 l 1,255,-1
 179 710 l 1,256,-1
 179 721 l 1,257,-1
 201 721 l 1,258,-1
 201 734 l 1,259,-1
 246 734 l 1,260,-1
 246 744 l 1,261,-1
 279 744 l 1,138,-1
EndSplineSet
Ligature2: "'frac' Diagonal Fractions in Latin lookup 7 subtable" zero fraction zero
Ligature2: "'frac' Diagonal Fractions in Latin lookup 7 subtable" zero slash zero
EndChar

StartChar: ampersand
Encoding: 38 38 11
Width: 502
GlyphClass: 2
Flags: W
LayerCount: 2
Fore
SplineSet
175 150 m 1,0,-1
 175 142 l 1,1,-1
 187 142 l 1,2,-1
 187 134 l 1,3,-1
 198 134 l 1,4,-1
 198 127 l 1,5,-1
 211 127 l 1,6,-1
 211 119 l 1,7,-1
 221 119 l 1,8,-1
 221 109 l 1,9,-1
 243 109 l 1,10,-1
 243 126 l 1,11,-1
 254 126 l 1,12,-1
 253 163 l 1,13,-1
 242 163 l 1,14,-1
 242 224 l 1,15,-1
 249 224 l 1,16,-1
 249 297 l 1,17,-1
 242 297 l 1,18,-1
 242 446 l 1,19,-1
 233 446 l 1,20,-1
 233 455 l 1,21,-1
 242 455 l 1,22,-1
 242 523 l 1,23,-1
 253 523 l 1,24,-1
 253 530 l 1,25,-1
 324 530 l 1,26,-1
 324 523 l 1,27,-1
 377 523 l 1,28,-1
 377 514 l 1,29,-1
 418 514 l 1,30,-1
 418 506 l 1,31,-1
 459 506 l 1,32,-1
 459 496 l 1,33,-1
 469 496 l 1,34,-1
 469 432 l 1,35,-1
 459 432 l 1,36,-1
 459 428 l 1,37,-1
 388 428 l 1,38,-1
 388 437 l 1,39,-1
 345 437 l 1,40,-1
 345 425 l 1,41,-1
 335 425 l 1,42,-1
 335 143 l 1,43,-1
 345 143 l 1,44,-1
 345 118 l 1,45,-1
 335 118 l 1,46,-1
 335 97 l 1,47,-1
 345 97 l 1,48,-1
 345 89 l 1,49,-1
 356 89 l 1,50,-1
 356 80 l 1,51,-1
 459 80 l 1,52,-1
 459 72 l 1,53,-1
 468 72 l 1,54,-1
 468 63 l 1,55,-1
 480 63 l 1,56,-1
 480 -1 l 1,57,-1
 366 -1 l 1,58,-1
 366 -9 l 1,59,-1
 324 -9 l 1,60,-1
 324 1 l 1,61,-1
 228 1 l 1,62,-1
 228 11 l 1,63,-1
 217 11 l 1,64,-1
 217 19 l 1,65,-1
 207 19 l 1,66,-1
 207 25 l 1,67,-1
 196 25 l 1,68,-1
 196 31 l 1,69,-1
 185 31 l 1,70,-1
 185 38 l 1,71,-1
 174 38 l 1,72,-1
 174 45 l 1,73,-1
 165 45 l 1,74,-1
 165 52 l 1,75,-1
 156 52 l 1,76,-1
 156 58 l 1,77,-1
 145 58 l 1,78,-1
 145 66 l 1,79,-1
 133 66 l 1,80,-1
 133 73 l 1,81,-1
 121 73 l 1,82,-1
 121 81 l 1,83,-1
 110 81 l 1,84,-1
 110 88 l 1,85,-1
 98 88 l 1,86,-1
 98 95 l 1,87,-1
 86 95 l 1,88,-1
 86 103 l 1,89,-1
 74 103 l 1,90,-1
 74 109 l 1,91,-1
 61 109 l 1,92,-1
 61 117 l 1,93,-1
 48 117 l 1,94,-1
 48 126 l 1,95,-1
 35 126 l 1,96,-1
 35 136 l 1,97,-1
 23 136 l 1,98,-1
 22 222 l 1,99,-1
 31 222 l 1,100,-1
 31 231 l 1,101,-1
 50 231 l 1,102,-1
 50 227 l 1,103,-1
 59 227 l 1,104,-1
 59 220 l 1,105,-1
 69 220 l 1,106,-1
 69 214 l 1,107,-1
 80 214 l 1,108,-1
 80 207 l 1,109,-1
 93 207 l 1,110,-1
 93 201 l 1,111,-1
 103 201 l 1,112,-1
 103 193 l 1,113,-1
 113 193 l 1,114,-1
 113 186 l 1,115,-1
 124 186 l 1,116,-1
 124 179 l 1,117,-1
 135 179 l 1,118,-1
 135 173 l 1,119,-1
 147 173 l 1,120,-1
 147 166 l 1,121,-1
 155 166 l 1,122,-1
 155 158 l 1,123,-1
 164 158 l 1,124,-1
 164 150 l 1,125,-1
 175 150 l 1,0,-1
EndSplineSet
EndChar

StartChar: quotesingle
Encoding: 39 39 12
Width: 200
GlyphClass: 2
Flags: W
LayerCount: 2
Fore
SplineSet
77 813 m 1,0,-1
 77 825 l 1,1,-1
 111 825 l 1,2,-1
 111 813 l 1,3,-1
 145 813 l 1,4,-1
 145 802 l 1,5,-1
 168 802 l 1,6,-1
 168 780 l 1,7,-1
 178 780 l 1,8,-1
 178 745 l 1,9,-1
 168 745 l 1,10,-1
 168 677 l 1,11,-1
 156 677 l 1,12,-1
 156 599 l 1,13,-1
 145 599 l 1,14,-1
 145 588 l 1,15,-1
 156 588 l 1,16,-1
 156 498 l 1,17,-1
 145 498 l 1,18,-1
 145 487 l 1,19,-1
 133 487 l 1,20,-1
 133 476 l 1,21,-1
 77 476 l 1,22,-1
 77 487 l 1,23,-1
 67 487 l 1,24,-1
 67 498 l 1,25,-1
 55 498 l 1,26,-1
 55 566 l 1,27,-1
 44 566 l 1,28,-1
 44 677 l 1,29,-1
 32 677 l 1,30,-1
 32 735 l 1,31,-1
 22 735 l 1,32,-1
 22 790 l 1,33,-1
 32 790 l 1,34,-1
 32 802 l 1,35,-1
 44 802 l 1,36,-1
 44 813 l 1,37,-1
 77 813 l 1,0,-1
EndSplineSet
EndChar

StartChar: parenleft
Encoding: 40 40 13
Width: 382
GlyphClass: 2
Flags: W
LayerCount: 2
Fore
SplineSet
292 793 m 1,0,-1
 292 804 l 1,1,-1
 337 804 l 1,2,-1
 337 793 l 1,3,-1
 349 793 l 1,4,-1
 349 781 l 1,5,-1
 360 781 l 1,6,-1
 360 748 l 1,7,-1
 349 748 l 1,8,-1
 349 726 l 1,9,-1
 326 726 l 1,10,-1
 326 715 l 1,11,-1
 314 715 l 1,12,-1
 314 703 l 1,13,-1
 304 703 l 1,14,-1
 304 692 l 1,15,-1
 292 692 l 1,16,-1
 292 680 l 1,17,-1
 281 680 l 1,18,-1
 281 670 l 1,19,-1
 269 670 l 1,20,-1
 269 658 l 1,21,-1
 259 658 l 1,22,-1
 259 647 l 1,23,-1
 248 647 l 1,24,-1
 248 635 l 1,25,-1
 236 635 l 1,26,-1
 236 625 l 1,27,-1
 226 625 l 1,28,-1
 226 602 l 1,29,-1
 214 602 l 1,30,-1
 214 590 l 1,31,-1
 203 590 l 1,32,-1
 203 567 l 1,33,-1
 191 567 l 1,34,-1
 191 546 l 1,35,-1
 180 546 l 1,36,-1
 180 524 l 1,37,-1
 168 524 l 1,38,-1
 168 501 l 1,39,-1
 158 501 l 1,40,-1
 158 456 l 1,41,-1
 146 456 l 1,42,-1
 146 399 l 1,43,-1
 135 399 l 1,44,-1
 135 355 l 1,45,-1
 123 355 l 1,46,-1
 123 332 l 1,47,-1
 135 332 l 1,48,-1
 135 298 l 1,49,-1
 123 298 l 1,50,-1
 123 275 l 1,51,-1
 135 275 l 1,52,-1
 135 219 l 1,53,-1
 146 219 l 1,54,-1
 146 164 l 1,55,-1
 158 164 l 1,56,-1
 158 141 l 1,57,-1
 168 141 l 1,58,-1
 168 106 l 1,59,-1
 180 106 l 1,60,-1
 180 84 l 1,61,-1
 191 84 l 1,62,-1
 191 61 l 1,63,-1
 203 61 l 1,64,-1
 203 51 l 1,65,-1
 214 51 l 1,66,-1
 214 28 l 1,67,-1
 226 28 l 1,68,-1
 226 17 l 1,69,-1
 236 17 l 1,70,-1
 236 5 l 1,71,-1
 248 5 l 1,72,-1
 248 -17 l 1,73,-1
 259 -17 l 1,74,-1
 259 -28 l 1,75,-1
 269 -28 l 1,76,-1
 269 -40 l 1,77,-1
 281 -40 l 1,78,-1
 281 -50 l 1,79,-1
 304 -50 l 1,80,-1
 304 -62 l 1,81,-1
 314 -62 l 1,82,-1
 314 -73 l 1,83,-1
 326 -73 l 1,84,-1
 326 -96 l 1,85,-1
 337 -96 l 1,86,-1
 337 -108 l 1,87,-1
 349 -108 l 1,88,-1
 349 -151 l 1,89,-1
 326 -151 l 1,90,-1
 326 -163 l 1,91,-1
 292 -163 l 1,92,-1
 292 -151 l 1,93,-1
 281 -151 l 1,94,-1
 281 -141 l 1,95,-1
 269 -141 l 1,96,-1
 269 -129 l 1,97,-1
 259 -129 l 1,98,-1
 259 -118 l 1,99,-1
 248 -118 l 1,100,-1
 248 -108 l 1,101,-1
 236 -108 l 1,102,-1
 236 -96 l 1,103,-1
 226 -96 l 1,104,-1
 226 -85 l 1,105,-1
 214 -85 l 1,106,-1
 214 -73 l 1,107,-1
 203 -73 l 1,108,-1
 203 -62 l 1,109,-1
 191 -62 l 1,110,-1
 191 -50 l 1,111,-1
 180 -50 l 1,112,-1
 180 -40 l 1,113,-1
 168 -40 l 1,114,-1
 168 -28 l 1,115,-1
 158 -28 l 1,116,-1
 158 -17 l 1,117,-1
 146 -17 l 1,118,-1
 146 5 l 1,119,-1
 135 5 l 1,120,-1
 135 17 l 1,121,-1
 123 17 l 1,122,-1
 123 40 l 1,123,-1
 113 40 l 1,124,-1
 113 61 l 1,125,-1
 101 61 l 1,126,-1
 101 73 l 1,127,-1
 90 73 l 1,128,-1
 90 84 l 1,129,-1
 80 84 l 1,130,-1
 80 106 l 1,131,-1
 68 106 l 1,132,-1
 68 141 l 1,133,-1
 57 141 l 1,134,-1
 57 186 l 1,135,-1
 45 186 l 1,136,-1
 45 209 l 1,137,-1
 34 209 l 1,138,-1
 34 320 l 1,139,-1
 22 320 l 1,140,-1
 22 355 l 1,141,-1
 34 355 l 1,142,-1
 34 433 l 1,143,-1
 45 433 l 1,144,-1
 45 478 l 1,145,-1
 57 478 l 1,146,-1
 57 512 l 1,147,-1
 68 512 l 1,148,-1
 68 524 l 1,149,-1
 80 524 l 1,150,-1
 80 557 l 1,151,-1
 90 557 l 1,152,-1
 90 567 l 1,153,-1
 101 567 l 1,154,-1
 101 590 l 1,155,-1
 113 590 l 1,156,-1
 113 613 l 1,157,-1
 123 613 l 1,158,-1
 123 625 l 1,159,-1
 135 625 l 1,160,-1
 135 635 l 1,161,-1
 146 635 l 1,162,-1
 146 647 l 1,163,-1
 158 647 l 1,164,-1
 158 658 l 1,165,-1
 168 658 l 1,166,-1
 168 680 l 1,167,-1
 180 680 l 1,168,-1
 180 692 l 1,169,-1
 191 692 l 1,170,-1
 191 703 l 1,171,-1
 203 703 l 1,172,-1
 203 715 l 1,173,-1
 214 715 l 1,174,-1
 214 726 l 1,175,-1
 226 726 l 1,176,-1
 226 736 l 1,177,-1
 236 736 l 1,178,-1
 236 759 l 1,179,-1
 248 759 l 1,180,-1
 248 771 l 1,181,-1
 259 771 l 1,182,-1
 259 781 l 1,183,-1
 281 781 l 1,184,-1
 281 793 l 1,185,-1
 292 793 l 1,0,-1
EndSplineSet
EndChar

StartChar: parenright
Encoding: 41 41 14
Width: 370
GlyphClass: 2
Flags: W
LayerCount: 2
Fore
SplineSet
32 804 m 1,0,-1
 32 816 l 1,1,-1
 77 816 l 1,2,-1
 77 804 l 1,3,-1
 89 804 l 1,4,-1
 89 793 l 1,5,-1
 100 793 l 1,6,-1
 100 781 l 1,7,-1
 112 781 l 1,8,-1
 112 771 l 1,9,-1
 123 771 l 1,10,-1
 123 759 l 1,11,-1
 135 759 l 1,12,-1
 135 748 l 1,13,-1
 157 748 l 1,14,-1
 157 726 l 1,15,-1
 168 726 l 1,16,-1
 168 715 l 1,17,-1
 180 715 l 1,18,-1
 180 703 l 1,19,-1
 190 703 l 1,20,-1
 190 692 l 1,21,-1
 201 692 l 1,22,-1
 201 680 l 1,23,-1
 213 680 l 1,24,-1
 213 670 l 1,25,-1
 223 670 l 1,26,-1
 223 647 l 1,27,-1
 235 647 l 1,28,-1
 235 635 l 1,29,-1
 246 635 l 1,30,-1
 246 625 l 1,31,-1
 258 625 l 1,32,-1
 258 602 l 1,33,-1
 269 602 l 1,34,-1
 269 590 l 1,35,-1
 281 590 l 1,36,-1
 281 567 l 1,37,-1
 291 567 l 1,38,-1
 291 546 l 1,39,-1
 303 546 l 1,40,-1
 303 534 l 1,41,-1
 314 534 l 1,42,-1
 314 512 l 1,43,-1
 326 512 l 1,44,-1
 326 467 l 1,45,-1
 336 467 l 1,46,-1
 336 399 l 1,47,-1
 348 399 l 1,48,-1
 348 209 l 1,49,-1
 336 209 l 1,50,-1
 336 174 l 1,51,-1
 326 174 l 1,52,-1
 326 152 l 1,53,-1
 314 152 l 1,54,-1
 314 118 l 1,55,-1
 303 118 l 1,56,-1
 303 96 l 1,57,-1
 291 96 l 1,58,-1
 291 73 l 1,59,-1
 281 73 l 1,60,-1
 281 61 l 1,61,-1
 269 61 l 1,62,-1
 269 40 l 1,63,-1
 258 40 l 1,64,-1
 258 28 l 1,65,-1
 246 28 l 1,66,-1
 246 5 l 1,67,-1
 235 5 l 1,68,-1
 235 -5 l 1,69,-1
 223 -5 l 1,70,-1
 223 -17 l 1,71,-1
 213 -17 l 1,72,-1
 213 -28 l 1,73,-1
 201 -28 l 1,74,-1
 201 -40 l 1,75,-1
 190 -40 l 1,76,-1
 190 -50 l 1,77,-1
 180 -50 l 1,78,-1
 180 -62 l 1,79,-1
 168 -62 l 1,80,-1
 168 -73 l 1,81,-1
 157 -73 l 1,82,-1
 157 -85 l 1,83,-1
 145 -85 l 1,84,-1
 145 -96 l 1,85,-1
 135 -96 l 1,86,-1
 135 -108 l 1,87,-1
 123 -108 l 1,88,-1
 123 -118 l 1,89,-1
 112 -118 l 1,90,-1
 112 -141 l 1,91,-1
 100 -141 l 1,92,-1
 100 -151 l 1,93,-1
 67 -151 l 1,94,-1
 67 -163 l 1,95,-1
 44 -163 l 1,96,-1
 44 -151 l 1,97,-1
 32 -151 l 1,98,-1
 32 -129 l 1,99,-1
 22 -129 l 1,100,-1
 22 -118 l 1,101,-1
 32 -118 l 1,102,-1
 32 -96 l 1,103,-1
 44 -96 l 1,104,-1
 44 -85 l 1,105,-1
 55 -85 l 1,106,-1
 55 -73 l 1,107,-1
 67 -73 l 1,108,-1
 67 -62 l 1,109,-1
 89 -62 l 1,110,-1
 89 -50 l 1,111,-1
 100 -50 l 1,112,-1
 100 -40 l 1,113,-1
 112 -40 l 1,114,-1
 112 -17 l 1,115,-1
 123 -17 l 1,116,-1
 123 -5 l 1,117,-1
 135 -5 l 1,118,-1
 135 5 l 1,119,-1
 145 5 l 1,120,-1
 145 28 l 1,121,-1
 157 28 l 1,122,-1
 157 40 l 1,123,-1
 168 40 l 1,124,-1
 168 51 l 1,125,-1
 180 51 l 1,126,-1
 180 73 l 1,127,-1
 190 73 l 1,128,-1
 190 96 l 1,129,-1
 201 96 l 1,130,-1
 201 118 l 1,131,-1
 213 118 l 1,132,-1
 213 141 l 1,133,-1
 223 141 l 1,134,-1
 223 186 l 1,135,-1
 235 186 l 1,136,-1
 235 230 l 1,137,-1
 246 230 l 1,138,-1
 246 411 l 1,139,-1
 235 411 l 1,140,-1
 235 444 l 1,141,-1
 223 444 l 1,142,-1
 223 489 l 1,143,-1
 213 489 l 1,144,-1
 213 512 l 1,145,-1
 201 512 l 1,146,-1
 201 546 l 1,147,-1
 190 546 l 1,148,-1
 190 567 l 1,149,-1
 180 567 l 1,150,-1
 180 590 l 1,151,-1
 168 590 l 1,152,-1
 168 602 l 1,153,-1
 157 602 l 1,154,-1
 157 625 l 1,155,-1
 145 625 l 1,156,-1
 145 635 l 1,157,-1
 135 635 l 1,158,-1
 135 647 l 1,159,-1
 123 647 l 1,160,-1
 123 658 l 1,161,-1
 112 658 l 1,162,-1
 112 670 l 1,163,-1
 100 670 l 1,164,-1
 100 692 l 1,165,-1
 89 692 l 1,166,-1
 89 703 l 1,167,-1
 67 703 l 1,168,-1
 67 715 l 1,169,-1
 55 715 l 1,170,-1
 55 726 l 1,171,-1
 44 726 l 1,172,-1
 44 736 l 1,173,-1
 32 736 l 1,174,-1
 32 748 l 1,175,-1
 22 748 l 1,176,-1
 22 804 l 1,177,-1
 32 804 l 1,0,-1
EndSplineSet
EndChar

StartChar: asterisk
Encoding: 42 42 15
Width: 660
GlyphClass: 2
Flags: W
LayerCount: 2
Fore
SplineSet
272 76 m 1,0,-1
 258 76 l 1,1,-1
 258 69 l 1,2,-1
 248 69 l 1,3,-1
 248 59 l 1,4,-1
 236 59 l 1,5,-1
 236 49 l 1,6,-1
 226 49 l 1,7,-1
 226 37 l 1,8,-1
 216 37 l 1,9,-1
 216 29 l 1,10,-1
 202 29 l 1,11,-1
 202 20 l 1,12,-1
 189 20 l 1,13,-1
 189 9 l 1,14,-1
 178 9 l 1,15,-1
 178 0 l 1,16,-1
 153 0 l 1,17,-1
 153 7 l 1,18,-1
 142 7 l 1,19,-1
 142 16 l 1,20,-1
 130 16 l 1,21,-1
 130 25 l 1,22,-1
 120 25 l 1,23,-1
 120 34 l 1,24,-1
 112 34 l 1,25,-1
 112 41 l 1,26,-1
 100 41 l 1,27,-1
 100 47 l 1,28,-1
 91 47 l 1,29,-1
 91 56 l 1,30,-1
 78 56 l 1,31,-1
 78 65 l 1,32,-1
 63 65 l 1,33,-1
 63 75 l 1,34,-1
 50 75 l 1,35,-1
 50 87 l 1,36,-1
 35 87 l 1,37,-1
 35 100 l 1,38,-1
 22 100 l 1,39,-1
 22 190 l 1,40,-1
 31 190 l 1,41,-1
 31 202 l 1,42,-1
 52 202 l 1,43,-1
 52 196 l 1,44,-1
 62 196 l 1,45,-1
 62 188 l 1,46,-1
 73 188 l 1,47,-1
 73 180 l 1,48,-1
 85 180 l 1,49,-1
 85 167 l 1,50,-1
 99 167 l 1,51,-1
 99 159 l 1,52,-1
 110 159 l 1,53,-1
 110 151 l 1,54,-1
 120 151 l 1,55,-1
 120 141 l 1,56,-1
 132 141 l 1,57,-1
 132 131 l 1,58,-1
 144 131 l 1,59,-1
 144 123 l 1,60,-1
 157 123 l 1,61,-1
 157 115 l 1,62,-1
 167 115 l 1,63,-1
 167 123 l 1,64,-1
 181 123 l 1,65,-1
 181 131 l 1,66,-1
 192 131 l 1,67,-1
 192 141 l 1,68,-1
 204 141 l 1,69,-1
 204 151 l 1,70,-1
 218 151 l 1,71,-1
 218 159 l 1,72,-1
 229 159 l 1,73,-1
 229 167 l 1,74,-1
 238 167 l 1,75,-1
 238 173 l 1,76,-1
 248 173 l 1,77,-1
 248 180 l 1,78,-1
 260 180 l 1,79,-1
 260 188 l 1,80,-1
 280 188 l 1,81,-1
 280 183 l 1,82,-1
 290 183 l 1,83,-1
 290 174 l 1,84,-1
 300 174 l 1,85,-1
 300 164 l 1,86,-1
 312 164 l 1,87,-1
 312 153 l 1,88,-1
 325 153 l 1,89,-1
 325 143 l 1,90,-1
 337 143 l 1,91,-1
 337 133 l 1,92,-1
 351 133 l 1,93,-1
 351 123 l 1,94,-1
 362 123 l 1,95,-1
 362 115 l 1,96,-1
 368 115 l 1,97,-1
 368 162 l 1,98,-1
 380 162 l 1,99,-1
 380 191 l 1,100,-1
 368 191 l 1,101,-1
 368 271 l 1,102,-1
 375 271 l 1,103,-1
 375 382 l 1,104,-1
 368 382 l 1,105,-1
 368 418 l 1,106,-1
 362 418 l 1,107,-1
 362 430 l 1,108,-1
 368 430 l 1,109,-1
 368 520 l 1,110,-1
 380 520 l 1,111,-1
 380 530 l 1,112,-1
 446 530 l 1,113,-1
 446 520 l 1,114,-1
 504 520 l 1,115,-1
 504 508 l 1,116,-1
 582 508 l 1,117,-1
 582 497 l 1,118,-1
 627 497 l 1,119,-1
 627 485 l 1,120,-1
 638 485 l 1,121,-1
 638 410 l 1,122,-1
 627 410 l 1,123,-1
 627 404 l 1,124,-1
 549 404 l 1,125,-1
 549 416 l 1,126,-1
 479 416 l 1,127,-1
 479 400 l 1,128,-1
 468 400 l 1,129,-1
 468 191 l 1,130,-1
 479 191 l 1,131,-1
 479 158 l 1,132,-1
 468 158 l 1,133,-1
 468 100 l 1,134,-1
 479 100 l 1,135,-1
 479 90 l 1,136,-1
 491 90 l 1,137,-1
 491 78 l 1,138,-1
 594 78 l 1,139,-1
 594 67 l 1,140,-1
 604 67 l 1,141,-1
 604 55 l 1,142,-1
 615 55 l 1,143,-1
 615 0 l 1,144,-1
 492 0 l 1,145,-1
 492 -6 l 1,146,-1
 446 -6 l 1,147,-1
 446 0 l 1,148,-1
 369 0 l 1,149,-1
 369 6 l 1,150,-1
 357 5 l 1,151,-1
 357 15 l 1,152,-1
 346 15 l 1,153,-1
 346 24 l 1,154,-1
 334 24 l 1,155,-1
 334 32 l 1,156,-1
 323 32 l 1,157,-1
 323 41 l 1,158,-1
 310 41 l 1,159,-1
 310 50 l 1,160,-1
 300 50 l 1,161,-1
 300 58 l 1,162,-1
 292 58 l 1,163,-1
 292 64 l 1,164,-1
 281 64 l 1,165,-1
 281 70 l 1,166,-1
 272 70 l 1,167,-1
 272 76 l 1,0,-1
EndSplineSet
EndChar

StartChar: plus
Encoding: 43 43 16
Width: 541
GlyphClass: 2
Flags: W
LayerCount: 2
Fore
SplineSet
333 309 m 1,0,-1
 333 314 l 1,1,-1
 348 314 l 1,2,-1
 348 412 l 1,3,-1
 355 412 l 1,4,-1
 355 469 l 1,5,-1
 359 469 l 1,6,-1
 359 491 l 1,7,-1
 354 491 l 1,8,-1
 354 630 l 1,9,-1
 334 630 l 1,10,-1
 334 643 l 1,11,-1
 315 643 l 1,12,-1
 315 658 l 1,13,-1
 290 658 l 1,14,-1
 290 669 l 1,15,-1
 230 670 l 1,16,-1
 230 663 l 1,17,-1
 199 663 l 1,18,-1
 199 658 l 1,19,-1
 188 658 l 1,20,-1
 188 648 l 1,21,-1
 176 648 l 1,22,-1
 176 637 l 1,23,-1
 166 637 l 1,24,-1
 166 625 l 1,25,-1
 154 625 l 1,26,-1
 154 614 l 1,27,-1
 143 614 l 1,28,-1
 143 602 l 1,29,-1
 127 602 l 1,30,-1
 127 580 l 1,31,-1
 114 580 l 1,32,-1
 114 563 l 1,33,-1
 108 563 l 1,34,-1
 108 468 l 1,35,-1
 119 468 l 1,36,-1
 119 445 l 1,37,-1
 131 445 l 1,38,-1
 131 422 l 1,39,-1
 142 422 l 1,40,-1
 142 401 l 1,41,-1
 159 401 l 1,42,-1
 159 387 l 1,43,-1
 175 387 l 1,44,-1
 175 371 l 1,45,-1
 186 371 l 1,46,-1
 186 356 l 1,47,-1
 207 356 l 1,48,-1
 207 343 l 1,49,-1
 221 343 l 1,50,-1
 221 331 l 1,51,-1
 251 331 l 1,52,-1
 251 318 l 1,53,-1
 267 318 l 1,54,-1
 267 309 l 1,55,-1
 333 309 l 1,0,-1
463 740 m 1,56,-1
 463 729 l 1,57,-1
 485 729 l 1,58,-1
 485 717 l 1,59,-1
 507 717 l 1,60,-1
 507 706 l 1,61,-1
 519 706 l 1,62,-1
 519 673 l 1,63,-1
 507 673 l 1,64,-1
 507 661 l 1,65,-1
 475 661 l 1,66,-1
 475 651 l 1,67,-1
 444 651 l 1,68,-1
 444 639 l 1,69,-1
 434 639 l 1,70,-1
 434 457 l 1,71,-1
 442 457 l 1,72,-1
 442 255 l 1,73,-1
 434 255 l 1,74,-1
 434 112 l 1,75,-1
 445 112 l 1,76,-1
 445 78 l 1,77,-1
 456 78 l 1,78,-1
 456 67 l 1,79,-1
 490 67 l 1,80,-1
 490 55 l 1,81,-1
 501 55 l 1,82,-1
 501 8 l 1,83,-1
 478 8 l 1,84,-1
 478 -1 l 1,85,-1
 262 -1 l 1,86,-1
 262 10 l 1,87,-1
 238 10 l 1,88,-1
 238 55 l 1,89,-1
 251 55 l 1,90,-1
 251 67 l 1,91,-1
 322 67 l 1,92,-1
 322 78 l 1,93,-1
 344 78 l 1,94,-1
 344 123 l 1,95,-1
 356 123 l 1,96,-1
 356 215 l 1,97,-1
 302 215 l 1,98,-1
 302 222 l 1,99,-1
 276 222 l 1,100,-1
 276 230 l 1,101,-1
 243 230 l 1,102,-1
 243 239 l 1,103,-1
 233 239 l 1,104,-1
 233 247 l 1,105,-1
 199 247 l 1,106,-1
 199 259 l 1,107,-1
 171 259 l 1,108,-1
 171 273 l 1,109,-1
 157 273 l 1,110,-1
 157 285 l 1,111,-1
 143 285 l 1,112,-1
 143 298 l 1,113,-1
 122 298 l 1,114,-1
 122 309 l 1,115,-1
 110 309 l 1,116,-1
 110 320 l 1,117,-1
 99 320 l 1,118,-1
 99 332 l 1,119,-1
 87 332 l 1,120,-1
 87 343 l 1,121,-1
 77 343 l 1,122,-1
 77 355 l 1,123,-1
 65 355 l 1,124,-1
 65 377 l 1,125,-1
 54 377 l 1,126,-1
 54 398 l 1,127,-1
 42 398 l 1,128,-1
 42 421 l 1,129,-1
 32 421 l 1,130,-1
 32 444 l 1,131,-1
 22 444 l 1,132,-1
 22 491 l 1,133,-1
 28 491 l 1,134,-1
 28 563 l 1,135,-1
 37 563 l 1,136,-1
 37 593 l 1,137,-1
 47 593 l 1,138,-1
 47 628 l 1,139,-1
 59 628 l 1,140,-1
 59 639 l 1,141,-1
 70 639 l 1,142,-1
 70 661 l 1,143,-1
 82 661 l 1,144,-1
 82 673 l 1,145,-1
 92 673 l 1,146,-1
 92 688 l 1,147,-1
 104 688 l 1,148,-1
 104 696 l 1,149,-1
 115 696 l 1,150,-1
 115 706 l 1,151,-1
 127 706 l 1,152,-1
 127 717 l 1,153,-1
 149 717 l 1,154,-1
 149 729 l 1,155,-1
 178 729 l 1,156,-1
 178 740 l 1,157,-1
 200 740 l 1,158,-1
 200 749 l 1,159,-1
 276 749 l 1,160,-1
 276 740 l 1,161,-1
 309 740 l 1,162,-1
 309 729 l 1,163,-1
 354 729 l 1,164,-1
 354 721 l 1,165,-1
 366 721 l 1,166,-1
 366 729 l 1,167,-1
 376 729 l 1,168,-1
 376 740 l 1,169,-1
 463 740 l 1,56,-1
EndSplineSet
EndChar

StartChar: comma
Encoding: 44 44 17
Width: 212
GlyphClass: 2
Flags: W
LayerCount: 2
Fore
SplineSet
100 94 m 1,0,-1
 100 106 l 1,1,-1
 133 106 l 1,2,-1
 133 94 l 1,3,-1
 145 94 l 1,4,-1
 145 83 l 1,5,-1
 168 83 l 1,6,-1
 168 71 l 1,7,-1
 178 71 l 1,8,-1
 178 49 l 1,9,-1
 190 49 l 1,10,-1
 190 -75 l 1,11,-1
 178 -75 l 1,12,-1
 178 -98 l 1,13,-1
 168 -98 l 1,14,-1
 168 -108 l 1,15,-1
 156 -108 l 1,16,-1
 156 -120 l 1,17,-1
 145 -120 l 1,18,-1
 145 -131 l 1,19,-1
 133 -131 l 1,20,-1
 133 -143 l 1,21,-1
 123 -143 l 1,22,-1
 123 -153 l 1,23,-1
 111 -153 l 1,24,-1
 111 -164 l 1,25,-1
 100 -164 l 1,26,-1
 100 -176 l 1,27,-1
 88 -176 l 1,28,-1
 88 -187 l 1,29,-1
 67 -187 l 1,30,-1
 67 -199 l 1,31,-1
 55 -199 l 1,32,-1
 55 -187 l 1,33,-1
 32 -187 l 1,34,-1
 32 -164 l 1,35,-1
 22 -164 l 1,36,-1
 22 -153 l 1,37,-1
 32 -153 l 1,38,-1
 32 -131 l 1,39,-1
 44 -131 l 1,40,-1
 44 -120 l 1,41,-1
 55 -120 l 1,42,-1
 55 -98 l 1,43,-1
 67 -98 l 1,44,-1
 67 -86 l 1,45,-1
 77 -86 l 1,46,-1
 77 -75 l 1,47,-1
 88 -75 l 1,48,-1
 88 -30 l 1,49,-1
 77 -30 l 1,50,-1
 77 -18 l 1,51,-1
 67 -18 l 1,52,-1
 67 -7 l 1,53,-1
 55 -7 l 1,54,-1
 55 26 l 1,55,-1
 44 26 l 1,56,-1
 44 49 l 1,57,-1
 55 49 l 1,58,-1
 55 83 l 1,59,-1
 77 83 l 1,60,-1
 77 94 l 1,61,-1
 100 94 l 1,0,-1
EndSplineSet
EndChar

StartChar: hyphen
Encoding: 45 45 18
Width: 640
GlyphClass: 2
Flags: W
LayerCount: 2
Fore
SplineSet
601 396 m 1,0,-1
 601 368 l 1,1,-1
 584 368 l 1,2,-1
 584 346 l 1,3,-1
 565 346 l 1,4,-1
 565 329 l 1,5,-1
 542 329 l 1,6,-1
 542 316 l 1,7,-1
 491 316 l 1,8,-1
 491 298 l 1,9,-1
 466 298 l 1,10,-1
 466 286 l 1,11,-1
 405 286 l 1,12,-1
 405 293 l 1,13,-1
 376 293 l 1,14,-1
 376 297 l 1,15,-1
 363 297 l 1,16,-1
 363 300 l 1,17,-1
 346 300 l 1,18,-1
 346 309 l 1,19,-1
 312 309 l 1,20,-1
 312 321 l 1,21,-1
 278 321 l 1,22,-1
 278 338 l 1,23,-1
 266 338 l 1,24,-1
 267 272 l 1,25,-1
 281 272 l 1,26,-1
 281 184 l 1,27,-1
 267 184 l 1,28,-1
 268 112 l 1,29,-1
 280 112 l 1,30,-1
 280 -135 l 1,31,-1
 290 -135 l 1,32,-1
 290 -147 l 1,33,-1
 280 -147 l 1,34,-1
 280 -237 l 1,35,-1
 268 -237 l 1,36,-1
 268 -247 l 1,37,-1
 200 -247 l 1,38,-1
 200 -237 l 1,39,-1
 170 -237 l 1,40,-1
 170 -225 l 1,41,-1
 119 -225 l 1,42,-1
 119 -214 l 1,43,-1
 70 -214 l 1,44,-1
 70 -202 l 1,45,-1
 57 -203 l 1,46,-1
 57 -132 l 1,47,-1
 70 -131 l 1,48,-1
 70 -121 l 1,49,-1
 152 -121 l 1,50,-1
 152 -131 l 1,51,-1
 177 -131 l 1,52,-1
 177 -121 l 1,53,-1
 187 -121 l 1,54,-1
 187 264 l 1,55,-1
 176 264 l 1,56,-1
 176 297 l 1,57,-1
 187 297 l 1,58,-1
 187 365 l 1,59,-1
 176 365 l 1,60,-1
 176 374 l 1,61,-1
 164 374 l 1,62,-1
 164 387 l 1,63,-1
 47 387 l 1,64,-1
 47 398 l 1,65,-1
 37 398 l 1,66,-1
 37 410 l 1,67,-1
 22 410 l 1,68,-1
 22 485 l 1,69,-1
 259 485 l 1,70,-1
 259 450 l 1,71,-1
 291 450 l 1,72,-1
 291 428 l 1,73,-1
 313 428 l 1,74,-1
 313 411 l 1,75,-1
 328 411 l 1,76,-1
 328 395 l 1,77,-1
 344 395 l 1,78,-1
 344 388 l 1,79,-1
 377 388 l 1,80,-1
 377 382 l 1,81,-1
 391 382 l 1,82,-1
 391 375 l 1,83,-1
 406 375 l 1,84,-1
 406 370 l 1,85,-1
 430 370 l 1,86,-1
 430 378 l 1,87,-1
 455 378 l 1,88,-1
 455 400 l 1,89,-1
 472 400 l 1,90,-1
 472 419 l 1,91,-1
 490 419 l 1,92,-1
 490 435 l 1,93,-1
 496 435 l 1,94,-1
 496 452 l 1,95,-1
 513 452 l 1,96,-1
 513 470 l 1,97,-1
 542 470 l 1,98,-1
 542 486 l 1,99,-1
 601 486 l 1,100,-1
 601 463 l 1,101,-1
 618 463 l 1,102,-1
 618 396 l 1,103,-1
 601 396 l 1,0,-1
EndSplineSet
EndChar

StartChar: period
Encoding: 46 46 19
Width: 236
GlyphClass: 2
Flags: W
LayerCount: 2
Fore
SplineSet
113 94 m 1,0,-1
 113 106 l 1,1,-1
 123 106 l 1,2,-1
 123 94 l 1,3,-1
 168 94 l 1,4,-1
 168 83 l 1,5,-1
 180 83 l 1,6,-1
 180 71 l 1,7,-1
 191 71 l 1,8,-1
 191 49 l 1,9,-1
 203 49 l 1,10,-1
 203 26 l 1,11,-1
 214 26 l 1,12,-1
 214 15 l 1,13,-1
 203 15 l 1,14,-1
 203 -18 l 1,15,-1
 191 -18 l 1,16,-1
 191 -30 l 1,17,-1
 180 -30 l 1,18,-1
 180 -40 l 1,19,-1
 168 -40 l 1,20,-1
 168 -52 l 1,21,-1
 158 -52 l 1,22,-1
 158 -63 l 1,23,-1
 146 -63 l 1,24,-1
 146 -75 l 1,25,-1
 113 -75 l 1,26,-1
 113 -63 l 1,27,-1
 80 -63 l 1,28,-1
 80 -52 l 1,29,-1
 57 -52 l 1,30,-1
 57 -40 l 1,31,-1
 45 -40 l 1,32,-1
 45 -30 l 1,33,-1
 34 -30 l 1,34,-1
 34 -7 l 1,35,-1
 22 -7 l 1,36,-1
 22 15 l 1,37,-1
 34 15 l 1,38,-1
 34 61 l 1,39,-1
 45 61 l 1,40,-1
 45 71 l 1,41,-1
 57 71 l 1,42,-1
 57 83 l 1,43,-1
 68 83 l 1,44,-1
 68 94 l 1,45,-1
 113 94 l 1,0,-1
EndSplineSet
EndChar

StartChar: slash
Encoding: 47 47 20
Width: 660
GlyphClass: 2
Flags: W
LayerCount: 2
Fore
SplineSet
272 76 m 1,0,-1
 258 76 l 1,1,-1
 258 69 l 1,2,-1
 248 69 l 1,3,-1
 248 59 l 1,4,-1
 236 59 l 1,5,-1
 236 49 l 1,6,-1
 226 49 l 1,7,-1
 226 37 l 1,8,-1
 216 37 l 1,9,-1
 216 29 l 1,10,-1
 202 29 l 1,11,-1
 202 20 l 1,12,-1
 189 20 l 1,13,-1
 189 9 l 1,14,-1
 178 9 l 1,15,-1
 178 0 l 1,16,-1
 153 0 l 1,17,-1
 153 7 l 1,18,-1
 142 7 l 1,19,-1
 142 16 l 1,20,-1
 130 16 l 1,21,-1
 130 25 l 1,22,-1
 120 25 l 1,23,-1
 120 34 l 1,24,-1
 112 34 l 1,25,-1
 112 41 l 1,26,-1
 100 41 l 1,27,-1
 100 47 l 1,28,-1
 91 47 l 1,29,-1
 91 56 l 1,30,-1
 78 56 l 1,31,-1
 78 65 l 1,32,-1
 63 65 l 1,33,-1
 63 75 l 1,34,-1
 50 75 l 1,35,-1
 50 87 l 1,36,-1
 35 87 l 1,37,-1
 35 100 l 1,38,-1
 22 100 l 1,39,-1
 22 170 l 1,40,-1
 31 170 l 1,41,-1
 31 182 l 1,42,-1
 52 182 l 1,43,-1
 52 176 l 1,44,-1
 62 176 l 1,45,-1
 62 168 l 1,46,-1
 73 168 l 1,47,-1
 73 160 l 1,48,-1
 85 160 l 1,49,-1
 85 147 l 1,50,-1
 99 147 l 1,51,-1
 99 139 l 1,52,-1
 110 139 l 1,53,-1
 110 131 l 1,54,-1
 120 131 l 1,55,-1
 120 121 l 1,56,-1
 132 121 l 1,57,-1
 132 111 l 1,58,-1
 144 111 l 1,59,-1
 144 103 l 1,60,-1
 157 103 l 1,61,-1
 157 95 l 1,62,-1
 167 95 l 1,63,-1
 167 103 l 1,64,-1
 181 103 l 1,65,-1
 181 111 l 1,66,-1
 192 111 l 1,67,-1
 192 121 l 1,68,-1
 204 121 l 1,69,-1
 204 131 l 1,70,-1
 218 131 l 1,71,-1
 218 139 l 1,72,-1
 229 139 l 1,73,-1
 229 147 l 1,74,-1
 238 147 l 1,75,-1
 238 153 l 1,76,-1
 248 153 l 1,77,-1
 248 160 l 1,78,-1
 260 160 l 1,79,-1
 260 168 l 1,80,-1
 280 168 l 1,81,-1
 280 163 l 1,82,-1
 290 163 l 1,83,-1
 290 154 l 1,84,-1
 300 154 l 1,85,-1
 300 144 l 1,86,-1
 312 144 l 1,87,-1
 312 133 l 1,88,-1
 325 133 l 1,89,-1
 325 123 l 1,90,-1
 337 123 l 1,91,-1
 337 113 l 1,92,-1
 351 113 l 1,93,-1
 351 103 l 1,94,-1
 362 103 l 1,95,-1
 362 95 l 1,96,-1
 368 95 l 1,97,-1
 368 142 l 1,98,-1
 380 142 l 1,99,-1
 380 191 l 1,100,-1
 368 191 l 1,101,-1
 368 271 l 1,102,-1
 375 271 l 1,103,-1
 375 395 l 1,104,-1
 368 395 l 1,105,-1
 368 641 l 1,106,-1
 362 641 l 1,107,-1
 362 653 l 1,108,-1
 368 653 l 1,109,-1
 368 743 l 1,110,-1
 380 743 l 1,111,-1
 380 753 l 1,112,-1
 446 753 l 1,113,-1
 446 743 l 1,114,-1
 504 743 l 1,115,-1
 504 731 l 1,116,-1
 582 731 l 1,117,-1
 582 720 l 1,118,-1
 627 720 l 1,119,-1
 627 708 l 1,120,-1
 638 708 l 1,121,-1
 638 663 l 1,122,-1
 627 663 l 1,123,-1
 627 657 l 1,124,-1
 549 657 l 1,125,-1
 549 669 l 1,126,-1
 469 669 l 1,127,-1
 469 653 l 1,128,-1
 458 653 l 1,129,-1
 458 191 l 1,130,-1
 469 191 l 1,131,-1
 469 158 l 1,132,-1
 458 158 l 1,133,-1
 458 90 l 1,134,-1
 469 90 l 1,135,-1
 469 80 l 1,136,-1
 481 80 l 1,137,-1
 481 68 l 1,138,-1
 594 68 l 1,139,-1
 594 57 l 1,140,-1
 604 57 l 1,141,-1
 604 45 l 1,142,-1
 615 45 l 1,143,-1
 615 0 l 1,144,-1
 492 0 l 1,145,-1
 492 -6 l 1,146,-1
 446 -6 l 1,147,-1
 446 0 l 1,148,-1
 369 0 l 1,149,-1
 369 6 l 1,150,-1
 357 5 l 1,151,-1
 357 15 l 1,152,-1
 346 15 l 1,153,-1
 346 24 l 1,154,-1
 334 24 l 1,155,-1
 334 32 l 1,156,-1
 323 32 l 1,157,-1
 323 41 l 1,158,-1
 310 41 l 1,159,-1
 310 50 l 1,160,-1
 300 50 l 1,161,-1
 300 58 l 1,162,-1
 292 58 l 1,163,-1
 292 64 l 1,164,-1
 281 64 l 1,165,-1
 281 70 l 1,166,-1
 272 70 l 1,167,-1
 272 76 l 1,0,-1
EndSplineSet
EndChar

StartChar: zero
Encoding: 48 48 21
Width: 550
GlyphClass: 2
Flags: W
LayerCount: 2
Fore
SplineSet
426 356 m 1,0,-1
 426 424 l 1,1,-1
 438 424 l 1,2,-1
 438 469 l 1,3,-1
 426 469 l 1,4,-1
 426 535 l 1,5,-1
 415 535 l 1,6,-1
 415 580 l 1,7,-1
 403 580 l 1,8,-1
 403 615 l 1,9,-1
 392 615 l 1,10,-1
 392 638 l 1,11,-1
 382 638 l 1,12,-1
 382 660 l 1,13,-1
 370 660 l 1,14,-1
 370 671 l 1,15,-1
 359 671 l 1,16,-1
 359 683 l 1,17,-1
 347 683 l 1,18,-1
 347 693 l 1,19,-1
 325 693 l 1,20,-1
 325 704 l 1,21,-1
 302 704 l 1,22,-1
 302 716 l 1,23,-1
 246 716 l 1,24,-1
 246 704 l 1,25,-1
 224 704 l 1,26,-1
 224 693 l 1,27,-1
 201 693 l 1,28,-1
 201 683 l 1,29,-1
 191 683 l 1,30,-1
 191 671 l 1,31,-1
 179 671 l 1,32,-1
 179 660 l 1,33,-1
 168 660 l 1,34,-1
 168 638 l 1,35,-1
 156 638 l 1,36,-1
 156 615 l 1,37,-1
 146 615 l 1,38,-1
 146 580 l 1,39,-1
 134 580 l 1,40,-1
 134 535 l 1,41,-1
 123 535 l 1,42,-1
 123 446 l 1,43,-1
 111 446 l 1,44,-1
 111 300 l 1,45,-1
 123 300 l 1,46,-1
 123 232 l 1,47,-1
 134 232 l 1,48,-1
 134 187 l 1,49,-1
 146 187 l 1,50,-1
 146 154 l 1,51,-1
 156 154 l 1,52,-1
 156 142 l 1,53,-1
 168 142 l 1,54,-1
 168 119 l 1,55,-1
 179 119 l 1,56,-1
 179 109 l 1,57,-1
 191 109 l 1,58,-1
 191 97 l 1,59,-1
 201 97 l 1,60,-1
 201 86 l 1,61,-1
 224 86 l 1,62,-1
 224 74 l 1,63,-1
 302 74 l 1,64,-1
 302 86 l 1,65,-1
 325 86 l 1,66,-1
 325 97 l 1,67,-1
 347 97 l 1,68,-1
 347 109 l 1,69,-1
 359 109 l 1,70,-1
 359 119 l 1,71,-1
 370 119 l 1,72,-1
 370 131 l 1,73,-1
 382 131 l 1,74,-1
 382 142 l 1,75,-1
 392 142 l 1,76,-1
 392 176 l 1,77,-1
 403 176 l 1,78,-1
 403 198 l 1,79,-1
 415 198 l 1,80,-1
 415 243 l 1,81,-1
 426 243 l 1,82,-1
 426 345 l 1,83,-1
 438 345 l 1,84,-1
 438 356 l 1,85,-1
 426 356 l 1,0,-1
224 772 m 1,86,-1
 224 784 l 1,87,-1
 325 784 l 1,88,-1
 325 772 l 1,89,-1
 370 772 l 1,90,-1
 370 761 l 1,91,-1
 382 761 l 1,92,-1
 382 749 l 1,93,-1
 403 749 l 1,94,-1
 403 739 l 1,95,-1
 415 739 l 1,96,-1
 415 727 l 1,97,-1
 426 727 l 1,98,-1
 426 716 l 1,99,-1
 438 716 l 1,100,-1
 438 704 l 1,101,-1
 448 704 l 1,102,-1
 448 693 l 1,103,-1
 460 693 l 1,104,-1
 460 683 l 1,105,-1
 471 683 l 1,106,-1
 471 660 l 1,107,-1
 483 660 l 1,108,-1
 483 626 l 1,109,-1
 493 626 l 1,110,-1
 493 603 l 1,111,-1
 505 603 l 1,112,-1
 505 547 l 1,113,-1
 516 547 l 1,114,-1
 516 479 l 1,115,-1
 528 479 l 1,116,-1
 528 288 l 1,117,-1
 516 288 l 1,118,-1
 516 220 l 1,119,-1
 505 220 l 1,120,-1
 505 187 l 1,121,-1
 493 187 l 1,122,-1
 493 154 l 1,123,-1
 483 154 l 1,124,-1
 483 142 l 1,125,-1
 471 142 l 1,126,-1
 471 119 l 1,127,-1
 460 119 l 1,128,-1
 460 97 l 1,129,-1
 448 97 l 1,130,-1
 448 86 l 1,131,-1
 438 86 l 1,132,-1
 438 74 l 1,133,-1
 426 74 l 1,134,-1
 426 52 l 1,135,-1
 403 52 l 1,136,-1
 403 41 l 1,137,-1
 392 41 l 1,138,-1
 392 29 l 1,139,-1
 382 29 l 1,140,-1
 382 18 l 1,141,-1
 370 18 l 1,142,-1
 370 8 l 1,143,-1
 325 8 l 1,144,-1
 325 -4 l 1,145,-1
 257 -4 l 1,146,-1
 257 8 l 1,147,-1
 201 8 l 1,148,-1
 201 18 l 1,149,-1
 179 18 l 1,150,-1
 179 29 l 1,151,-1
 156 29 l 1,152,-1
 156 41 l 1,153,-1
 146 41 l 1,154,-1
 146 52 l 1,155,-1
 123 52 l 1,156,-1
 123 64 l 1,157,-1
 111 64 l 1,158,-1
 111 74 l 1,159,-1
 100 74 l 1,160,-1
 100 86 l 1,161,-1
 89 86 l 1,162,-1
 89 109 l 1,163,-1
 78 109 l 1,164,-1
 78 131 l 1,165,-1
 66 131 l 1,166,-1
 66 154 l 1,167,-1
 55 154 l 1,168,-1
 55 187 l 1,169,-1
 45 187 l 1,170,-1
 45 220 l 1,171,-1
 33 220 l 1,172,-1
 33 300 l 1,173,-1
 22 300 l 1,174,-1
 22 457 l 1,175,-1
 33 457 l 1,176,-1
 33 558 l 1,177,-1
 45 558 l 1,178,-1
 45 592 l 1,179,-1
 55 592 l 1,180,-1
 55 626 l 1,181,-1
 66 626 l 1,182,-1
 66 648 l 1,183,-1
 78 648 l 1,184,-1
 78 671 l 1,185,-1
 89 671 l 1,186,-1
 89 683 l 1,187,-1
 100 683 l 1,188,-1
 100 704 l 1,189,-1
 111 704 l 1,190,-1
 111 716 l 1,191,-1
 123 716 l 1,192,-1
 123 727 l 1,193,-1
 134 727 l 1,194,-1
 134 739 l 1,195,-1
 146 739 l 1,196,-1
 146 749 l 1,197,-1
 156 749 l 1,198,-1
 156 761 l 1,199,-1
 191 761 l 1,200,-1
 191 772 l 1,201,-1
 224 772 l 1,86,-1
EndSplineSet
EndChar

StartChar: one
Encoding: 49 49 22
Width: 516
GlyphClass: 2
Flags: W
LayerCount: 2
Fore
SplineSet
225 772 m 1,0,-1
 225 784 l 1,1,-1
 269 784 l 1,2,-1
 269 772 l 1,3,-1
 281 772 l 1,4,-1
 281 761 l 1,5,-1
 291 761 l 1,6,-1
 291 424 l 1,7,-1
 281 424 l 1,8,-1
 281 412 l 1,9,-1
 291 412 l 1,10,-1
 291 356 l 1,11,-1
 281 356 l 1,12,-1
 281 345 l 1,13,-1
 291 345 l 1,14,-1
 291 288 l 1,15,-1
 281 288 l 1,16,-1
 281 255 l 1,17,-1
 291 255 l 1,18,-1
 291 210 l 1,19,-1
 281 210 l 1,20,-1
 281 119 l 1,21,-1
 291 119 l 1,22,-1
 291 97 l 1,23,-1
 303 97 l 1,24,-1
 303 86 l 1,25,-1
 314 86 l 1,26,-1
 314 74 l 1,27,-1
 482 74 l 1,28,-1
 482 64 l 1,29,-1
 494 64 l 1,30,-1
 494 8 l 1,31,-1
 67 8 l 1,32,-1
 67 18 l 1,33,-1
 44 18 l 1,34,-1
 44 64 l 1,35,-1
 56 64 l 1,36,-1
 56 74 l 1,37,-1
 77 74 l 1,38,-1
 77 86 l 1,39,-1
 89 86 l 1,40,-1
 89 74 l 1,41,-1
 168 74 l 1,42,-1
 168 86 l 1,43,-1
 190 86 l 1,44,-1
 190 97 l 1,45,-1
 202 97 l 1,46,-1
 202 277 l 1,47,-1
 190 277 l 1,48,-1
 190 323 l 1,49,-1
 202 323 l 1,50,-1
 202 457 l 1,51,-1
 190 457 l 1,52,-1
 190 558 l 1,53,-1
 202 558 l 1,54,-1
 202 683 l 1,55,-1
 190 683 l 1,56,-1
 190 693 l 1,57,-1
 123 693 l 1,58,-1
 123 683 l 1,59,-1
 34 683 l 1,60,-1
 34 704 l 1,61,-1
 22 704 l 1,62,-1
 22 739 l 1,63,-1
 34 739 l 1,64,-1
 34 749 l 1,65,-1
 44 749 l 1,66,-1
 44 761 l 1,67,-1
 168 761 l 1,68,-1
 168 772 l 1,69,-1
 225 772 l 1,0,-1
EndSplineSet
Substitution2: "'sups' Superscript in Latin lookup 9 subtable" onesuperior
Substitution2: "'aalt' Access All Alternates in Latin lookup 0 subtable" onesuperior
EndChar

StartChar: two
Encoding: 50 50 23
Width: 528
GlyphClass: 2
Flags: W
LayerCount: 2
Fore
SplineSet
214 772 m 1,0,-1
 214 784 l 1,1,-1
 314 784 l 1,2,-1
 314 772 l 1,3,-1
 348 772 l 1,4,-1
 348 761 l 1,5,-1
 370 761 l 1,6,-1
 370 749 l 1,7,-1
 382 749 l 1,8,-1
 382 739 l 1,9,-1
 393 739 l 1,10,-1
 393 727 l 1,11,-1
 405 727 l 1,12,-1
 405 716 l 1,13,-1
 415 716 l 1,14,-1
 415 704 l 1,15,-1
 427 704 l 1,16,-1
 427 693 l 1,17,-1
 438 693 l 1,18,-1
 438 683 l 1,19,-1
 448 683 l 1,20,-1
 448 660 l 1,21,-1
 460 660 l 1,22,-1
 460 626 l 1,23,-1
 471 626 l 1,24,-1
 471 535 l 1,25,-1
 460 535 l 1,26,-1
 460 502 l 1,27,-1
 448 502 l 1,28,-1
 448 469 l 1,29,-1
 438 469 l 1,30,-1
 438 446 l 1,31,-1
 427 446 l 1,32,-1
 427 434 l 1,33,-1
 415 434 l 1,34,-1
 415 424 l 1,35,-1
 405 424 l 1,36,-1
 405 412 l 1,37,-1
 393 412 l 1,38,-1
 393 389 l 1,39,-1
 382 389 l 1,40,-1
 382 378 l 1,41,-1
 370 378 l 1,42,-1
 370 366 l 1,43,-1
 360 366 l 1,44,-1
 360 356 l 1,45,-1
 348 356 l 1,46,-1
 348 333 l 1,47,-1
 337 333 l 1,48,-1
 337 323 l 1,49,-1
 325 323 l 1,50,-1
 325 311 l 1,51,-1
 314 311 l 1,52,-1
 314 300 l 1,53,-1
 302 300 l 1,54,-1
 302 277 l 1,55,-1
 292 277 l 1,56,-1
 292 266 l 1,57,-1
 280 266 l 1,58,-1
 280 255 l 1,59,-1
 269 255 l 1,60,-1
 269 243 l 1,61,-1
 259 243 l 1,62,-1
 259 232 l 1,63,-1
 247 232 l 1,64,-1
 247 220 l 1,65,-1
 236 220 l 1,66,-1
 236 210 l 1,67,-1
 224 210 l 1,68,-1
 224 198 l 1,69,-1
 214 198 l 1,70,-1
 214 187 l 1,71,-1
 202 187 l 1,72,-1
 202 176 l 1,73,-1
 191 176 l 1,74,-1
 191 154 l 1,75,-1
 179 154 l 1,76,-1
 179 131 l 1,77,-1
 168 131 l 1,78,-1
 168 119 l 1,79,-1
 156 119 l 1,80,-1
 156 97 l 1,81,-1
 314 97 l 1,82,-1
 314 86 l 1,83,-1
 325 86 l 1,84,-1
 325 97 l 1,85,-1
 438 97 l 1,86,-1
 438 109 l 1,87,-1
 460 109 l 1,88,-1
 460 119 l 1,89,-1
 483 119 l 1,90,-1
 483 109 l 1,91,-1
 506 109 l 1,92,-1
 506 64 l 1,93,-1
 494 64 l 1,94,-1
 494 29 l 1,95,-1
 483 29 l 1,96,-1
 483 18 l 1,97,-1
 460 18 l 1,98,-1
 460 8 l 1,99,-1
 415 8 l 1,100,-1
 415 18 l 1,101,-1
 405 18 l 1,102,-1
 405 8 l 1,103,-1
 348 8 l 1,104,-1
 348 18 l 1,105,-1
 259 18 l 1,106,-1
 259 8 l 1,107,-1
 247 8 l 1,108,-1
 247 18 l 1,109,-1
 214 18 l 1,110,-1
 214 8 l 1,111,-1
 45 8 l 1,112,-1
 45 18 l 1,113,-1
 33 18 l 1,114,-1
 33 29 l 1,115,-1
 22 29 l 1,116,-1
 22 74 l 1,117,-1
 33 74 l 1,118,-1
 33 97 l 1,119,-1
 45 97 l 1,120,-1
 45 109 l 1,121,-1
 56 109 l 1,122,-1
 56 119 l 1,123,-1
 68 119 l 1,124,-1
 68 131 l 1,125,-1
 78 131 l 1,126,-1
 78 142 l 1,127,-1
 90 142 l 1,128,-1
 90 154 l 1,129,-1
 101 154 l 1,130,-1
 101 165 l 1,131,-1
 111 165 l 1,132,-1
 111 176 l 1,133,-1
 123 176 l 1,134,-1
 123 198 l 1,135,-1
 134 198 l 1,136,-1
 134 210 l 1,137,-1
 146 210 l 1,138,-1
 146 220 l 1,139,-1
 156 220 l 1,140,-1
 156 232 l 1,141,-1
 168 232 l 1,142,-1
 168 243 l 1,143,-1
 179 243 l 1,144,-1
 179 255 l 1,145,-1
 191 255 l 1,146,-1
 191 266 l 1,147,-1
 202 266 l 1,148,-1
 202 277 l 1,149,-1
 214 277 l 1,150,-1
 214 300 l 1,151,-1
 224 300 l 1,152,-1
 224 311 l 1,153,-1
 236 311 l 1,154,-1
 236 323 l 1,155,-1
 247 323 l 1,156,-1
 247 333 l 1,157,-1
 259 333 l 1,158,-1
 259 345 l 1,159,-1
 269 345 l 1,160,-1
 269 366 l 1,161,-1
 280 366 l 1,162,-1
 280 378 l 1,163,-1
 292 378 l 1,164,-1
 292 389 l 1,165,-1
 302 389 l 1,166,-1
 302 412 l 1,167,-1
 314 412 l 1,168,-1
 314 424 l 1,169,-1
 325 424 l 1,170,-1
 325 446 l 1,171,-1
 337 446 l 1,172,-1
 337 469 l 1,173,-1
 348 469 l 1,174,-1
 348 502 l 1,175,-1
 360 502 l 1,176,-1
 360 535 l 1,177,-1
 370 535 l 1,178,-1
 370 638 l 1,179,-1
 360 638 l 1,180,-1
 360 660 l 1,181,-1
 348 660 l 1,182,-1
 348 671 l 1,183,-1
 337 671 l 1,184,-1
 337 683 l 1,185,-1
 325 683 l 1,186,-1
 325 693 l 1,187,-1
 314 693 l 1,188,-1
 314 704 l 1,189,-1
 280 704 l 1,190,-1
 280 716 l 1,191,-1
 202 716 l 1,192,-1
 202 704 l 1,193,-1
 191 704 l 1,194,-1
 191 693 l 1,195,-1
 179 693 l 1,196,-1
 179 683 l 1,197,-1
 168 683 l 1,198,-1
 168 671 l 1,199,-1
 156 671 l 1,200,-1
 156 660 l 1,201,-1
 146 660 l 1,202,-1
 146 603 l 1,203,-1
 134 603 l 1,204,-1
 134 580 l 1,205,-1
 123 580 l 1,206,-1
 123 570 l 1,207,-1
 111 570 l 1,208,-1
 111 558 l 1,209,-1
 68 558 l 1,210,-1
 68 570 l 1,211,-1
 56 570 l 1,212,-1
 56 580 l 1,213,-1
 45 580 l 1,214,-1
 45 626 l 1,215,-1
 56 626 l 1,216,-1
 56 660 l 1,217,-1
 68 660 l 1,218,-1
 68 671 l 1,219,-1
 78 671 l 1,220,-1
 78 693 l 1,221,-1
 90 693 l 1,222,-1
 90 704 l 1,223,-1
 101 704 l 1,224,-1
 101 716 l 1,225,-1
 111 716 l 1,226,-1
 111 727 l 1,227,-1
 123 727 l 1,228,-1
 123 739 l 1,229,-1
 134 739 l 1,230,-1
 134 749 l 1,231,-1
 146 749 l 1,232,-1
 146 761 l 1,233,-1
 168 761 l 1,234,-1
 168 772 l 1,235,-1
 214 772 l 1,0,-1
EndSplineSet
Substitution2: "'sups' Superscript in Latin lookup 9 subtable" twosuperior
Substitution2: "'aalt' Access All Alternates in Latin lookup 0 subtable" twosuperior
EndChar

StartChar: three
Encoding: 51 51 24
Width: 528
GlyphClass: 2
Flags: W
LayerCount: 2
Fore
SplineSet
236 761 m 1,0,-1
 236 772 l 1,1,-1
 259 772 l 1,2,-1
 259 761 l 1,3,-1
 314 761 l 1,4,-1
 314 749 l 1,5,-1
 348 749 l 1,6,-1
 348 739 l 1,7,-1
 370 739 l 1,8,-1
 370 727 l 1,9,-1
 393 727 l 1,10,-1
 393 716 l 1,11,-1
 405 716 l 1,12,-1
 405 704 l 1,13,-1
 415 704 l 1,14,-1
 415 693 l 1,15,-1
 427 693 l 1,16,-1
 427 671 l 1,17,-1
 438 671 l 1,18,-1
 438 660 l 1,19,-1
 448 660 l 1,20,-1
 448 615 l 1,21,-1
 460 615 l 1,22,-1
 460 514 l 1,23,-1
 448 514 l 1,24,-1
 448 479 l 1,25,-1
 438 479 l 1,26,-1
 438 457 l 1,27,-1
 427 457 l 1,28,-1
 427 446 l 1,29,-1
 415 446 l 1,30,-1
 415 434 l 1,31,-1
 405 434 l 1,32,-1
 405 424 l 1,33,-1
 393 424 l 1,34,-1
 393 401 l 1,35,-1
 405 401 l 1,36,-1
 405 389 l 1,37,-1
 415 389 l 1,38,-1
 415 378 l 1,39,-1
 427 378 l 1,40,-1
 427 366 l 1,41,-1
 438 366 l 1,42,-1
 438 356 l 1,43,-1
 448 356 l 1,44,-1
 448 345 l 1,45,-1
 460 345 l 1,46,-1
 460 333 l 1,47,-1
 471 333 l 1,48,-1
 471 311 l 1,49,-1
 483 311 l 1,50,-1
 483 288 l 1,51,-1
 494 288 l 1,52,-1
 494 243 l 1,53,-1
 506 243 l 1,54,-1
 506 176 l 1,55,-1
 494 176 l 1,56,-1
 494 142 l 1,57,-1
 483 142 l 1,58,-1
 483 109 l 1,59,-1
 471 109 l 1,60,-1
 471 86 l 1,61,-1
 460 86 l 1,62,-1
 460 64 l 1,63,-1
 448 64 l 1,64,-1
 448 52 l 1,65,-1
 438 52 l 1,66,-1
 438 41 l 1,67,-1
 427 41 l 1,68,-1
 427 29 l 1,69,-1
 415 29 l 1,70,-1
 415 18 l 1,71,-1
 405 18 l 1,72,-1
 405 8 l 1,73,-1
 382 8 l 1,74,-1
 382 -4 l 1,75,-1
 348 -4 l 1,76,-1
 348 -15 l 1,77,-1
 314 -15 l 1,78,-1
 314 -27 l 1,79,-1
 146 -27 l 1,80,-1
 146 -15 l 1,81,-1
 111 -15 l 1,82,-1
 111 -4 l 1,83,-1
 90 -4 l 1,84,-1
 90 8 l 1,85,-1
 68 8 l 1,86,-1
 68 18 l 1,87,-1
 45 18 l 1,88,-1
 45 29 l 1,89,-1
 33 29 l 1,90,-1
 33 52 l 1,91,-1
 22 52 l 1,92,-1
 22 64 l 1,93,-1
 33 64 l 1,94,-1
 33 74 l 1,95,-1
 45 74 l 1,96,-1
 45 86 l 1,97,-1
 78 86 l 1,98,-1
 78 74 l 1,99,-1
 101 74 l 1,100,-1
 101 64 l 1,101,-1
 123 64 l 1,102,-1
 123 52 l 1,103,-1
 168 52 l 1,104,-1
 168 41 l 1,105,-1
 280 41 l 1,106,-1
 280 52 l 1,107,-1
 314 52 l 1,108,-1
 314 64 l 1,109,-1
 337 64 l 1,110,-1
 337 74 l 1,111,-1
 348 74 l 1,112,-1
 348 86 l 1,113,-1
 360 86 l 1,114,-1
 360 97 l 1,115,-1
 370 97 l 1,116,-1
 370 119 l 1,117,-1
 382 119 l 1,118,-1
 382 142 l 1,119,-1
 393 142 l 1,120,-1
 393 176 l 1,121,-1
 405 176 l 1,122,-1
 405 266 l 1,123,-1
 393 266 l 1,124,-1
 393 300 l 1,125,-1
 382 300 l 1,126,-1
 382 311 l 1,127,-1
 370 311 l 1,128,-1
 370 333 l 1,129,-1
 348 333 l 1,130,-1
 348 345 l 1,131,-1
 337 345 l 1,132,-1
 337 356 l 1,133,-1
 314 356 l 1,134,-1
 314 366 l 1,135,-1
 224 366 l 1,136,-1
 224 378 l 1,137,-1
 214 378 l 1,138,-1
 214 389 l 1,139,-1
 202 389 l 1,140,-1
 202 424 l 1,141,-1
 214 424 l 1,142,-1
 214 434 l 1,143,-1
 280 434 l 1,144,-1
 280 446 l 1,145,-1
 314 446 l 1,146,-1
 314 457 l 1,147,-1
 337 457 l 1,148,-1
 337 479 l 1,149,-1
 348 479 l 1,150,-1
 348 502 l 1,151,-1
 360 502 l 1,152,-1
 360 525 l 1,153,-1
 370 525 l 1,154,-1
 370 603 l 1,155,-1
 360 603 l 1,156,-1
 360 626 l 1,157,-1
 348 626 l 1,158,-1
 348 648 l 1,159,-1
 337 648 l 1,160,-1
 337 660 l 1,161,-1
 325 660 l 1,162,-1
 325 671 l 1,163,-1
 314 671 l 1,164,-1
 314 683 l 1,165,-1
 302 683 l 1,166,-1
 302 693 l 1,167,-1
 259 693 l 1,168,-1
 259 704 l 1,169,-1
 247 704 l 1,170,-1
 247 693 l 1,171,-1
 202 693 l 1,172,-1
 202 683 l 1,173,-1
 191 683 l 1,174,-1
 191 671 l 1,175,-1
 179 671 l 1,176,-1
 179 660 l 1,177,-1
 168 660 l 1,178,-1
 168 638 l 1,179,-1
 156 638 l 1,180,-1
 156 615 l 1,181,-1
 146 615 l 1,182,-1
 146 603 l 1,183,-1
 134 603 l 1,184,-1
 134 592 l 1,185,-1
 78 592 l 1,186,-1
 78 603 l 1,187,-1
 68 603 l 1,188,-1
 68 648 l 1,189,-1
 78 648 l 1,190,-1
 78 683 l 1,191,-1
 90 683 l 1,192,-1
 90 693 l 1,193,-1
 101 693 l 1,194,-1
 101 716 l 1,195,-1
 111 716 l 1,196,-1
 111 727 l 1,197,-1
 134 727 l 1,198,-1
 134 739 l 1,199,-1
 156 739 l 1,200,-1
 156 749 l 1,201,-1
 179 749 l 1,202,-1
 179 761 l 1,203,-1
 236 761 l 1,0,-1
EndSplineSet
Substitution2: "'sups' Superscript in Latin lookup 9 subtable" threesuperior
Substitution2: "'aalt' Access All Alternates in Latin lookup 0 subtable" threesuperior
EndChar

StartChar: four
Encoding: 52 52 25
Width: 618
GlyphClass: 2
Flags: W
LayerCount: 2
Fore
SplineSet
292 794 m 1,0,-1
 292 806 l 1,1,-1
 302 806 l 1,2,-1
 302 794 l 1,3,-1
 337 794 l 1,4,-1
 337 784 l 1,5,-1
 347 784 l 1,6,-1
 347 727 l 1,7,-1
 337 727 l 1,8,-1
 337 704 l 1,9,-1
 325 704 l 1,10,-1
 325 683 l 1,11,-1
 314 683 l 1,12,-1
 314 660 l 1,13,-1
 302 660 l 1,14,-1
 302 638 l 1,15,-1
 292 638 l 1,16,-1
 292 626 l 1,17,-1
 281 626 l 1,18,-1
 281 592 l 1,19,-1
 269 592 l 1,20,-1
 269 570 l 1,21,-1
 259 570 l 1,22,-1
 259 547 l 1,23,-1
 247 547 l 1,24,-1
 247 525 l 1,25,-1
 236 525 l 1,26,-1
 236 502 l 1,27,-1
 224 502 l 1,28,-1
 224 479 l 1,29,-1
 213 479 l 1,30,-1
 213 457 l 1,31,-1
 201 457 l 1,32,-1
 201 434 l 1,33,-1
 191 434 l 1,34,-1
 191 412 l 1,35,-1
 179 412 l 1,36,-1
 179 389 l 1,37,-1
 168 389 l 1,38,-1
 168 378 l 1,39,-1
 156 378 l 1,40,-1
 156 356 l 1,41,-1
 146 356 l 1,42,-1
 146 333 l 1,43,-1
 134 333 l 1,44,-1
 134 323 l 1,45,-1
 123 323 l 1,46,-1
 123 300 l 1,47,-1
 113 300 l 1,48,-1
 113 266 l 1,49,-1
 101 266 l 1,50,-1
 101 255 l 1,51,-1
 113 255 l 1,52,-1
 113 243 l 1,53,-1
 134 243 l 1,54,-1
 134 232 l 1,55,-1
 337 232 l 1,56,-1
 337 243 l 1,57,-1
 370 243 l 1,58,-1
 370 266 l 1,59,-1
 382 266 l 1,60,-1
 382 469 l 1,61,-1
 393 469 l 1,62,-1
 393 479 l 1,63,-1
 405 479 l 1,64,-1
 405 491 l 1,65,-1
 438 491 l 1,66,-1
 438 479 l 1,67,-1
 450 479 l 1,68,-1
 450 469 l 1,69,-1
 460 469 l 1,70,-1
 460 255 l 1,71,-1
 471 255 l 1,72,-1
 471 243 l 1,73,-1
 483 243 l 1,74,-1
 483 232 l 1,75,-1
 573 232 l 1,76,-1
 573 220 l 1,77,-1
 584 220 l 1,78,-1
 584 198 l 1,79,-1
 596 198 l 1,80,-1
 596 187 l 1,81,-1
 584 187 l 1,82,-1
 584 176 l 1,83,-1
 573 176 l 1,84,-1
 573 165 l 1,85,-1
 483 165 l 1,86,-1
 483 154 l 1,87,-1
 471 154 l 1,88,-1
 471 131 l 1,89,-1
 460 131 l 1,90,-1
 460 119 l 1,91,-1
 471 119 l 1,92,-1
 471 52 l 1,93,-1
 460 52 l 1,94,-1
 460 8 l 1,95,-1
 450 8 l 1,96,-1
 450 -4 l 1,97,-1
 438 -4 l 1,98,-1
 438 -15 l 1,99,-1
 405 -15 l 1,100,-1
 405 -4 l 1,101,-1
 382 -4 l 1,102,-1
 382 29 l 1,103,-1
 370 29 l 1,104,-1
 370 41 l 1,105,-1
 382 41 l 1,106,-1
 382 74 l 1,107,-1
 370 74 l 1,108,-1
 370 165 l 1,109,-1
 55 165 l 1,110,-1
 55 176 l 1,111,-1
 33 176 l 1,112,-1
 33 198 l 1,113,-1
 22 198 l 1,114,-1
 22 277 l 1,115,-1
 33 277 l 1,116,-1
 33 311 l 1,117,-1
 45 311 l 1,118,-1
 45 323 l 1,119,-1
 55 323 l 1,120,-1
 55 345 l 1,121,-1
 67 345 l 1,122,-1
 67 366 l 1,123,-1
 78 366 l 1,124,-1
 78 378 l 1,125,-1
 90 378 l 1,126,-1
 90 401 l 1,127,-1
 101 401 l 1,128,-1
 101 424 l 1,129,-1
 113 424 l 1,130,-1
 113 446 l 1,131,-1
 123 446 l 1,132,-1
 123 469 l 1,133,-1
 134 469 l 1,134,-1
 134 502 l 1,135,-1
 146 502 l 1,136,-1
 146 525 l 1,137,-1
 156 525 l 1,138,-1
 156 547 l 1,139,-1
 168 547 l 1,140,-1
 168 570 l 1,141,-1
 179 570 l 1,142,-1
 179 592 l 1,143,-1
 191 592 l 1,144,-1
 191 626 l 1,145,-1
 201 626 l 1,146,-1
 201 638 l 1,147,-1
 213 638 l 1,148,-1
 213 671 l 1,149,-1
 224 671 l 1,150,-1
 224 704 l 1,151,-1
 236 704 l 1,152,-1
 236 727 l 1,153,-1
 247 727 l 1,154,-1
 247 749 l 1,155,-1
 259 749 l 1,156,-1
 259 772 l 1,157,-1
 269 772 l 1,158,-1
 269 784 l 1,159,-1
 281 784 l 1,160,-1
 281 794 l 1,161,-1
 292 794 l 1,0,-1
EndSplineSet
EndChar

StartChar: five
Encoding: 53 53 26
Width: 528
GlyphClass: 2
Flags: W
LayerCount: 2
Fore
SplineSet
394 761 m 1,0,-1
 394 772 l 1,1,-1
 427 772 l 1,2,-1
 427 761 l 1,3,-1
 450 761 l 1,4,-1
 450 704 l 1,5,-1
 438 704 l 1,6,-1
 438 693 l 1,7,-1
 415 693 l 1,8,-1
 415 683 l 1,9,-1
 191 683 l 1,10,-1
 191 671 l 1,11,-1
 180 671 l 1,12,-1
 180 626 l 1,13,-1
 168 626 l 1,14,-1
 168 525 l 1,15,-1
 191 525 l 1,16,-1
 191 514 l 1,17,-1
 337 514 l 1,18,-1
 337 502 l 1,19,-1
 360 502 l 1,20,-1
 360 491 l 1,21,-1
 382 491 l 1,22,-1
 382 479 l 1,23,-1
 394 479 l 1,24,-1
 394 469 l 1,25,-1
 415 469 l 1,26,-1
 415 457 l 1,27,-1
 427 457 l 1,28,-1
 427 446 l 1,29,-1
 438 446 l 1,30,-1
 438 434 l 1,31,-1
 450 434 l 1,32,-1
 450 412 l 1,33,-1
 460 412 l 1,34,-1
 460 401 l 1,35,-1
 472 401 l 1,36,-1
 472 378 l 1,37,-1
 483 378 l 1,38,-1
 483 356 l 1,39,-1
 495 356 l 1,40,-1
 495 311 l 1,41,-1
 506 311 l 1,42,-1
 506 300 l 1,43,-1
 495 300 l 1,44,-1
 495 266 l 1,45,-1
 506 266 l 1,46,-1
 506 255 l 1,47,-1
 495 255 l 1,48,-1
 495 187 l 1,49,-1
 483 187 l 1,50,-1
 483 165 l 1,51,-1
 472 165 l 1,52,-1
 472 142 l 1,53,-1
 460 142 l 1,54,-1
 460 131 l 1,55,-1
 450 131 l 1,56,-1
 450 97 l 1,57,-1
 438 97 l 1,58,-1
 438 86 l 1,59,-1
 427 86 l 1,60,-1
 427 74 l 1,61,-1
 415 74 l 1,62,-1
 415 52 l 1,63,-1
 405 52 l 1,64,-1
 405 41 l 1,65,-1
 382 41 l 1,66,-1
 382 29 l 1,67,-1
 372 29 l 1,68,-1
 372 18 l 1,69,-1
 349 18 l 1,70,-1
 349 8 l 1,71,-1
 326 8 l 1,72,-1
 326 -4 l 1,73,-1
 281 -4 l 1,74,-1
 281 -15 l 1,75,-1
 113 -15 l 1,76,-1
 113 -4 l 1,77,-1
 68 -4 l 1,78,-1
 68 8 l 1,79,-1
 45 8 l 1,80,-1
 45 18 l 1,81,-1
 34 18 l 1,82,-1
 34 29 l 1,83,-1
 22 29 l 1,84,-1
 22 64 l 1,85,-1
 34 64 l 1,86,-1
 34 74 l 1,87,-1
 90 74 l 1,88,-1
 90 64 l 1,89,-1
 135 64 l 1,90,-1
 135 52 l 1,91,-1
 226 52 l 1,92,-1
 226 64 l 1,93,-1
 259 64 l 1,94,-1
 259 74 l 1,95,-1
 281 74 l 1,96,-1
 281 86 l 1,97,-1
 304 86 l 1,98,-1
 304 97 l 1,99,-1
 326 97 l 1,100,-1
 326 109 l 1,101,-1
 337 109 l 1,102,-1
 337 119 l 1,103,-1
 349 119 l 1,104,-1
 349 131 l 1,105,-1
 360 131 l 1,106,-1
 360 154 l 1,107,-1
 372 154 l 1,108,-1
 372 165 l 1,109,-1
 382 165 l 1,110,-1
 382 187 l 1,111,-1
 394 187 l 1,112,-1
 394 243 l 1,113,-1
 405 243 l 1,114,-1
 405 300 l 1,115,-1
 394 300 l 1,116,-1
 394 345 l 1,117,-1
 382 345 l 1,118,-1
 382 366 l 1,119,-1
 372 366 l 1,120,-1
 372 378 l 1,121,-1
 360 378 l 1,122,-1
 360 401 l 1,123,-1
 337 401 l 1,124,-1
 337 412 l 1,125,-1
 326 412 l 1,126,-1
 326 424 l 1,127,-1
 314 424 l 1,128,-1
 314 434 l 1,129,-1
 292 434 l 1,130,-1
 292 446 l 1,131,-1
 168 446 l 1,132,-1
 168 434 l 1,133,-1
 101 434 l 1,134,-1
 101 457 l 1,135,-1
 90 457 l 1,136,-1
 90 592 l 1,137,-1
 101 592 l 1,138,-1
 101 749 l 1,139,-1
 123 749 l 1,140,-1
 123 761 l 1,141,-1
 394 761 l 1,0,-1
EndSplineSet
EndChar

StartChar: six
Encoding: 54 54 27
Width: 528
GlyphClass: 2
Flags: W
LayerCount: 2
Fore
SplineSet
123 300 m 1,0,-1
 123 198 l 1,1,-1
 135 198 l 1,2,-1
 135 165 l 1,3,-1
 146 165 l 1,4,-1
 146 142 l 1,5,-1
 158 142 l 1,6,-1
 158 119 l 1,7,-1
 168 119 l 1,8,-1
 168 109 l 1,9,-1
 180 109 l 1,10,-1
 180 97 l 1,11,-1
 191 97 l 1,12,-1
 191 86 l 1,13,-1
 203 86 l 1,14,-1
 203 74 l 1,15,-1
 214 74 l 1,16,-1
 214 64 l 1,17,-1
 247 64 l 1,18,-1
 247 52 l 1,19,-1
 281 52 l 1,20,-1
 281 64 l 1,21,-1
 314 64 l 1,22,-1
 314 74 l 1,23,-1
 337 74 l 1,24,-1
 337 86 l 1,25,-1
 349 86 l 1,26,-1
 349 97 l 1,27,-1
 360 97 l 1,28,-1
 360 109 l 1,29,-1
 372 109 l 1,30,-1
 372 131 l 1,31,-1
 382 131 l 1,32,-1
 382 142 l 1,33,-1
 394 142 l 1,34,-1
 394 176 l 1,35,-1
 405 176 l 1,36,-1
 405 333 l 1,37,-1
 394 333 l 1,38,-1
 394 345 l 1,39,-1
 382 345 l 1,40,-1
 382 366 l 1,41,-1
 372 366 l 1,42,-1
 372 378 l 1,43,-1
 360 378 l 1,44,-1
 360 389 l 1,45,-1
 337 389 l 1,46,-1
 337 401 l 1,47,-1
 304 401 l 1,48,-1
 304 412 l 1,49,-1
 247 412 l 1,50,-1
 247 401 l 1,51,-1
 214 401 l 1,52,-1
 214 389 l 1,53,-1
 191 389 l 1,54,-1
 191 378 l 1,55,-1
 180 378 l 1,56,-1
 180 366 l 1,57,-1
 168 366 l 1,58,-1
 168 356 l 1,59,-1
 158 356 l 1,60,-1
 158 345 l 1,61,-1
 146 345 l 1,62,-1
 146 323 l 1,63,-1
 135 323 l 1,64,-1
 135 300 l 1,65,-1
 123 300 l 1,0,-1
372 784 m 1,66,-1
 372 794 l 1,67,-1
 405 794 l 1,68,-1
 405 784 l 1,69,-1
 427 784 l 1,70,-1
 427 727 l 1,71,-1
 405 727 l 1,72,-1
 405 716 l 1,73,-1
 349 716 l 1,74,-1
 349 704 l 1,75,-1
 304 704 l 1,76,-1
 304 693 l 1,77,-1
 281 693 l 1,78,-1
 281 683 l 1,79,-1
 269 683 l 1,80,-1
 269 671 l 1,81,-1
 247 671 l 1,82,-1
 247 660 l 1,83,-1
 236 660 l 1,84,-1
 236 648 l 1,85,-1
 226 648 l 1,86,-1
 226 638 l 1,87,-1
 214 638 l 1,88,-1
 214 615 l 1,89,-1
 203 615 l 1,90,-1
 203 603 l 1,91,-1
 191 603 l 1,92,-1
 191 592 l 1,93,-1
 180 592 l 1,94,-1
 180 570 l 1,95,-1
 168 570 l 1,96,-1
 168 547 l 1,97,-1
 158 547 l 1,98,-1
 158 525 l 1,99,-1
 146 525 l 1,100,-1
 146 502 l 1,101,-1
 135 502 l 1,102,-1
 135 469 l 1,103,-1
 123 469 l 1,104,-1
 123 434 l 1,105,-1
 158 434 l 1,106,-1
 158 446 l 1,107,-1
 168 446 l 1,108,-1
 168 457 l 1,109,-1
 203 457 l 1,110,-1
 203 469 l 1,111,-1
 226 469 l 1,112,-1
 226 479 l 1,113,-1
 259 479 l 1,114,-1
 259 491 l 1,115,-1
 337 491 l 1,116,-1
 337 479 l 1,117,-1
 372 479 l 1,118,-1
 372 469 l 1,119,-1
 382 469 l 1,120,-1
 382 457 l 1,121,-1
 405 457 l 1,122,-1
 405 446 l 1,123,-1
 427 446 l 1,124,-1
 427 434 l 1,125,-1
 438 434 l 1,126,-1
 438 424 l 1,127,-1
 450 424 l 1,128,-1
 450 412 l 1,129,-1
 460 412 l 1,130,-1
 460 401 l 1,131,-1
 472 401 l 1,132,-1
 472 366 l 1,133,-1
 483 366 l 1,134,-1
 483 356 l 1,135,-1
 495 356 l 1,136,-1
 495 311 l 1,137,-1
 506 311 l 1,138,-1
 506 266 l 1,139,-1
 495 266 l 1,140,-1
 495 243 l 1,141,-1
 506 243 l 1,142,-1
 506 232 l 1,143,-1
 495 232 l 1,144,-1
 495 165 l 1,145,-1
 483 165 l 1,146,-1
 483 131 l 1,147,-1
 472 131 l 1,148,-1
 472 109 l 1,149,-1
 460 109 l 1,150,-1
 460 86 l 1,151,-1
 450 86 l 1,152,-1
 450 74 l 1,153,-1
 438 74 l 1,154,-1
 438 52 l 1,155,-1
 415 52 l 1,156,-1
 415 41 l 1,157,-1
 394 41 l 1,158,-1
 394 29 l 1,159,-1
 382 29 l 1,160,-1
 382 18 l 1,161,-1
 372 18 l 1,162,-1
 372 8 l 1,163,-1
 349 8 l 1,164,-1
 349 -4 l 1,165,-1
 304 -4 l 1,166,-1
 304 -15 l 1,167,-1
 226 -15 l 1,168,-1
 226 -4 l 1,169,-1
 180 -4 l 1,170,-1
 180 8 l 1,171,-1
 158 8 l 1,172,-1
 158 18 l 1,173,-1
 135 18 l 1,174,-1
 135 29 l 1,175,-1
 123 29 l 1,176,-1
 123 41 l 1,177,-1
 113 41 l 1,178,-1
 113 52 l 1,179,-1
 101 52 l 1,180,-1
 101 74 l 1,181,-1
 90 74 l 1,182,-1
 90 86 l 1,183,-1
 78 86 l 1,184,-1
 78 109 l 1,185,-1
 68 109 l 1,186,-1
 68 131 l 1,187,-1
 57 131 l 1,188,-1
 57 154 l 1,189,-1
 45 154 l 1,190,-1
 45 198 l 1,191,-1
 34 198 l 1,192,-1
 34 255 l 1,193,-1
 22 255 l 1,194,-1
 22 401 l 1,195,-1
 34 401 l 1,196,-1
 34 457 l 1,197,-1
 45 457 l 1,198,-1
 45 502 l 1,199,-1
 57 502 l 1,200,-1
 57 535 l 1,201,-1
 68 535 l 1,202,-1
 68 570 l 1,203,-1
 78 570 l 1,204,-1
 78 592 l 1,205,-1
 90 592 l 1,206,-1
 90 615 l 1,207,-1
 101 615 l 1,208,-1
 101 626 l 1,209,-1
 113 626 l 1,210,-1
 113 648 l 1,211,-1
 123 648 l 1,212,-1
 123 660 l 1,213,-1
 135 660 l 1,214,-1
 135 671 l 1,215,-1
 146 671 l 1,216,-1
 146 683 l 1,217,-1
 158 683 l 1,218,-1
 158 693 l 1,219,-1
 168 693 l 1,220,-1
 168 704 l 1,221,-1
 180 704 l 1,222,-1
 180 716 l 1,223,-1
 191 716 l 1,224,-1
 191 727 l 1,225,-1
 214 727 l 1,226,-1
 214 739 l 1,227,-1
 226 739 l 1,228,-1
 226 749 l 1,229,-1
 259 749 l 1,230,-1
 259 761 l 1,231,-1
 281 761 l 1,232,-1
 281 772 l 1,233,-1
 304 772 l 1,234,-1
 304 784 l 1,235,-1
 372 784 l 1,66,-1
EndSplineSet
EndChar

StartChar: seven
Encoding: 55 55 28
Width: 504
GlyphClass: 2
Flags: W
LayerCount: 2
Fore
SplineSet
55 749 m 1,0,-1
 55 761 l 1,1,-1
 88 761 l 1,2,-1
 88 749 l 1,3,-1
 213 749 l 1,4,-1
 213 761 l 1,5,-1
 448 761 l 1,6,-1
 448 749 l 1,7,-1
 460 749 l 1,8,-1
 460 739 l 1,9,-1
 470 739 l 1,10,-1
 470 727 l 1,11,-1
 482 727 l 1,12,-1
 482 660 l 1,13,-1
 470 660 l 1,14,-1
 470 638 l 1,15,-1
 460 638 l 1,16,-1
 460 615 l 1,17,-1
 448 615 l 1,18,-1
 448 592 l 1,19,-1
 437 592 l 1,20,-1
 437 547 l 1,21,-1
 425 547 l 1,22,-1
 425 514 l 1,23,-1
 415 514 l 1,24,-1
 415 491 l 1,25,-1
 403 491 l 1,26,-1
 403 469 l 1,27,-1
 392 469 l 1,28,-1
 392 446 l 1,29,-1
 381 446 l 1,30,-1
 381 424 l 1,31,-1
 369 424 l 1,32,-1
 369 401 l 1,33,-1
 359 401 l 1,34,-1
 359 356 l 1,35,-1
 347 356 l 1,36,-1
 347 323 l 1,37,-1
 336 323 l 1,38,-1
 336 311 l 1,39,-1
 324 311 l 1,40,-1
 324 288 l 1,41,-1
 314 288 l 1,42,-1
 314 255 l 1,43,-1
 302 255 l 1,44,-1
 302 220 l 1,45,-1
 291 220 l 1,46,-1
 291 187 l 1,47,-1
 279 187 l 1,48,-1
 279 142 l 1,49,-1
 269 142 l 1,50,-1
 269 131 l 1,51,-1
 257 131 l 1,52,-1
 257 74 l 1,53,-1
 246 74 l 1,54,-1
 246 52 l 1,55,-1
 234 52 l 1,56,-1
 234 18 l 1,57,-1
 223 18 l 1,58,-1
 223 8 l 1,59,-1
 213 8 l 1,60,-1
 213 -15 l 1,61,-1
 201 -15 l 1,62,-1
 201 -27 l 1,63,-1
 178 -27 l 1,64,-1
 178 -37 l 1,65,-1
 145 -37 l 1,66,-1
 145 -27 l 1,67,-1
 133 -27 l 1,68,-1
 133 -15 l 1,69,-1
 123 -15 l 1,70,-1
 123 41 l 1,71,-1
 133 41 l 1,72,-1
 133 64 l 1,73,-1
 145 64 l 1,74,-1
 145 86 l 1,75,-1
 156 86 l 1,76,-1
 156 119 l 1,77,-1
 168 119 l 1,78,-1
 168 142 l 1,79,-1
 178 142 l 1,80,-1
 178 176 l 1,81,-1
 190 176 l 1,82,-1
 190 198 l 1,83,-1
 201 198 l 1,84,-1
 201 220 l 1,85,-1
 213 220 l 1,86,-1
 213 255 l 1,87,-1
 223 255 l 1,88,-1
 223 277 l 1,89,-1
 234 277 l 1,90,-1
 234 311 l 1,91,-1
 246 311 l 1,92,-1
 246 333 l 1,93,-1
 257 333 l 1,94,-1
 257 366 l 1,95,-1
 269 366 l 1,96,-1
 269 389 l 1,97,-1
 279 389 l 1,98,-1
 279 424 l 1,99,-1
 291 424 l 1,100,-1
 291 446 l 1,101,-1
 302 446 l 1,102,-1
 302 457 l 1,103,-1
 314 457 l 1,104,-1
 314 491 l 1,105,-1
 324 491 l 1,106,-1
 324 525 l 1,107,-1
 336 525 l 1,108,-1
 336 547 l 1,109,-1
 347 547 l 1,110,-1
 347 570 l 1,111,-1
 359 570 l 1,112,-1
 359 592 l 1,113,-1
 369 592 l 1,114,-1
 369 638 l 1,115,-1
 381 638 l 1,116,-1
 381 648 l 1,117,-1
 369 648 l 1,118,-1
 369 671 l 1,119,-1
 44 671 l 1,120,-1
 44 683 l 1,121,-1
 32 683 l 1,122,-1
 32 704 l 1,123,-1
 22 704 l 1,124,-1
 22 739 l 1,125,-1
 32 739 l 1,126,-1
 32 749 l 1,127,-1
 55 749 l 1,0,-1
EndSplineSet
EndChar

StartChar: eight
Encoding: 56 56 29
Width: 550
GlyphClass: 2
Flags: W
LayerCount: 2
Fore
SplineSet
111 243 m 1,0,-1
 111 210 l 1,1,-1
 123 210 l 1,2,-1
 123 165 l 1,3,-1
 134 165 l 1,4,-1
 134 142 l 1,5,-1
 146 142 l 1,6,-1
 146 119 l 1,7,-1
 156 119 l 1,8,-1
 156 109 l 1,9,-1
 168 109 l 1,10,-1
 168 97 l 1,11,-1
 179 97 l 1,12,-1
 179 86 l 1,13,-1
 213 86 l 1,14,-1
 213 74 l 1,15,-1
 246 74 l 1,16,-1
 246 64 l 1,17,-1
 292 64 l 1,18,-1
 292 74 l 1,19,-1
 325 74 l 1,20,-1
 325 86 l 1,21,-1
 347 86 l 1,22,-1
 347 97 l 1,23,-1
 370 97 l 1,24,-1
 370 109 l 1,25,-1
 382 109 l 1,26,-1
 382 119 l 1,27,-1
 392 119 l 1,28,-1
 392 142 l 1,29,-1
 404 142 l 1,30,-1
 404 154 l 1,31,-1
 415 154 l 1,32,-1
 415 198 l 1,33,-1
 426 198 l 1,34,-1
 426 232 l 1,35,-1
 415 232 l 1,36,-1
 415 277 l 1,37,-1
 404 277 l 1,38,-1
 404 300 l 1,39,-1
 392 300 l 1,40,-1
 392 323 l 1,41,-1
 382 323 l 1,42,-1
 382 333 l 1,43,-1
 370 333 l 1,44,-1
 370 345 l 1,45,-1
 347 345 l 1,46,-1
 347 356 l 1,47,-1
 325 356 l 1,48,-1
 325 366 l 1,49,-1
 302 366 l 1,50,-1
 302 378 l 1,51,-1
 246 378 l 1,52,-1
 246 366 l 1,53,-1
 201 366 l 1,54,-1
 201 356 l 1,55,-1
 179 356 l 1,56,-1
 179 345 l 1,57,-1
 168 345 l 1,58,-1
 168 333 l 1,59,-1
 156 333 l 1,60,-1
 156 323 l 1,61,-1
 146 323 l 1,62,-1
 146 300 l 1,63,-1
 134 300 l 1,64,-1
 134 277 l 1,65,-1
 123 277 l 1,66,-1
 123 243 l 1,67,-1
 111 243 l 1,0,-1
392 547 m 1,68,-1
 392 580 l 1,69,-1
 404 580 l 1,70,-1
 404 615 l 1,71,-1
 392 615 l 1,72,-1
 392 660 l 1,73,-1
 382 660 l 1,74,-1
 382 671 l 1,75,-1
 370 671 l 1,76,-1
 370 693 l 1,77,-1
 359 693 l 1,78,-1
 359 704 l 1,79,-1
 337 704 l 1,80,-1
 337 716 l 1,81,-1
 314 716 l 1,82,-1
 314 727 l 1,83,-1
 236 727 l 1,84,-1
 236 716 l 1,85,-1
 213 716 l 1,86,-1
 213 704 l 1,87,-1
 191 704 l 1,88,-1
 191 693 l 1,89,-1
 179 693 l 1,90,-1
 179 683 l 1,91,-1
 168 683 l 1,92,-1
 168 671 l 1,93,-1
 156 671 l 1,94,-1
 156 638 l 1,95,-1
 146 638 l 1,96,-1
 146 558 l 1,97,-1
 156 558 l 1,98,-1
 156 535 l 1,99,-1
 168 535 l 1,100,-1
 168 525 l 1,101,-1
 179 525 l 1,102,-1
 179 514 l 1,103,-1
 191 514 l 1,104,-1
 191 502 l 1,105,-1
 201 502 l 1,106,-1
 201 491 l 1,107,-1
 224 491 l 1,108,-1
 224 479 l 1,109,-1
 257 479 l 1,110,-1
 257 469 l 1,111,-1
 302 469 l 1,112,-1
 302 479 l 1,113,-1
 325 479 l 1,114,-1
 325 491 l 1,115,-1
 347 491 l 1,116,-1
 347 502 l 1,117,-1
 370 502 l 1,118,-1
 370 525 l 1,119,-1
 382 525 l 1,120,-1
 382 547 l 1,121,-1
 392 547 l 1,68,-1
224 784 m 1,122,-1
 224 794 l 1,123,-1
 325 794 l 1,124,-1
 325 784 l 1,125,-1
 370 784 l 1,126,-1
 370 772 l 1,127,-1
 392 772 l 1,128,-1
 392 761 l 1,129,-1
 415 761 l 1,130,-1
 415 749 l 1,131,-1
 426 749 l 1,132,-1
 426 739 l 1,133,-1
 438 739 l 1,134,-1
 438 716 l 1,135,-1
 448 716 l 1,136,-1
 448 704 l 1,137,-1
 460 704 l 1,138,-1
 460 683 l 1,139,-1
 471 683 l 1,140,-1
 471 660 l 1,141,-1
 483 660 l 1,142,-1
 483 547 l 1,143,-1
 471 547 l 1,144,-1
 471 525 l 1,145,-1
 460 525 l 1,146,-1
 460 502 l 1,147,-1
 448 502 l 1,148,-1
 448 491 l 1,149,-1
 438 491 l 1,150,-1
 438 479 l 1,151,-1
 426 479 l 1,152,-1
 426 469 l 1,153,-1
 415 469 l 1,154,-1
 415 457 l 1,155,-1
 404 457 l 1,156,-1
 404 446 l 1,157,-1
 392 446 l 1,158,-1
 392 424 l 1,159,-1
 404 424 l 1,160,-1
 404 412 l 1,161,-1
 415 412 l 1,162,-1
 415 401 l 1,163,-1
 438 401 l 1,164,-1
 438 389 l 1,165,-1
 448 389 l 1,166,-1
 448 378 l 1,167,-1
 460 378 l 1,168,-1
 460 366 l 1,169,-1
 471 366 l 1,170,-1
 471 356 l 1,171,-1
 483 356 l 1,172,-1
 483 333 l 1,173,-1
 493 333 l 1,174,-1
 493 323 l 1,175,-1
 505 323 l 1,176,-1
 505 300 l 1,177,-1
 516 300 l 1,178,-1
 516 255 l 1,179,-1
 528 255 l 1,180,-1
 528 187 l 1,181,-1
 516 187 l 1,182,-1
 516 142 l 1,183,-1
 505 142 l 1,184,-1
 505 119 l 1,185,-1
 493 119 l 1,186,-1
 493 109 l 1,187,-1
 483 109 l 1,188,-1
 483 97 l 1,189,-1
 471 97 l 1,190,-1
 471 86 l 1,191,-1
 460 86 l 1,192,-1
 460 74 l 1,193,-1
 448 74 l 1,194,-1
 448 64 l 1,195,-1
 438 64 l 1,196,-1
 438 52 l 1,197,-1
 426 52 l 1,198,-1
 426 41 l 1,199,-1
 415 41 l 1,200,-1
 415 29 l 1,201,-1
 392 29 l 1,202,-1
 392 18 l 1,203,-1
 370 18 l 1,204,-1
 370 8 l 1,205,-1
 302 8 l 1,206,-1
 302 -4 l 1,207,-1
 246 -4 l 1,208,-1
 246 8 l 1,209,-1
 168 8 l 1,210,-1
 168 18 l 1,211,-1
 146 18 l 1,212,-1
 146 29 l 1,213,-1
 123 29 l 1,214,-1
 123 41 l 1,215,-1
 111 41 l 1,216,-1
 111 52 l 1,217,-1
 100 52 l 1,218,-1
 100 64 l 1,219,-1
 89 64 l 1,220,-1
 89 74 l 1,221,-1
 78 74 l 1,222,-1
 78 86 l 1,223,-1
 67 86 l 1,224,-1
 67 109 l 1,225,-1
 55 109 l 1,226,-1
 55 131 l 1,227,-1
 45 131 l 1,228,-1
 45 142 l 1,229,-1
 33 142 l 1,230,-1
 33 198 l 1,231,-1
 22 198 l 1,232,-1
 22 232 l 1,233,-1
 33 232 l 1,234,-1
 33 288 l 1,235,-1
 45 288 l 1,236,-1
 45 311 l 1,237,-1
 55 311 l 1,238,-1
 55 333 l 1,239,-1
 67 333 l 1,240,-1
 67 345 l 1,241,-1
 78 345 l 1,242,-1
 78 356 l 1,243,-1
 89 356 l 1,244,-1
 89 366 l 1,245,-1
 111 366 l 1,246,-1
 111 378 l 1,247,-1
 123 378 l 1,248,-1
 123 389 l 1,249,-1
 134 389 l 1,250,-1
 134 401 l 1,251,-1
 146 401 l 1,252,-1
 146 412 l 1,253,-1
 168 412 l 1,254,-1
 168 424 l 1,255,-1
 156 424 l 1,256,-1
 156 434 l 1,257,-1
 146 434 l 1,258,-1
 146 446 l 1,259,-1
 134 446 l 1,260,-1
 134 457 l 1,261,-1
 123 457 l 1,262,-1
 123 469 l 1,263,-1
 100 469 l 1,264,-1
 100 491 l 1,265,-1
 89 491 l 1,266,-1
 89 502 l 1,267,-1
 78 502 l 1,268,-1
 78 535 l 1,269,-1
 67 535 l 1,270,-1
 67 570 l 1,271,-1
 55 570 l 1,272,-1
 55 626 l 1,273,-1
 67 626 l 1,274,-1
 67 660 l 1,275,-1
 78 660 l 1,276,-1
 78 693 l 1,277,-1
 89 693 l 1,278,-1
 89 716 l 1,279,-1
 100 716 l 1,280,-1
 100 727 l 1,281,-1
 111 727 l 1,282,-1
 111 739 l 1,283,-1
 123 739 l 1,284,-1
 123 749 l 1,285,-1
 146 749 l 1,286,-1
 146 761 l 1,287,-1
 156 761 l 1,288,-1
 156 772 l 1,289,-1
 191 772 l 1,290,-1
 191 784 l 1,291,-1
 224 784 l 1,122,-1
EndSplineSet
EndChar

StartChar: nine
Encoding: 57 57 30
Width: 516
GlyphClass: 2
Flags: W
LayerCount: 2
Fore
SplineSet
112 558 m 1,0,-1
 112 491 l 1,1,-1
 123 491 l 1,2,-1
 123 446 l 1,3,-1
 135 446 l 1,4,-1
 135 434 l 1,5,-1
 145 434 l 1,6,-1
 145 412 l 1,7,-1
 157 412 l 1,8,-1
 157 401 l 1,9,-1
 168 401 l 1,10,-1
 168 389 l 1,11,-1
 190 389 l 1,12,-1
 190 378 l 1,13,-1
 213 378 l 1,14,-1
 213 366 l 1,15,-1
 291 366 l 1,16,-1
 291 378 l 1,17,-1
 314 378 l 1,18,-1
 314 389 l 1,19,-1
 326 389 l 1,20,-1
 326 401 l 1,21,-1
 336 401 l 1,22,-1
 336 412 l 1,23,-1
 359 412 l 1,24,-1
 359 434 l 1,25,-1
 371 434 l 1,26,-1
 371 446 l 1,27,-1
 381 446 l 1,28,-1
 381 457 l 1,29,-1
 392 457 l 1,30,-1
 392 603 l 1,31,-1
 381 603 l 1,32,-1
 381 626 l 1,33,-1
 371 626 l 1,34,-1
 371 648 l 1,35,-1
 359 648 l 1,36,-1
 359 671 l 1,37,-1
 348 671 l 1,38,-1
 348 683 l 1,39,-1
 336 683 l 1,40,-1
 336 693 l 1,41,-1
 314 693 l 1,42,-1
 314 704 l 1,43,-1
 281 704 l 1,44,-1
 281 716 l 1,45,-1
 235 716 l 1,46,-1
 235 704 l 1,47,-1
 213 704 l 1,48,-1
 213 693 l 1,49,-1
 190 693 l 1,50,-1
 190 683 l 1,51,-1
 168 683 l 1,52,-1
 168 671 l 1,53,-1
 157 671 l 1,54,-1
 157 660 l 1,55,-1
 145 660 l 1,56,-1
 145 638 l 1,57,-1
 135 638 l 1,58,-1
 135 626 l 1,59,-1
 123 626 l 1,60,-1
 123 558 l 1,61,-1
 112 558 l 1,0,-1
223 772 m 1,62,-1
 223 784 l 1,63,-1
 291 784 l 1,64,-1
 291 772 l 1,65,-1
 326 772 l 1,66,-1
 326 761 l 1,67,-1
 359 761 l 1,68,-1
 359 749 l 1,69,-1
 381 749 l 1,70,-1
 381 739 l 1,71,-1
 392 739 l 1,72,-1
 392 727 l 1,73,-1
 415 727 l 1,74,-1
 415 716 l 1,75,-1
 427 716 l 1,76,-1
 427 693 l 1,77,-1
 437 693 l 1,78,-1
 437 683 l 1,79,-1
 449 683 l 1,80,-1
 449 660 l 1,81,-1
 460 660 l 1,82,-1
 460 638 l 1,83,-1
 472 638 l 1,84,-1
 472 615 l 1,85,-1
 482 615 l 1,86,-1
 482 558 l 1,87,-1
 494 558 l 1,88,-1
 494 356 l 1,89,-1
 482 356 l 1,90,-1
 482 311 l 1,91,-1
 472 311 l 1,92,-1
 472 266 l 1,93,-1
 460 266 l 1,94,-1
 460 220 l 1,95,-1
 449 220 l 1,96,-1
 449 198 l 1,97,-1
 437 198 l 1,98,-1
 437 176 l 1,99,-1
 427 176 l 1,100,-1
 427 165 l 1,101,-1
 415 165 l 1,102,-1
 415 142 l 1,103,-1
 404 142 l 1,104,-1
 404 131 l 1,105,-1
 392 131 l 1,106,-1
 392 109 l 1,107,-1
 381 109 l 1,108,-1
 381 97 l 1,109,-1
 371 97 l 1,110,-1
 371 86 l 1,111,-1
 359 86 l 1,112,-1
 359 74 l 1,113,-1
 348 74 l 1,114,-1
 348 64 l 1,115,-1
 336 64 l 1,116,-1
 336 52 l 1,117,-1
 326 52 l 1,118,-1
 326 41 l 1,119,-1
 303 41 l 1,120,-1
 303 29 l 1,121,-1
 281 29 l 1,122,-1
 281 18 l 1,123,-1
 258 18 l 1,124,-1
 258 8 l 1,125,-1
 235 8 l 1,126,-1
 235 -4 l 1,127,-1
 202 -4 l 1,128,-1
 202 -15 l 1,129,-1
 157 -15 l 1,130,-1
 157 -27 l 1,131,-1
 135 -27 l 1,132,-1
 135 -15 l 1,133,-1
 89 -15 l 1,134,-1
 89 8 l 1,135,-1
 77 8 l 1,136,-1
 77 18 l 1,137,-1
 89 18 l 1,138,-1
 89 41 l 1,139,-1
 112 41 l 1,140,-1
 112 52 l 1,141,-1
 157 52 l 1,142,-1
 157 64 l 1,143,-1
 190 64 l 1,144,-1
 190 74 l 1,145,-1
 223 74 l 1,146,-1
 223 86 l 1,147,-1
 246 86 l 1,148,-1
 246 97 l 1,149,-1
 269 97 l 1,150,-1
 269 119 l 1,151,-1
 281 119 l 1,152,-1
 281 131 l 1,153,-1
 303 131 l 1,154,-1
 303 142 l 1,155,-1
 314 142 l 1,156,-1
 314 154 l 1,157,-1
 326 154 l 1,158,-1
 326 176 l 1,159,-1
 336 176 l 1,160,-1
 336 198 l 1,161,-1
 348 198 l 1,162,-1
 348 220 l 1,163,-1
 359 220 l 1,164,-1
 359 243 l 1,165,-1
 371 243 l 1,166,-1
 371 266 l 1,167,-1
 381 266 l 1,168,-1
 381 333 l 1,169,-1
 371 333 l 1,170,-1
 371 323 l 1,171,-1
 348 323 l 1,172,-1
 348 311 l 1,173,-1
 326 311 l 1,174,-1
 326 300 l 1,175,-1
 303 300 l 1,176,-1
 303 288 l 1,177,-1
 180 288 l 1,178,-1
 180 300 l 1,179,-1
 145 300 l 1,180,-1
 145 311 l 1,181,-1
 123 311 l 1,182,-1
 123 323 l 1,183,-1
 112 323 l 1,184,-1
 112 333 l 1,185,-1
 100 333 l 1,186,-1
 100 345 l 1,187,-1
 89 345 l 1,188,-1
 89 356 l 1,189,-1
 77 356 l 1,190,-1
 77 366 l 1,191,-1
 67 366 l 1,192,-1
 67 389 l 1,193,-1
 55 389 l 1,194,-1
 55 412 l 1,195,-1
 44 412 l 1,196,-1
 44 434 l 1,197,-1
 34 434 l 1,198,-1
 34 469 l 1,199,-1
 22 469 l 1,200,-1
 22 592 l 1,201,-1
 34 592 l 1,202,-1
 34 626 l 1,203,-1
 44 626 l 1,204,-1
 44 660 l 1,205,-1
 55 660 l 1,206,-1
 55 683 l 1,207,-1
 67 683 l 1,208,-1
 67 693 l 1,209,-1
 77 693 l 1,210,-1
 77 716 l 1,211,-1
 89 716 l 1,212,-1
 89 727 l 1,213,-1
 112 727 l 1,214,-1
 112 739 l 1,215,-1
 123 739 l 1,216,-1
 123 749 l 1,217,-1
 145 749 l 1,218,-1
 145 761 l 1,219,-1
 168 761 l 1,220,-1
 168 772 l 1,221,-1
 223 772 l 1,62,-1
EndSplineSet
EndChar

StartChar: colon
Encoding: 58 58 31
Width: 674
GlyphClass: 2
Flags: W
LayerCount: 2
Fore
SplineSet
45 743 m 1,0,-1
 288 743 l 1,1,-1
 288 731 l 1,2,-1
 311 731 l 1,3,-1
 311 710 l 1,4,-1
 321 710 l 1,5,-1
 321 698 l 1,6,-1
 311 698 l 1,7,-1
 311 687 l 1,8,-1
 299 687 l 1,9,-1
 299 675 l 1,10,-1
 276 675 l 1,11,-1
 276 665 l 1,12,-1
 269 665 l 1,13,-1
 269 653 l 1,14,-1
 259 653 l 1,15,-1
 259 642 l 1,16,-1
 247 642 l 1,17,-1
 247 585 l 1,18,-1
 259 585 l 1,19,-1
 259 552 l 1,20,-1
 247 552 l 1,21,-1
 247 518 l 1,22,-1
 259 518 l 1,23,-1
 259 473 l 1,24,-1
 247 473 l 1,25,-1
 247 101 l 1,26,-1
 259 101 l 1,27,-1
 259 79 l 1,28,-1
 281 79 l 1,29,-1
 281 67 l 1,30,-1
 405 67 l 1,31,-1
 405 79 l 1,32,-1
 494 79 l 1,33,-1
 494 89 l 1,34,-1
 528 89 l 1,35,-1
 528 101 l 1,36,-1
 551 101 l 1,37,-1
 551 150 l 1,38,-1
 561 150 l 1,39,-1
 561 198 l 1,40,-1
 573 198 l 1,41,-1
 573 208 l 1,42,-1
 629 208 l 1,43,-1
 629 198 l 1,44,-1
 641 198 l 1,45,-1
 641 67 l 1,46,-1
 652 67 l 1,47,-1
 652 33 l 1,48,-1
 641 33 l 1,49,-1
 641 0 l 1,50,-1
 618 0 l 1,51,-1
 618 -12 l 1,52,-1
 539 -12 l 1,53,-1
 539 0 l 1,54,-1
 78 0 l 1,55,-1
 78 11 l 1,56,-1
 56 11 l 1,57,-1
 56 33 l 1,58,-1
 45 33 l 1,59,-1
 45 57 l 1,60,-1
 56 57 l 1,61,-1
 56 69 l 1,62,-1
 68 69 l 1,63,-1
 68 80 l 1,64,-1
 78 80 l 1,65,-1
 78 92 l 1,66,-1
 146 92 l 1,67,-1
 146 102 l 1,68,-1
 156 102 l 1,69,-1
 156 574 l 1,70,-1
 168 574 l 1,71,-1
 168 642 l 1,72,-1
 156 642 l 1,73,-1
 156 653 l 1,74,-1
 146 653 l 1,75,-1
 146 665 l 1,76,-1
 45 665 l 1,77,-1
 45 675 l 1,78,-1
 22 675 l 1,79,-1
 22 731 l 1,80,-1
 45 731 l 1,81,-1
 45 743 l 1,0,-1
EndSplineSet
EndChar

StartChar: semicolon
Encoding: 59 59 32
Width: 499
GlyphClass: 2
Flags: W
LayerCount: 2
Fore
SplineSet
37 526 m 1,0,-1
 259 526 l 1,1,-1
 259 518 l 1,2,-1
 274 518 l 1,3,-1
 274 503 l 1,4,-1
 281 503 l 1,5,-1
 281 477 l 1,6,-1
 274 477 l 1,7,-1
 274 470 l 1,8,-1
 266 470 l 1,9,-1
 266 461 l 1,10,-1
 250 461 l 1,11,-1
 250 454 l 1,12,-1
 211 454 l 1,13,-1
 211 446 l 1,14,-1
 204 446 l 1,15,-1
 204 438 l 1,16,-1
 196 438 l 1,17,-1
 196 416 l 1,18,-1
 204 416 l 1,19,-1
 204 376 l 1,20,-1
 196 376 l 1,21,-1
 196 369 l 1,22,-1
 204 369 l 1,23,-1
 204 321 l 1,24,-1
 196 321 l 1,25,-1
 196 88 l 1,26,-1
 204 88 l 1,27,-1
 204 72 l 1,28,-1
 219 72 l 1,29,-1
 219 64 l 1,30,-1
 289 64 l 1,31,-1
 289 72 l 1,32,-1
 350 72 l 1,33,-1
 350 79 l 1,34,-1
 374 79 l 1,35,-1
 374 88 l 1,36,-1
 390 88 l 1,37,-1
 390 127 l 1,38,-1
 397 127 l 1,39,-1
 397 174 l 1,40,-1
 406 174 l 1,41,-1
 406 181 l 1,42,-1
 462 181 l 1,43,-1
 462 174 l 1,44,-1
 470 174 l 1,45,-1
 470 64 l 1,46,-1
 477 64 l 1,47,-1
 477 23 l 1,48,-1
 470 23 l 1,49,-1
 470 0 l 1,50,-1
 454 0 l 1,51,-1
 454 -9 l 1,52,-1
 381 -9 l 1,53,-1
 381 0 l 1,54,-1
 60 0 l 1,55,-1
 60 8 l 1,56,-1
 45 8 l 1,57,-1
 45 23 l 1,58,-1
 37 23 l 1,59,-1
 37 48 l 1,60,-1
 45 48 l 1,61,-1
 45 56 l 1,62,-1
 54 56 l 1,63,-1
 54 64 l 1,64,-1
 60 64 l 1,65,-1
 60 72 l 1,66,-1
 108 72 l 1,67,-1
 108 79 l 1,68,-1
 115 79 l 1,69,-1
 115 409 l 1,70,-1
 123 409 l 1,71,-1
 123 438 l 1,72,-1
 115 438 l 1,73,-1
 115 446 l 1,74,-1
 108 446 l 1,75,-1
 108 454 l 1,76,-1
 37 454 l 1,77,-1
 37 461 l 1,78,-1
 22 461 l 1,79,-1
 22 518 l 1,80,-1
 37 518 l 1,81,-1
 37 526 l 1,0,-1
EndSplineSet
EndChar

StartChar: less
Encoding: 60 60 33
Width: 662
GlyphClass: 2
Flags: W
LayerCount: 2
Fore
SplineSet
629 733 m 1,0,-1
 629 721 l 1,1,-1
 640 721 l 1,2,-1
 640 665 l 1,3,-1
 629 665 l 1,4,-1
 629 655 l 1,5,-1
 572 655 l 1,6,-1
 572 643 l 1,7,-1
 561 643 l 1,8,-1
 561 103 l 1,9,-1
 584 103 l 1,10,-1
 584 91 l 1,11,-1
 594 91 l 1,12,-1
 594 81 l 1,13,-1
 606 81 l 1,14,-1
 606 69 l 1,15,-1
 617 69 l 1,16,-1
 617 58 l 1,17,-1
 629 58 l 1,18,-1
 629 46 l 1,19,-1
 640 46 l 1,20,-1
 640 35 l 1,21,-1
 629 35 l 1,22,-1
 629 13 l 1,23,-1
 606 13 l 1,24,-1
 606 2 l 1,25,-1
 426 2 l 1,26,-1
 426 13 l 1,27,-1
 360 13 l 1,28,-1
 360 58 l 1,29,-1
 370 58 l 1,30,-1
 370 69 l 1,31,-1
 382 69 l 1,32,-1
 382 81 l 1,33,-1
 426 81 l 1,34,-1
 426 91 l 1,35,-1
 460 91 l 1,36,-1
 460 103 l 1,37,-1
 471 103 l 1,38,-1
 471 126 l 1,39,-1
 483 126 l 1,40,-1
 483 227 l 1,41,-1
 494 227 l 1,42,-1
 494 531 l 1,43,-1
 483 531 l 1,44,-1
 483 552 l 1,45,-1
 471 552 l 1,46,-1
 471 542 l 1,47,-1
 448 542 l 1,48,-1
 448 519 l 1,49,-1
 438 519 l 1,50,-1
 438 508 l 1,51,-1
 426 508 l 1,52,-1
 426 486 l 1,53,-1
 415 486 l 1,54,-1
 415 463 l 1,55,-1
 403 463 l 1,56,-1
 403 441 l 1,57,-1
 393 441 l 1,58,-1
 393 429 l 1,59,-1
 382 429 l 1,60,-1
 382 406 l 1,61,-1
 370 406 l 1,62,-1
 370 384 l 1,63,-1
 360 384 l 1,64,-1
 360 362 l 1,65,-1
 348 362 l 1,66,-1
 348 350 l 1,67,-1
 337 350 l 1,68,-1
 337 328 l 1,69,-1
 325 328 l 1,70,-1
 325 305 l 1,71,-1
 314 305 l 1,72,-1
 314 283 l 1,73,-1
 302 283 l 1,74,-1
 302 272 l 1,75,-1
 292 272 l 1,76,-1
 292 249 l 1,77,-1
 280 249 l 1,78,-1
 280 237 l 1,79,-1
 269 237 l 1,80,-1
 269 204 l 1,81,-1
 257 204 l 1,82,-1
 257 194 l 1,83,-1
 247 194 l 1,84,-1
 247 159 l 1,85,-1
 235 159 l 1,86,-1
 235 136 l 1,87,-1
 224 136 l 1,88,-1
 224 114 l 1,89,-1
 214 114 l 1,90,-1
 214 91 l 1,91,-1
 202 91 l 1,92,-1
 202 69 l 1,93,-1
 191 69 l 1,94,-1
 191 46 l 1,95,-1
 179 46 l 1,96,-1
 179 25 l 1,97,-1
 168 25 l 1,98,-1
 168 13 l 1,99,-1
 156 13 l 1,100,-1
 156 2 l 1,101,-1
 146 2 l 1,102,-1
 146 -10 l 1,103,-1
 111 -10 l 1,104,-1
 111 2 l 1,105,-1
 89 2 l 1,106,-1
 89 13 l 1,107,-1
 78 13 l 1,108,-1
 78 272 l 1,109,-1
 89 272 l 1,110,-1
 89 497 l 1,111,-1
 78 497 l 1,112,-1
 78 552 l 1,113,-1
 89 552 l 1,114,-1
 89 587 l 1,115,-1
 78 587 l 1,116,-1
 78 663 l 1,117,-1
 56 663 l 1,118,-1
 56 675 l 1,119,-1
 33 675 l 1,120,-1
 33 685 l 1,121,-1
 22 685 l 1,122,-1
 22 730 l 1,123,-1
 33 730 l 1,124,-1
 33 741 l 1,125,-1
 269 741 l 1,126,-1
 269 730 l 1,127,-1
 280 730 l 1,128,-1
 280 685 l 1,129,-1
 257 685 l 1,130,-1
 257 675 l 1,131,-1
 235 675 l 1,132,-1
 235 663 l 1,133,-1
 191 663 l 1,134,-1
 191 652 l 1,135,-1
 179 652 l 1,136,-1
 179 629 l 1,137,-1
 168 629 l 1,138,-1
 168 519 l 1,139,-1
 156 519 l 1,140,-1
 156 237 l 1,141,-1
 168 237 l 1,142,-1
 168 249 l 1,143,-1
 191 249 l 1,144,-1
 191 272 l 1,145,-1
 202 272 l 1,146,-1
 202 283 l 1,147,-1
 214 283 l 1,148,-1
 214 295 l 1,149,-1
 224 295 l 1,150,-1
 224 317 l 1,151,-1
 235 317 l 1,152,-1
 235 340 l 1,153,-1
 247 340 l 1,154,-1
 247 350 l 1,155,-1
 257 350 l 1,156,-1
 257 373 l 1,157,-1
 269 373 l 1,158,-1
 269 384 l 1,159,-1
 280 384 l 1,160,-1
 280 406 l 1,161,-1
 292 406 l 1,162,-1
 292 429 l 1,163,-1
 302 429 l 1,164,-1
 302 451 l 1,165,-1
 314 451 l 1,166,-1
 314 463 l 1,167,-1
 325 463 l 1,168,-1
 325 474 l 1,169,-1
 337 474 l 1,170,-1
 337 497 l 1,171,-1
 348 497 l 1,172,-1
 348 519 l 1,173,-1
 360 519 l 1,174,-1
 360 542 l 1,175,-1
 370 542 l 1,176,-1
 370 564 l 1,177,-1
 382 564 l 1,178,-1
 382 575 l 1,179,-1
 393 575 l 1,180,-1
 393 598 l 1,181,-1
 403 598 l 1,182,-1
 403 632 l 1,183,-1
 415 632 l 1,184,-1
 415 643 l 1,185,-1
 426 643 l 1,186,-1
 426 665 l 1,187,-1
 438 665 l 1,188,-1
 438 688 l 1,189,-1
 448 688 l 1,190,-1
 448 710 l 1,191,-1
 460 710 l 1,192,-1
 460 721 l 1,193,-1
 561 721 l 1,194,-1
 561 733 l 1,195,-1
 629 733 l 1,0,-1
EndSplineSet
EndChar

StartChar: equal
Encoding: 61 61 34
Width: 440
GlyphClass: 2
Flags: W
LayerCount: 2
Fore
SplineSet
335 361 m 1,0,-1
 331 361 l 1,1,-1
 331 422 l 1,2,-1
 314 422 l 1,3,-1
 314 431 l 1,4,-1
 299 431 l 1,5,-1
 299 441 l 1,6,-1
 279 441 l 1,7,-1
 279 450 l 1,8,-1
 216 450 l 1,9,-1
 216 445 l 1,10,-1
 210 445 l 1,11,-1
 210 441 l 1,12,-1
 180 441 l 1,13,-1
 180 434 l 1,14,-1
 171 434 l 1,15,-1
 171 426 l 1,16,-1
 163 426 l 1,17,-1
 163 416 l 1,18,-1
 153 416 l 1,19,-1
 153 409 l 1,20,-1
 144 409 l 1,21,-1
 144 401 l 1,22,-1
 136 401 l 1,23,-1
 136 393 l 1,24,-1
 122 393 l 1,25,-1
 122 373 l 1,26,-1
 113 373 l 1,27,-1
 113 342 l 1,28,-1
 126 342 l 1,29,-1
 126 325 l 1,30,-1
 135 325 l 1,31,-1
 135 309 l 1,32,-1
 144 309 l 1,33,-1
 144 294 l 1,34,-1
 158 294 l 1,35,-1
 158 283 l 1,36,-1
 170 283 l 1,37,-1
 170 272 l 1,38,-1
 180 272 l 1,39,-1
 180 261 l 1,40,-1
 196 261 l 1,41,-1
 196 252 l 1,42,-1
 208 252 l 1,43,-1
 208 243 l 1,44,-1
 231 243 l 1,45,-1
 231 234 l 1,46,-1
 252 234 l 1,47,-1
 252 226 l 1,48,-1
 280 226 l 1,49,-1
 280 220 l 1,50,-1
 297 220 l 1,51,-1
 297 227 l 1,52,-1
 314 227 l 1,53,-1
 314 231 l 1,54,-1
 326 231 l 1,55,-1
 326 304 l 1,56,-1
 331 304 l 1,57,-1
 331 345 l 1,58,-1
 335 345 l 1,59,-1
 335 361 l 1,0,-1
403 521 m 1,60,-1
 420 521 l 1,61,-1
 420 513 l 1,62,-1
 475 513 l 1,63,-1
 475 504 l 1,64,-1
 493 504 l 1,65,-1
 493 496 l 1,66,-1
 502 496 l 1,67,-1
 502 425 l 1,68,-1
 493 425 l 1,69,-1
 493 416 l 1,70,-1
 429 416 l 1,71,-1
 429 409 l 1,72,-1
 421 409 l 1,73,-1
 421 400 l 1,74,-1
 413 400 l 1,75,-1
 413 326 l 1,76,-1
 419 326 l 1,77,-1
 419 190 l 1,78,-1
 413 190 l 1,79,-1
 413 103 l 1,80,-1
 421 103 l 1,81,-1
 421 78 l 1,82,-1
 430 78 l 1,83,-1
 430 70 l 1,84,-1
 457 70 l 1,85,-1
 457 62 l 1,86,-1
 466 62 l 1,87,-1
 466 0 l 1,88,-1
 448 0 l 1,89,-1
 448 -7 l 1,90,-1
 218 -7 l 1,91,-1
 218 0 l 1,92,-1
 199 0 l 1,93,-1
 199 68 l 1,94,-1
 209 68 l 1,95,-1
 209 77 l 1,96,-1
 290 77 l 1,97,-1
 290 84 l 1,98,-1
 308 84 l 1,99,-1
 308 111 l 1,100,-1
 331 111 l 1,101,-1
 331 152 l 1,102,-1
 274 152 l 1,103,-1
 274 157 l 1,104,-1
 252 157 l 1,105,-1
 252 163 l 1,106,-1
 203 163 l 1,107,-1
 203 169 l 1,108,-1
 194 169 l 1,109,-1
 194 175 l 1,110,-1
 168 175 l 1,111,-1
 168 184 l 1,112,-1
 145 184 l 1,113,-1
 145 194 l 1,114,-1
 134 194 l 1,115,-1
 134 202 l 1,116,-1
 127 202 l 1,117,-1
 127 208 l 1,118,-1
 123 208 l 1,119,-1
 123 212 l 1,120,-1
 106 212 l 1,121,-1
 106 220 l 1,122,-1
 96 220 l 1,123,-1
 96 228 l 1,124,-1
 88 228 l 1,125,-1
 88 236 l 1,126,-1
 78 236 l 1,127,-1
 78 244 l 1,128,-1
 70 244 l 1,129,-1
 70 253 l 1,130,-1
 60 253 l 1,131,-1
 60 269 l 1,132,-1
 52 269 l 1,133,-1
 52 284 l 1,134,-1
 42 284 l 1,135,-1
 42 300 l 1,136,-1
 34 300 l 1,137,-1
 34 317 l 1,138,-1
 22 317 l 1,139,-1
 22 327 l 1,140,-1
 30 327 l 1,141,-1
 30 393 l 1,142,-1
 37 393 l 1,143,-1
 37 416 l 1,144,-1
 46 416 l 1,145,-1
 46 441 l 1,146,-1
 55 441 l 1,147,-1
 55 450 l 1,148,-1
 64 450 l 1,149,-1
 64 464 l 1,150,-1
 74 464 l 1,151,-1
 74 472 l 1,152,-1
 82 472 l 1,153,-1
 82 483 l 1,154,-1
 91 483 l 1,155,-1
 91 489 l 1,156,-1
 100 489 l 1,157,-1
 100 496 l 1,158,-1
 110 496 l 1,159,-1
 110 504 l 1,160,-1
 127 504 l 1,161,-1
 127 513 l 1,162,-1
 169 513 l 1,163,-1
 169 521 l 1,164,-1
 187 521 l 1,165,-1
 187 527 l 1,166,-1
 286 527 l 1,167,-1
 286 521 l 1,168,-1
 312 521 l 1,169,-1
 312 513 l 1,170,-1
 348 513 l 1,171,-1
 348 504 l 1,172,-1
 358 504 l 1,173,-1
 358 513 l 1,174,-1
 366 513 l 1,175,-1
 366 521 l 1,176,-1
 384 521 l 1,177,-1
 384 529 l 1,178,-1
 403 529 l 1,179,-1
 403 521 l 1,60,-1
EndSplineSet
EndChar

StartChar: greater
Encoding: 62 62 35
Width: 491
GlyphClass: 2
Flags: W
LayerCount: 2
Fore
SplineSet
442 528 m 1,0,-1
 442 519 l 1,1,-1
 449 519 l 1,2,-1
 449 463 l 1,3,-1
 442 463 l 1,4,-1
 442 456 l 1,5,-1
 422 456 l 1,6,-1
 422 447 l 1,7,-1
 414 447 l 1,8,-1
 414 89 l 1,9,-1
 430 89 l 1,10,-1
 430 81 l 1,11,-1
 437 81 l 1,12,-1
 437 73 l 1,13,-1
 445 73 l 1,14,-1
 445 66 l 1,15,-1
 453 66 l 1,16,-1
 453 58 l 1,17,-1
 462 58 l 1,18,-1
 462 49 l 1,19,-1
 469 49 l 1,20,-1
 469 24 l 1,21,-1
 462 24 l 1,22,-1
 462 9 l 1,23,-1
 445 9 l 1,24,-1
 445 1 l 1,25,-1
 303 1 l 1,26,-1
 303 9 l 1,27,-1
 277 9 l 1,28,-1
 277 58 l 1,29,-1
 283 58 l 1,30,-1
 283 66 l 1,31,-1
 292 66 l 1,32,-1
 292 73 l 1,33,-1
 303 73 l 1,34,-1
 303 81 l 1,35,-1
 326 81 l 1,36,-1
 326 89 l 1,37,-1
 334 89 l 1,38,-1
 334 105 l 1,39,-1
 343 105 l 1,40,-1
 343 175 l 1,41,-1
 350 175 l 1,42,-1
 350 369 l 1,43,-1
 343 369 l 1,44,-1
 343 377 l 1,45,-1
 336 377 l 1,46,-1
 336 361 l 1,47,-1
 328 361 l 1,48,-1
 328 354 l 1,49,-1
 320 354 l 1,50,-1
 320 338 l 1,51,-1
 313 338 l 1,52,-1
 313 322 l 1,53,-1
 304 322 l 1,54,-1
 304 307 l 1,55,-1
 297 307 l 1,56,-1
 297 299 l 1,57,-1
 289 299 l 1,58,-1
 289 282 l 1,59,-1
 281 282 l 1,60,-1
 281 267 l 1,61,-1
 274 267 l 1,62,-1
 274 252 l 1,63,-1
 266 252 l 1,64,-1
 266 244 l 1,65,-1
 259 244 l 1,66,-1
 259 228 l 1,67,-1
 250 228 l 1,68,-1
 250 213 l 1,69,-1
 242 213 l 1,70,-1
 242 197 l 1,71,-1
 233 197 l 1,72,-1
 233 189 l 1,73,-1
 227 189 l 1,74,-1
 227 173 l 1,75,-1
 219 173 l 1,76,-1
 219 165 l 1,77,-1
 211 165 l 1,78,-1
 211 142 l 1,79,-1
 202 142 l 1,80,-1
 202 135 l 1,81,-1
 196 135 l 1,82,-1
 196 110 l 1,83,-1
 187 110 l 1,84,-1
 187 95 l 1,85,-1
 179 95 l 1,86,-1
 179 79 l 1,87,-1
 173 79 l 1,88,-1
 173 64 l 1,89,-1
 164 64 l 1,90,-1
 164 48 l 1,91,-1
 157 48 l 1,92,-1
 157 32 l 1,93,-1
 148 32 l 1,94,-1
 148 17 l 1,95,-1
 141 17 l 1,96,-1
 141 9 l 1,97,-1
 132 9 l 1,98,-1
 132 1 l 1,99,-1
 125 1 l 1,100,-1
 125 -7 l 1,101,-1
 84 -7 l 1,102,-1
 84 1 l 1,103,-1
 68 1 l 1,104,-1
 68 9 l 1,105,-1
 60 9 l 1,106,-1
 60 207 l 1,107,-1
 68 207 l 1,108,-1
 68 346 l 1,109,-1
 60 346 l 1,110,-1
 60 401 l 1,111,-1
 68 401 l 1,112,-1
 68 409 l 1,113,-1
 60 409 l 1,114,-1
 60 447 l 1,115,-1
 45 447 l 1,116,-1
 45 456 l 1,117,-1
 29 456 l 1,118,-1
 29 463 l 1,119,-1
 22 463 l 1,120,-1
 22 511 l 1,121,-1
 29 511 l 1,122,-1
 29 519 l 1,123,-1
 181 519 l 1,124,-1
 181 511 l 1,125,-1
 189 511 l 1,126,-1
 189 463 l 1,127,-1
 172 463 l 1,128,-1
 172 456 l 1,129,-1
 157 456 l 1,130,-1
 157 447 l 1,131,-1
 157 440 l 1,132,-1
 148 440 l 1,133,-1
 148 423 l 1,134,-1
 141 423 l 1,135,-1
 141 361 l 1,136,-1
 132 361 l 1,137,-1
 132 190 l 1,138,-1
 140 190 l 1,139,-1
 140 207 l 1,140,-1
 146 207 l 1,141,-1
 146 215 l 1,142,-1
 155 215 l 1,143,-1
 155 222 l 1,144,-1
 162 222 l 1,145,-1
 162 238 l 1,146,-1
 170 238 l 1,147,-1
 170 254 l 1,148,-1
 178 254 l 1,149,-1
 178 261 l 1,150,-1
 185 261 l 1,151,-1
 185 277 l 1,152,-1
 194 277 l 1,153,-1
 194 284 l 1,154,-1
 202 284 l 1,155,-1
 202 300 l 1,156,-1
 209 300 l 1,157,-1
 209 316 l 1,158,-1
 216 316 l 1,159,-1
 216 332 l 1,160,-1
 225 332 l 1,161,-1
 225 339 l 1,162,-1
 232 339 l 1,163,-1
 232 347 l 1,164,-1
 241 347 l 1,165,-1
 241 363 l 1,166,-1
 249 363 l 1,167,-1
 249 379 l 1,168,-1
 257 379 l 1,169,-1
 257 394 l 1,170,-1
 263 394 l 1,171,-1
 263 410 l 1,172,-1
 272 410 l 1,173,-1
 272 418 l 1,174,-1
 280 418 l 1,175,-1
 280 434 l 1,176,-1
 287 434 l 1,177,-1
 287 457 l 1,178,-1
 295 457 l 1,179,-1
 295 465 l 1,180,-1
 303 465 l 1,181,-1
 303 480 l 1,182,-1
 311 480 l 1,183,-1
 311 496 l 1,184,-1
 318 496 l 1,185,-1
 318 511 l 1,186,-1
 326 511 l 1,187,-1
 326 519 l 1,188,-1
 397 519 l 1,189,-1
 397 528 l 1,190,-1
 442 528 l 1,0,-1
EndSplineSet
EndChar

StartChar: question
Encoding: 63 63 36
Width: 426
GlyphClass: 2
Flags: W
LayerCount: 2
Fore
SplineSet
168 770 m 1,0,-1
 258 770 l 1,1,-1
 258 759 l 1,2,-1
 303 759 l 1,3,-1
 303 747 l 1,4,-1
 314 747 l 1,5,-1
 314 737 l 1,6,-1
 336 737 l 1,7,-1
 336 725 l 1,8,-1
 348 725 l 1,9,-1
 348 714 l 1,10,-1
 359 714 l 1,11,-1
 359 704 l 1,12,-1
 371 704 l 1,13,-1
 371 692 l 1,14,-1
 382 692 l 1,15,-1
 382 681 l 1,16,-1
 394 681 l 1,17,-1
 394 646 l 1,18,-1
 404 646 l 1,19,-1
 404 556 l 1,20,-1
 394 556 l 1,21,-1
 394 523 l 1,22,-1
 382 523 l 1,23,-1
 382 500 l 1,24,-1
 371 500 l 1,25,-1
 371 478 l 1,26,-1
 359 478 l 1,27,-1
 359 467 l 1,28,-1
 348 467 l 1,29,-1
 348 455 l 1,30,-1
 336 455 l 1,31,-1
 336 445 l 1,32,-1
 326 445 l 1,33,-1
 326 433 l 1,34,-1
 314 433 l 1,35,-1
 314 422 l 1,36,-1
 303 422 l 1,37,-1
 303 410 l 1,38,-1
 293 410 l 1,39,-1
 293 387 l 1,40,-1
 281 387 l 1,41,-1
 281 377 l 1,42,-1
 270 377 l 1,43,-1
 270 366 l 1,44,-1
 258 366 l 1,45,-1
 258 344 l 1,46,-1
 248 344 l 1,47,-1
 248 321 l 1,48,-1
 236 321 l 1,49,-1
 236 241 l 1,50,-1
 225 241 l 1,51,-1
 225 231 l 1,52,-1
 168 231 l 1,53,-1
 168 241 l 1,54,-1
 157 241 l 1,55,-1
 157 309 l 1,56,-1
 168 309 l 1,57,-1
 168 344 l 1,58,-1
 180 344 l 1,59,-1
 180 366 l 1,60,-1
 190 366 l 1,61,-1
 190 377 l 1,62,-1
 202 377 l 1,63,-1
 202 399 l 1,64,-1
 213 399 l 1,65,-1
 213 422 l 1,66,-1
 236 422 l 1,67,-1
 236 445 l 1,68,-1
 248 445 l 1,69,-1
 248 455 l 1,70,-1
 258 455 l 1,71,-1
 258 467 l 1,72,-1
 270 467 l 1,73,-1
 270 490 l 1,74,-1
 281 490 l 1,75,-1
 281 512 l 1,76,-1
 293 512 l 1,77,-1
 293 535 l 1,78,-1
 303 535 l 1,79,-1
 303 624 l 1,80,-1
 293 624 l 1,81,-1
 293 658 l 1,82,-1
 281 658 l 1,83,-1
 281 681 l 1,84,-1
 258 681 l 1,85,-1
 258 692 l 1,86,-1
 157 692 l 1,87,-1
 157 681 l 1,88,-1
 145 681 l 1,89,-1
 145 669 l 1,90,-1
 135 669 l 1,91,-1
 135 646 l 1,92,-1
 124 646 l 1,93,-1
 124 556 l 1,94,-1
 112 556 l 1,95,-1
 112 546 l 1,96,-1
 102 546 l 1,97,-1
 102 535 l 1,98,-1
 44 535 l 1,99,-1
 44 546 l 1,100,-1
 34 546 l 1,101,-1
 34 556 l 1,102,-1
 22 556 l 1,103,-1
 22 636 l 1,104,-1
 34 636 l 1,105,-1
 34 646 l 1,106,-1
 44 646 l 1,107,-1
 44 669 l 1,108,-1
 56 669 l 1,109,-1
 56 692 l 1,110,-1
 67 692 l 1,111,-1
 67 704 l 1,112,-1
 79 704 l 1,113,-1
 79 725 l 1,114,-1
 102 725 l 1,115,-1
 102 737 l 1,116,-1
 124 737 l 1,117,-1
 124 747 l 1,118,-1
 135 747 l 1,119,-1
 135 759 l 1,120,-1
 168 759 l 1,121,-1
 168 770 l 1,0,-1
202 163 m 1,122,-1
 236 163 l 1,123,-1
 236 152 l 1,124,-1
 258 152 l 1,125,-1
 258 140 l 1,126,-1
 281 140 l 1,127,-1
 281 118 l 1,128,-1
 293 118 l 1,129,-1
 293 95 l 1,130,-1
 303 95 l 1,131,-1
 303 62 l 1,132,-1
 293 62 l 1,133,-1
 293 39 l 1,134,-1
 281 39 l 1,135,-1
 281 17 l 1,136,-1
 258 17 l 1,137,-1
 258 6 l 1,138,-1
 157 6 l 1,139,-1
 157 17 l 1,140,-1
 145 17 l 1,141,-1
 145 29 l 1,142,-1
 135 29 l 1,143,-1
 135 107 l 1,144,-1
 145 107 l 1,145,-1
 145 118 l 1,146,-1
 157 118 l 1,147,-1
 157 140 l 1,148,-1
 180 140 l 1,149,-1
 180 152 l 1,150,-1
 202 152 l 1,151,-1
 202 163 l 1,122,-1
EndSplineSet
EndChar

StartChar: at
Encoding: 64 64 37
Width: 450
GlyphClass: 2
Flags: W
LayerCount: 2
Fore
SplineSet
108 400 m 1,0,-1
 122 400 l 1,1,-1
 122 393 l 1,2,-1
 135 393 l 1,3,-1
 135 384 l 1,4,-1
 148 384 l 1,5,-1
 148 376 l 1,6,-1
 162 376 l 1,7,-1
 162 369 l 1,8,-1
 176 369 l 1,9,-1
 176 361 l 1,10,-1
 191 361 l 1,11,-1
 191 353 l 1,12,-1
 202 353 l 1,13,-1
 202 450 l 1,14,-1
 190 450 l 1,15,-1
 190 483 l 1,16,-1
 202 483 l 1,17,-1
 202 516 l 1,18,-1
 225 516 l 1,19,-1
 225 528 l 1,20,-1
 269 528 l 1,21,-1
 269 516 l 1,22,-1
 355 516 l 1,23,-1
 355 506 l 1,24,-1
 397 506 l 1,25,-1
 397 494 l 1,26,-1
 409 494 l 1,27,-1
 409 461 l 1,28,-1
 397 461 l 1,29,-1
 397 450 l 1,30,-1
 386 450 l 1,31,-1
 386 438 l 1,32,-1
 341 438 l 1,33,-1
 341 450 l 1,34,-1
 326 450 l 1,35,-1
 326 438 l 1,36,-1
 291 438 l 1,37,-1
 290 292 l 1,38,-1
 303 292 l 1,39,-1
 303 282 l 1,40,-1
 311 282 l 1,41,-1
 311 273 l 1,42,-1
 325 273 l 1,43,-1
 325 265 l 1,44,-1
 340 265 l 1,45,-1
 340 258 l 1,46,-1
 354 258 l 1,47,-1
 354 250 l 1,48,-1
 367 250 l 1,49,-1
 367 240 l 1,50,-1
 381 240 l 1,51,-1
 381 167 l 1,52,-1
 375 167 l 1,53,-1
 375 172 l 1,54,-1
 365 172 l 1,55,-1
 365 178 l 1,56,-1
 351 178 l 1,57,-1
 351 186 l 1,58,-1
 336 186 l 1,59,-1
 336 193 l 1,60,-1
 324 193 l 1,61,-1
 324 201 l 1,62,-1
 312 201 l 1,63,-1
 312 209 l 1,64,-1
 301 209 l 1,65,-1
 301 217 l 1,66,-1
 292 217 l 1,67,68
 292 217 292 217 292 184 c 2,69,70
 292 184 292 184 292 90 c 1,71,-1
 314 90 l 1,72,-1
 314 80 l 1,73,-1
 336 80 l 1,74,-1
 336 68 l 1,75,-1
 405 68 l 1,76,-1
 405 57 l 1,77,-1
 416 57 l 1,78,-1
 416 35 l 1,79,-1
 428 35 l 1,80,-1
 428 23 l 1,81,-1
 416 23 l 1,82,-1
 416 0 l 1,83,-1
 393 0 l 1,84,-1
 393 -11 l 1,85,-1
 372 -11 l 1,86,-1
 372 0 l 1,87,-1
 116 0 l 1,88,-1
 116 -11 l 1,89,-1
 59 -11 l 1,90,-1
 59 0 l 1,91,-1
 37 0 l 1,92,-1
 37 12 l 1,93,-1
 22 12 l 1,94,-1
 22 57 l 1,95,-1
 48 57 l 1,96,-1
 49 68 l 1,97,-1
 168 68 l 1,98,-1
 168 80 l 1,99,-1
 190 80 l 1,100,-1
 190 90 l 1,101,-1
 198 90 l 1,102,-1
 198 269 l 1,103,-1
 180 269 l 1,104,-1
 180 276 l 1,105,-1
 169 276 l 1,106,-1
 169 285 l 1,107,-1
 157 285 l 1,108,-1
 157 292 l 1,109,-1
 144 292 l 1,110,-1
 144 300 l 1,111,-1
 131 300 l 1,112,-1
 131 306 l 1,113,114
 131 306 131 306 114 306 c 2,115,116
 114 306 114 306 108 306 c 1,117,-1
 108 400 l 1,0,-1
EndSplineSet
EndChar

StartChar: A
Encoding: 65 65 38
Width: 628
GlyphClass: 2
Flags: W
LayerCount: 2
Fore
SplineSet
275 688 m 1,0,-1
 275 678 l 1,1,-1
 245 678 l 1,2,-1
 245 667 l 1,3,-1
 222 667 l 1,4,-1
 222 653 l 1,5,-1
 196 653 l 1,6,-1
 196 642 l 1,7,-1
 177 642 l 1,8,-1
 177 628 l 1,9,-1
 165 628 l 1,10,-1
 165 610 l 1,11,-1
 151 610 l 1,12,-1
 151 532 l 1,13,-1
 164 532 l 1,14,-1
 164 504 l 1,15,-1
 191 504 l 1,16,-1
 191 484 l 1,17,-1
 214 484 l 1,18,-1
 214 473 l 1,19,-1
 248 473 l 1,20,-1
 248 461 l 1,21,-1
 314 461 l 1,22,-1
 314 451 l 1,23,-1
 326 451 l 1,24,-1
 326 416 l 1,25,-1
 314 416 l 1,26,-1
 314 405 l 1,27,-1
 304 405 l 1,28,-1
 304 393 l 1,29,-1
 214 393 l 1,30,-1
 214 383 l 1,31,-1
 191 383 l 1,32,-1
 191 372 l 1,33,-1
 180 372 l 1,34,-1
 180 360 l 1,35,-1
 165 360 l 1,36,-1
 165 338 l 1,37,-1
 146 338 l 1,38,-1
 146 317 l 1,39,-1
 135 317 l 1,40,-1
 135 293 l 1,41,-1
 123 293 l 1,42,-1
 123 203 l 1,43,-1
 135 203 l 1,44,-1
 135 169 l 1,45,-1
 146 169 l 1,46,-1
 146 146 l 1,47,-1
 158 146 l 1,48,-1
 158 124 l 1,49,-1
 168 124 l 1,50,-1
 168 113 l 1,51,-1
 180 113 l 1,52,-1
 180 101 l 1,53,-1
 191 101 l 1,54,-1
 191 91 l 1,55,-1
 214 91 l 1,56,-1
 214 79 l 1,57,-1
 248 79 l 1,58,-1
 248 69 l 1,59,-1
 322 69 l 1,60,-1
 322 80 l 1,61,-1
 367 80 l 1,62,-1
 367 91 l 1,63,-1
 389 91 l 1,64,-1
 389 103 l 1,65,-1
 412 103 l 1,66,-1
 412 114 l 1,67,-1
 424 114 l 1,68,-1
 424 126 l 1,69,-1
 434 126 l 1,70,-1
 434 142 l 1,71,-1
 448 142 l 1,72,-1
 448 157 l 1,73,-1
 463 157 l 1,74,-1
 463 182 l 1,75,-1
 478 182 l 1,76,-1
 478 204 l 1,77,-1
 490 204 l 1,78,-1
 490 249 l 1,79,-1
 500 249 l 1,80,-1
 500 328 l 1,81,-1
 512 328 l 1,82,-1
 512 429 l 1,83,-1
 503 429 l 1,84,-1
 503 520 l 1,85,-1
 488 520 l 1,86,-1
 488 566 l 1,87,-1
 478 566 l 1,88,-1
 478 584 l 1,89,-1
 467 584 l 1,90,-1
 467 600 l 1,91,-1
 457 600 l 1,92,-1
 457 623 l 1,93,-1
 443 623 l 1,94,-1
 443 637 l 1,95,-1
 423 637 l 1,96,-1
 423 656 l 1,97,-1
 400 656 l 1,98,-1
 400 667 l 1,99,-1
 378 667 l 1,100,-1
 378 675 l 1,101,-1
 355 675 l 1,102,-1
 355 688 l 1,103,-1
 275 688 l 1,0,-1
379 747 m 1,104,-1
 379 737 l 1,105,-1
 424 737 l 1,106,-1
 424 730 l 1,107,-1
 445 730 l 1,108,-1
 445 721 l 1,109,-1
 457 721 l 1,110,-1
 457 709 l 1,111,-1
 469 709 l 1,112,-1
 469 699 l 1,113,-1
 484 699 l 1,114,-1
 484 687 l 1,115,-1
 495 687 l 1,116,-1
 495 677 l 1,117,-1
 503 677 l 1,118,-1
 503 667 l 1,119,-1
 515 667 l 1,120,-1
 515 657 l 1,121,-1
 527 657 l 1,122,-1
 527 643 l 1,123,-1
 537 643 l 1,124,-1
 537 624 l 1,125,-1
 548 624 l 1,126,-1
 548 599 l 1,127,-1
 559 599 l 1,128,-1
 559 565 l 1,129,-1
 571 565 l 1,130,-1
 571 543 l 1,131,-1
 579 543 l 1,132,-1
 579 441 l 1,133,-1
 606 441 l 1,134,-1
 606 305 l 1,135,-1
 592 305 l 1,136,-1
 592 249 l 1,137,-1
 580 249 l 1,138,-1
 580 194 l 1,139,-1
 570 194 l 1,140,-1
 570 171 l 1,141,-1
 558 171 l 1,142,-1
 558 148 l 1,143,-1
 547 148 l 1,144,-1
 547 126 l 1,145,-1
 536 126 l 1,146,-1
 536 110 l 1,147,-1
 526 110 l 1,148,-1
 526 98 l 1,149,-1
 512 98 l 1,150,-1
 512 84 l 1,151,-1
 501 84 l 1,152,-1
 501 72 l 1,153,-1
 488 72 l 1,154,-1
 488 58 l 1,155,-1
 473 58 l 1,156,-1
 473 46 l 1,157,-1
 457 46 l 1,158,-1
 457 35 l 1,159,-1
 434 35 l 1,160,-1
 434 25 l 1,161,-1
 412 25 l 1,162,-1
 412 13 l 1,163,-1
 392 13 l 1,164,-1
 392 1 l 1,165,-1
 194 1 l 1,166,-1
 194 12 l 1,167,-1
 172 12 l 1,168,-1
 172 23 l 1,169,-1
 146 23 l 1,170,-1
 146 35 l 1,171,-1
 123 35 l 1,172,-1
 123 45 l 1,173,-1
 113 45 l 1,174,-1
 113 56 l 1,175,-1
 101 56 l 1,176,-1
 101 68 l 1,177,-1
 90 68 l 1,178,-1
 90 79 l 1,179,-1
 80 79 l 1,180,-1
 80 91 l 1,181,-1
 68 91 l 1,182,-1
 68 113 l 1,183,-1
 57 113 l 1,184,-1
 57 136 l 1,185,-1
 45 136 l 1,186,-1
 45 169 l 1,187,-1
 34 169 l 1,188,-1
 34 203 l 1,189,-1
 22 203 l 1,190,-1
 22 270 l 1,191,-1
 34 270 l 1,192,-1
 34 315 l 1,193,-1
 45 315 l 1,194,-1
 45 338 l 1,195,-1
 57 338 l 1,196,-1
 57 360 l 1,197,-1
 68 360 l 1,198,-1
 68 372 l 1,199,-1
 80 372 l 1,200,-1
 80 383 l 1,201,-1
 90 383 l 1,202,-1
 90 393 l 1,203,-1
 101 393 l 1,204,-1
 101 405 l 1,205,-1
 113 405 l 1,206,-1
 113 416 l 1,207,-1
 123 416 l 1,208,-1
 123 428 l 1,209,-1
 135 428 l 1,210,-1
 135 451 l 1,211,-1
 123 451 l 1,212,-1
 123 461 l 1,213,-1
 113 461 l 1,214,-1
 113 473 l 1,215,-1
 101 473 l 1,216,-1
 101 484 l 1,217,-1
 90 484 l 1,218,-1
 90 506 l 1,219,-1
 80 506 l 1,220,-1
 80 541 l 1,221,-1
 68 541 l 1,222,-1
 68 598 l 1,223,-1
 80 598 l 1,224,-1
 80 626 l 1,225,-1
 90 626 l 1,226,-1
 90 637 l 1,227,-1
 101 637 l 1,228,-1
 101 659 l 1,229,-1
 113 659 l 1,230,-1
 113 670 l 1,231,-1
 123 670 l 1,232,-1
 123 682 l 1,233,-1
 135 682 l 1,234,-1
 135 693 l 1,235,-1
 157 693 l 1,236,-1
 157 713 l 1,237,-1
 178 713 l 1,238,-1
 178 723 l 1,239,-1
 212 723 l 1,240,-1
 212 735 l 1,241,-1
 267 735 l 1,242,-1
 267 747 l 1,243,-1
 379 747 l 1,104,-1
EndSplineSet
Substitution2: "Single Substitution lookup 10 subtable" ordfeminine
Substitution2: "'aalt' Access All Alternates in Latin lookup 0 subtable" ordfeminine
EndChar

StartChar: B
Encoding: 66 66 39
Width: 585
GlyphClass: 2
Flags: W
LayerCount: 2
Fore
SplineSet
135 158 m 1,0,-1
 149 158 l 1,1,-1
 149 139 l 1,2,-1
 162 139 l 1,3,-1
 162 119 l 1,4,-1
 182 119 l 1,5,-1
 182 109 l 1,6,-1
 196 109 l 1,7,-1
 196 100 l 1,8,-1
 223 100 l 1,9,-1
 223 90 l 1,10,-1
 249 90 l 1,11,-1
 249 80 l 1,12,-1
 337 80 l 1,13,-1
 337 90 l 1,14,-1
 377 90 l 1,15,-1
 377 100 l 1,16,-1
 390 100 l 1,17,-1
 391 331 l 1,18,-1
 378 331 l 1,19,-1
 378 341 l 1,20,-1
 328 341 l 1,21,-1
 328 331 l 1,22,-1
 250 331 l 1,23,-1
 250 324 l 1,24,-1
 224 324 l 1,25,-1
 224 314 l 1,26,-1
 197 314 l 1,27,-1
 197 305 l 1,28,-1
 183 305 l 1,29,-1
 183 294 l 1,30,-1
 171 294 l 1,31,-1
 171 285 l 1,32,-1
 163 285 l 1,33,-1
 163 275 l 1,34,-1
 150 275 l 1,35,-1
 150 255 l 1,36,-1
 135 255 l 1,37,-1
 135 226 l 1,38,-1
 122 226 l 1,39,-1
 122 178 l 1,40,-1
 135 178 l 1,41,-1
 135 158 l 1,0,-1
197 491 m 1,42,-1
 209 491 l 1,43,-1
 209 467 l 1,44,-1
 222 467 l 1,45,-1
 222 453 l 1,46,-1
 248 453 l 1,47,-1
 248 442 l 1,48,-1
 280 442 l 1,49,-1
 280 435 l 1,50,-1
 324 435 l 1,51,-1
 324 430 l 1,52,-1
 390 430 l 1,53,-1
 390 604 l 1,54,-1
 377 604 l 1,55,-1
 377 624 l 1,56,-1
 351 624 l 1,57,-1
 351 633 l 1,58,-1
 327 633 l 1,59,-1
 327 624 l 1,60,-1
 250 624 l 1,61,-1
 250 614 l 1,62,-1
 224 614 l 1,63,-1
 224 604 l 1,64,-1
 210 604 l 1,65,-1
 210 594 l 1,66,-1
 197 594 l 1,67,-1
 197 579 l 1,68,-1
 183 579 l 1,69,-1
 183 524 l 1,70,-1
 197 524 l 1,71,-1
 197 491 l 1,42,-1
539 715 m 1,72,-1
 551 715 l 1,73,-1
 551 651 l 1,74,-1
 539 651 l 1,75,-1
 539 639 l 1,76,-1
 496 639 l 1,77,-1
 496 620 l 1,78,-1
 473 620 l 1,79,-1
 473 597 l 1,80,-1
 461 597 l 1,81,-1
 461 578 l 1,82,-1
 473 578 l 1,83,-1
 473 308 l 1,84,-1
 461 308 l 1,85,-1
 461 228 l 1,86,-1
 473 228 l 1,87,-1
 473 82 l 1,88,-1
 484 82 l 1,89,-1
 484 72 l 1,90,-1
 496 72 l 1,91,-1
 496 60 l 1,92,-1
 529 60 l 1,93,-1
 529 49 l 1,94,-1
 551 49 l 1,95,-1
 551 37 l 1,96,-1
 563 37 l 1,97,-1
 563 -11 l 1,98,-1
 551 -11 l 1,99,-1
 551 -20 l 1,100,-1
 417 -20 l 1,101,-1
 417 0 l 1,102,-1
 352 0 l 1,103,-1
 352 -12 l 1,104,-1
 278 -12 l 1,105,-1
 278 -1 l 1,106,-1
 251 -1 l 1,107,-1
 251 -6 l 1,108,-1
 224 -6 l 1,109,-1
 224 1 l 1,110,-1
 189 1 l 1,111,-1
 189 13 l 1,112,-1
 162 13 l 1,113,-1
 162 24 l 1,114,-1
 144 25 l 1,115,-1
 144 35 l 1,116,-1
 134 35 l 1,117,-1
 134 47 l 1,118,-1
 117 47 l 1,119,-1
 117 65 l 1,120,-1
 101 65 l 1,121,-1
 101 75 l 1,122,-1
 87 75 l 1,123,-1
 87 85 l 1,124,-1
 75 85 l 1,125,-1
 75 95 l 1,126,-1
 61 95 l 1,127,-1
 61 114 l 1,128,-1
 48 114 l 1,129,-1
 48 134 l 1,130,-1
 34 134 l 1,131,-1
 34 153 l 1,132,-1
 22 153 l 1,133,-1
 22 240 l 1,134,-1
 34 240 l 1,135,-1
 34 270 l 1,136,-1
 48 270 l 1,137,-1
 48 286 l 1,138,-1
 61 286 l 1,139,-1
 61 302 l 1,140,-1
 75 302 l 1,141,-1
 75 317 l 1,142,-1
 87 317 l 1,143,-1
 87 328 l 1,144,-1
 101 328 l 1,145,-1
 101 344 l 1,146,-1
 118 344 l 1,147,-1
 118 356 l 1,148,-1
 140 356 l 1,149,-1
 140 370 l 1,150,-1
 165 370 l 1,151,-1
 165 382 l 1,152,-1
 186 382 l 1,153,-1
 186 394 l 1,154,-1
 203 394 l 1,155,-1
 203 406 l 1,156,-1
 188 406 l 1,157,-1
 188 418 l 1,158,-1
 171 418 l 1,159,-1
 171 424 l 1,160,-1
 157 424 l 1,161,-1
 157 433 l 1,162,-1
 144 433 l 1,163,-1
 144 443 l 1,164,-1
 130 443 l 1,165,-1
 130 453 l 1,166,-1
 117 453 l 1,167,-1
 117 471 l 1,168,-1
 105 471 l 1,169,-1
 105 491 l 1,170,-1
 91 491 l 1,171,-1
 91 510 l 1,172,-1
 78 510 l 1,173,-1
 78 548 l 1,174,-1
 64 548 l 1,175,-1
 64 559 l 1,176,-1
 78 559 l 1,177,-1
 78 607 l 1,178,-1
 91 607 l 1,179,-1
 91 627 l 1,180,-1
 105 627 l 1,181,-1
 105 637 l 1,182,-1
 117 637 l 1,183,-1
 117 656 l 1,184,-1
 144 656 l 1,185,-1
 144 666 l 1,186,-1
 157 666 l 1,187,-1
 157 676 l 1,188,-1
 183 676 l 1,189,-1
 183 695 l 1,190,-1
 250 695 l 1,191,-1
 250 708 l 1,192,-1
 399 708 l 1,193,-1
 399 722 l 1,194,-1
 539 722 l 1,195,-1
 539 715 l 1,72,-1
EndSplineSet
EndChar

StartChar: C
Encoding: 67 67 40
Width: 584
GlyphClass: 2
Flags: W
LayerCount: 2
Fore
SplineSet
258 742 m 1,0,-1
 258 754 l 1,1,-1
 382 754 l 1,2,-1
 382 742 l 1,3,-1
 439 742 l 1,4,-1
 439 731 l 1,5,-1
 540 731 l 1,6,-1
 540 721 l 1,7,-1
 550 721 l 1,8,-1
 550 698 l 1,9,-1
 562 698 l 1,10,-1
 562 676 l 1,11,-1
 550 676 l 1,12,-1
 550 572 l 1,13,-1
 562 572 l 1,14,-1
 562 549 l 1,15,-1
 550 549 l 1,16,-1
 550 538 l 1,17,-1
 540 538 l 1,18,-1
 540 527 l 1,19,-1
 494 527 l 1,20,-1
 494 538 l 1,21,-1
 484 538 l 1,22,-1
 484 561 l 1,23,-1
 472 561 l 1,24,-1
 472 587 l 1,25,-1
 461 587 l 1,26,-1
 461 609 l 1,27,-1
 449 609 l 1,28,-1
 449 641 l 1,29,-1
 439 641 l 1,30,-1
 439 653 l 1,31,-1
 427 653 l 1,32,-1
 427 664 l 1,33,-1
 404 664 l 1,34,-1
 404 676 l 1,35,-1
 270 676 l 1,36,-1
 270 664 l 1,37,-1
 248 664 l 1,38,-1
 248 653 l 1,39,-1
 225 653 l 1,40,-1
 225 641 l 1,41,-1
 213 641 l 1,42,-1
 213 609 l 1,43,-1
 202 609 l 1,44,-1
 202 598 l 1,45,-1
 190 598 l 1,46,-1
 190 575 l 1,47,-1
 180 575 l 1,48,-1
 180 564 l 1,49,-1
 168 564 l 1,50,-1
 168 542 l 1,51,-1
 157 542 l 1,52,-1
 157 508 l 1,53,-1
 147 508 l 1,54,-1
 147 463 l 1,55,-1
 135 463 l 1,56,-1
 135 362 l 1,57,-1
 124 362 l 1,58,-1
 124 328 l 1,59,-1
 135 328 l 1,60,-1
 135 237 l 1,61,-1
 147 237 l 1,62,-1
 147 194 l 1,63,-1
 157 194 l 1,64,-1
 157 159 l 1,65,-1
 168 159 l 1,66,-1
 168 148 l 1,67,-1
 180 148 l 1,68,-1
 180 126 l 1,69,-1
 190 126 l 1,70,-1
 190 114 l 1,71,-1
 202 114 l 1,72,-1
 202 103 l 1,73,-1
 213 103 l 1,74,-1
 213 91 l 1,75,-1
 236 91 l 1,76,-1
 236 81 l 1,77,-1
 258 81 l 1,78,-1
 258 69 l 1,79,-1
 281 69 l 1,80,-1
 281 58 l 1,81,-1
 382 58 l 1,82,-1
 382 69 l 1,83,-1
 404 69 l 1,84,-1
 404 81 l 1,85,-1
 427 81 l 1,86,-1
 427 91 l 1,87,-1
 439 91 l 1,88,-1
 439 103 l 1,89,-1
 449 103 l 1,90,-1
 449 126 l 1,91,-1
 461 126 l 1,92,-1
 461 136 l 1,93,-1
 472 136 l 1,94,-1
 472 152 l 1,95,-1
 484 152 l 1,96,-1
 484 185 l 1,97,-1
 494 185 l 1,98,-1
 494 197 l 1,99,-1
 505 197 l 1,100,-1
 505 207 l 1,101,-1
 540 207 l 1,102,-1
 540 197 l 1,103,-1
 562 197 l 1,104,-1
 562 81 l 1,105,-1
 550 81 l 1,106,-1
 550 69 l 1,107,-1
 540 69 l 1,108,-1
 540 58 l 1,109,-1
 528 58 l 1,110,-1
 528 46 l 1,111,-1
 505 46 l 1,112,-1
 505 35 l 1,113,-1
 494 35 l 1,114,-1
 494 25 l 1,115,-1
 472 25 l 1,116,-1
 472 13 l 1,117,-1
 449 13 l 1,118,-1
 449 2 l 1,119,-1
 404 2 l 1,120,-1
 404 -10 l 1,121,-1
 359 -10 l 1,122,-1
 359 -20 l 1,123,-1
 293 -20 l 1,124,-1
 293 -10 l 1,125,-1
 236 -10 l 1,126,-1
 236 2 l 1,127,-1
 202 2 l 1,128,-1
 202 13 l 1,129,-1
 180 13 l 1,130,-1
 180 25 l 1,131,-1
 157 25 l 1,132,-1
 157 35 l 1,133,-1
 147 35 l 1,134,-1
 147 46 l 1,135,-1
 135 46 l 1,136,-1
 135 58 l 1,137,-1
 124 58 l 1,138,-1
 124 69 l 1,139,-1
 112 69 l 1,140,-1
 112 81 l 1,141,-1
 102 81 l 1,142,-1
 102 103 l 1,143,-1
 90 103 l 1,144,-1
 90 114 l 1,145,-1
 79 114 l 1,146,-1
 79 126 l 1,147,-1
 67 126 l 1,148,-1
 67 159 l 1,149,-1
 56 159 l 1,150,-1
 56 182 l 1,151,-1
 44 182 l 1,152,-1
 44 215 l 1,153,-1
 34 215 l 1,154,-1
 34 272 l 1,155,-1
 22 272 l 1,156,-1
 22 429 l 1,157,-1
 34 429 l 1,158,-1
 34 474 l 1,159,-1
 44 474 l 1,160,-1
 44 508 l 1,161,-1
 56 508 l 1,162,-1
 56 542 l 1,163,-1
 67 542 l 1,164,-1
 67 564 l 1,165,-1
 79 564 l 1,166,-1
 79 587 l 1,167,-1
 90 587 l 1,168,-1
 90 598 l 1,169,-1
 102 598 l 1,170,-1
 102 641 l 1,171,-1
 112 641 l 1,172,-1
 112 653 l 1,173,-1
 124 653 l 1,174,-1
 124 664 l 1,175,-1
 135 664 l 1,176,-1
 135 676 l 1,177,-1
 147 676 l 1,178,-1
 147 686 l 1,179,-1
 157 686 l 1,180,-1
 157 698 l 1,181,-1
 168 698 l 1,182,-1
 168 709 l 1,183,-1
 190 709 l 1,184,-1
 190 721 l 1,185,-1
 202 721 l 1,186,-1
 202 731 l 1,187,-1
 225 731 l 1,188,-1
 225 742 l 1,189,-1
 258 742 l 1,0,-1
EndSplineSet
EndChar

StartChar: D
Encoding: 68 68 41
Width: 616
GlyphClass: 2
Flags: W
LayerCount: 2
Fore
SplineSet
258 609 m 1,0,-1
 258 558 l 1,1,-1
 266 558 l 1,2,-1
 266 534 l 1,3,-1
 276 534 l 1,4,-1
 276 511 l 1,5,-1
 287 511 l 1,6,-1
 287 488 l 1,7,-1
 305 488 l 1,8,-1
 305 469 l 1,9,-1
 325 469 l 1,10,-1
 325 453 l 1,11,-1
 338 453 l 1,12,-1
 338 441 l 1,13,-1
 356 441 l 1,14,-1
 355 429 l 1,15,-1
 370 429 l 1,16,-1
 370 418 l 1,17,-1
 383 418 l 1,18,-1
 382 411 l 1,19,-1
 397 411 l 1,20,-1
 397 404 l 1,21,-1
 407 404 l 1,22,-1
 407 396 l 1,23,-1
 416 396 l 1,24,-1
 416 387 l 1,25,-1
 435 387 l 1,26,-1
 435 395 l 1,27,-1
 444 395 l 1,28,-1
 444 594 l 1,29,-1
 433 594 l 1,30,-1
 433 606 l 1,31,-1
 420 606 l 1,32,-1
 420 616 l 1,33,-1
 410 616 l 1,34,-1
 410 626 l 1,35,-1
 280 626 l 1,36,-1
 280 609 l 1,37,-1
 258 609 l 1,0,-1
189 553 m 1,38,-1
 178 553 l 1,39,-1
 178 541 l 1,40,-1
 168 541 l 1,41,-1
 168 529 l 1,42,-1
 157 529 l 1,43,-1
 157 496 l 1,44,-1
 147 496 l 1,45,-1
 147 461 l 1,46,-1
 135 461 l 1,47,-1
 135 383 l 1,48,-1
 124 383 l 1,49,-1
 124 338 l 1,50,-1
 135 338 l 1,51,-1
 135 270 l 1,52,-1
 147 270 l 1,53,-1
 147 237 l 1,54,-1
 157 237 l 1,55,-1
 157 204 l 1,56,-1
 168 204 l 1,57,-1
 168 181 l 1,58,-1
 180 181 l 1,59,-1
 180 158 l 1,60,-1
 191 158 l 1,61,-1
 191 146 l 1,62,-1
 203 146 l 1,63,-1
 203 136 l 1,64,-1
 213 136 l 1,65,-1
 213 125 l 1,66,-1
 227 125 l 1,67,-1
 227 113 l 1,68,-1
 236 113 l 1,69,-1
 236 101 l 1,70,-1
 258 101 l 1,71,-1
 258 91 l 1,72,-1
 293 91 l 1,73,-1
 293 79 l 1,74,-1
 326 79 l 1,75,-1
 326 68 l 1,76,-1
 394 68 l 1,77,-1
 394 79 l 1,78,-1
 427 79 l 1,79,-1
 427 91 l 1,80,-1
 439 91 l 1,81,-1
 439 247 l 1,82,-1
 452 247 l 1,83,-1
 452 282 l 1,84,-1
 442 282 l 1,85,-1
 442 298 l 1,86,-1
 421 298 l 1,87,-1
 421 308 l 1,88,-1
 408 308 l 1,89,-1
 408 316 l 1,90,-1
 387 316 l 1,91,-1
 387 327 l 1,92,-1
 374 327 l 1,93,-1
 374 335 l 1,94,-1
 352 335 l 1,95,-1
 352 345 l 1,96,-1
 339 345 l 1,97,-1
 339 355 l 1,98,-1
 325 355 l 1,99,-1
 325 364 l 1,100,-1
 310 364 l 1,101,-1
 310 374 l 1,102,-1
 296 374 l 1,103,-1
 296 384 l 1,104,-1
 283 384 l 1,105,-1
 283 396 l 1,106,-1
 272 396 l 1,107,-1
 272 409 l 1,108,-1
 263 409 l 1,109,-1
 263 420 l 1,110,-1
 252 420 l 1,111,-1
 252 431 l 1,112,-1
 241 431 l 1,113,-1
 241 447 l 1,114,-1
 228 447 l 1,115,-1
 228 466 l 1,116,-1
 213 466 l 1,117,-1
 213 497 l 1,118,-1
 201 497 l 1,119,-1
 201 517 l 1,120,-1
 189 517 l 1,121,-1
 189 553 l 1,38,-1
558 701 m 1,122,-1
 569 702 l 1,123,-1
 569 666 l 1,124,-1
 554 666 l 1,125,-1
 554 647 l 1,126,-1
 536 647 l 1,127,-1
 536 638 l 1,128,-1
 517 638 l 1,129,-1
 517 597 l 1,130,-1
 528 597 l 1,131,-1
 528 574 l 1,132,-1
 517 574 l 1,133,-1
 517 518 l 1,134,-1
 528 518 l 1,135,-1
 528 382 l 1,136,-1
 518 382 l 1,137,-1
 518 196 l 1,138,-1
 528 196 l 1,139,-1
 528 91 l 1,140,-1
 540 91 l 1,141,-1
 540 79 l 1,142,-1
 562 79 l 1,143,-1
 562 68 l 1,144,-1
 571 68 l 1,145,-1
 571 56 l 1,146,-1
 594 56 l 1,147,-1
 594 23 l 1,148,-1
 583 23 l 1,149,-1
 583 12 l 1,150,-1
 571 12 l 1,151,-1
 571 0 l 1,152,-1
 270 0 l 1,153,-1
 270 12 l 1,154,-1
 203 12 l 1,155,-1
 203 23 l 1,156,-1
 183 23 l 1,157,-1
 183 35 l 1,158,-1
 168 35 l 1,159,-1
 168 45 l 1,160,-1
 157 45 l 1,161,-1
 157 56 l 1,162,-1
 147 56 l 1,163,-1
 147 69 l 1,164,-1
 134 69 l 1,165,-1
 134 80 l 1,166,-1
 124 80 l 1,167,-1
 124 91 l 1,168,-1
 112 91 l 1,169,-1
 112 101 l 1,170,-1
 102 101 l 1,171,-1
 102 113 l 1,172,-1
 90 113 l 1,173,-1
 90 124 l 1,174,-1
 79 124 l 1,175,-1
 79 146 l 1,176,-1
 67 146 l 1,177,-1
 67 169 l 1,178,-1
 57 169 l 1,179,-1
 57 204 l 1,180,-1
 45 204 l 1,181,-1
 45 237 l 1,182,-1
 34 237 l 1,183,-1
 34 305 l 1,184,-1
 22 305 l 1,185,-1
 22 406 l 1,186,-1
 34 406 l 1,187,-1
 34 461 l 1,188,-1
 45 461 l 1,189,-1
 45 507 l 1,190,-1
 57 507 l 1,191,-1
 57 541 l 1,192,-1
 67 541 l 1,193,-1
 67 562 l 1,194,-1
 79 562 l 1,195,-1
 79 574 l 1,196,-1
 90 574 l 1,197,-1
 90 597 l 1,198,-1
 102 597 l 1,199,-1
 102 608 l 1,200,-1
 112 608 l 1,201,-1
 112 619 l 1,202,-1
 124 619 l 1,203,-1
 124 630 l 1,204,-1
 135 630 l 1,205,-1
 135 642 l 1,206,-1
 147 642 l 1,207,-1
 147 653 l 1,208,-1
 157 653 l 1,209,-1
 157 665 l 1,210,-1
 168 665 l 1,211,-1
 168 675 l 1,212,-1
 191 675 l 1,213,-1
 191 687 l 1,214,-1
 213 687 l 1,215,-1
 213 698 l 1,216,-1
 236 698 l 1,217,-1
 236 710 l 1,218,-1
 270 710 l 1,219,-1
 270 720 l 1,220,-1
 382 720 l 1,221,-1
 382 731 l 1,222,-1
 404 731 l 1,223,-1
 404 720 l 1,224,-1
 528 720 l 1,225,-1
 528 728 l 1,226,-1
 544 728 l 1,227,-1
 544 720 l 1,228,-1
 558 720 l 1,229,-1
 558 701 l 1,122,-1
EndSplineSet
EndChar

StartChar: E
Encoding: 69 69 42
Width: 513
GlyphClass: 2
Flags: W
LayerCount: 2
Fore
SplineSet
288 742 m 1,0,-1
 345 742 l 1,1,-1
 345 730 l 1,2,-1
 368 730 l 1,3,-1
 368 720 l 1,4,-1
 390 720 l 1,5,-1
 390 708 l 1,6,-1
 413 708 l 1,7,-1
 413 697 l 1,8,-1
 423 697 l 1,9,-1
 423 674 l 1,10,-1
 434 674 l 1,11,-1
 434 664 l 1,12,-1
 446 664 l 1,13,-1
 446 639 l 1,14,-1
 460 639 l 1,15,-1
 460 587 l 1,16,-1
 449 587 l 1,17,-1
 449 569 l 1,18,-1
 439 569 l 1,19,-1
 439 546 l 1,20,-1
 351 546 l 1,21,-1
 351 557 l 1,22,-1
 335 557 l 1,23,-1
 335 602 l 1,24,-1
 344 602 l 1,25,-1
 344 614 l 1,26,-1
 356 614 l 1,27,-1
 356 641 l 1,28,-1
 345 641 l 1,29,-1
 345 652 l 1,30,-1
 345 664 l 1,31,-1
 333 664 l 1,32,-1
 333 674 l 1,33,-1
 322 674 l 1,34,-1
 312 674 l 1,35,-1
 312 683 l 1,36,-1
 277 683 l 1,37,-1
 277 689 l 1,38,-1
 265 689 l 1,39,-1
 265 683 l 1,40,-1
 239 683 l 1,41,-1
 239 674 l 1,42,-1
 222 674 l 1,43,-1
 222 664 l 1,44,-1
 210 664 l 1,45,-1
 210 652 l 1,46,-1
 199 652 l 1,47,-1
 199 641 l 1,48,-1
 187 641 l 1,49,-1
 187 629 l 1,50,-1
 176 629 l 1,51,-1
 176 607 l 1,52,-1
 162 607 l 1,53,-1
 162 492 l 1,54,-1
 176 492 l 1,55,-1
 176 449 l 1,56,-1
 187 449 l 1,57,-1
 187 427 l 1,58,-1
 210 427 l 1,59,-1
 210 416 l 1,60,-1
 244 416 l 1,61,-1
 244 405 l 1,62,-1
 363 405 l 1,63,-1
 363 398 l 1,64,-1
 375 398 l 1,65,-1
 375 351 l 1,66,-1
 361 351 l 1,67,-1
 361 343 l 1,68,-1
 339 343 l 1,69,-1
 339 334 l 1,70,-1
 271 334 l 1,71,-1
 271 326 l 1,72,-1
 246 326 l 1,73,-1
 246 315 l 1,74,-1
 204 315 l 1,75,-1
 204 303 l 1,76,-1
 171 303 l 1,77,-1
 171 289 l 1,78,-1
 154 289 l 1,79,-1
 154 270 l 1,80,-1
 141 270 l 1,81,-1
 141 245 l 1,82,-1
 127 245 l 1,83,-1
 127 211 l 1,84,-1
 135 211 l 1,85,-1
 135 173 l 1,86,-1
 147 173 l 1,87,-1
 147 150 l 1,88,-1
 159 150 l 1,89,-1
 159 128 l 1,90,-1
 169 128 l 1,91,-1
 169 117 l 1,92,-1
 181 117 l 1,93,-1
 181 105 l 1,94,-1
 192 105 l 1,95,-1
 192 95 l 1,96,-1
 215 95 l 1,97,-1
 215 87 l 1,98,-1
 244 87 l 1,99,-1
 244 79 l 1,100,-1
 275 79 l 1,101,-1
 275 72 l 1,102,-1
 312 72 l 1,103,-1
 312 86 l 1,104,-1
 344 86 l 1,105,-1
 345 95 l 1,106,-1
 371 95 l 1,107,-1
 371 110 l 1,108,-1
 391 110 l 1,109,-1
 391 126 l 1,110,-1
 414 126 l 1,111,-1
 414 143 l 1,112,-1
 437 143 l 1,113,-1
 437 156 l 1,114,-1
 470 156 l 1,115,-1
 470 148 l 1,116,-1
 482 148 l 1,117,-1
 482 128 l 1,118,-1
 491 128 l 1,119,-1
 491 64 l 1,120,-1
 480 64 l 1,121,-1
 480 54 l 1,122,-1
 467 54 l 1,123,-1
 467 42 l 1,124,-1
 444 42 l 1,125,-1
 444 29 l 1,126,-1
 422 29 l 1,127,-1
 422 18 l 1,128,-1
 390 18 l 1,129,-1
 390 7 l 1,130,-1
 370 7 l 1,131,-1
 370 -1 l 1,132,-1
 236 -1 l 1,133,-1
 236 7 l 1,134,-1
 210 7 l 1,135,-1
 210 15 l 1,136,-1
 176 15 l 1,137,-1
 176 26 l 1,138,-1
 142 26 l 1,139,-1
 142 38 l 1,140,-1
 119 38 l 1,141,-1
 119 48 l 1,142,-1
 109 48 l 1,143,-1
 109 59 l 1,144,-1
 97 59 l 1,145,-1
 97 71 l 1,146,-1
 86 71 l 1,147,-1
 86 82 l 1,148,-1
 76 82 l 1,149,-1
 76 94 l 1,150,-1
 64 94 l 1,151,-1
 64 116 l 1,152,-1
 53 116 l 1,153,-1
 53 139 l 1,154,-1
 41 139 l 1,155,-1
 41 172 l 1,156,-1
 30 172 l 1,157,-1
 30 205 l 1,158,-1
 22 204 l 1,159,-1
 22 232 l 1,160,-1
 30 232 l 1,161,-1
 30 258 l 1,162,-1
 41 258 l 1,163,-1
 41 281 l 1,164,-1
 53 281 l 1,165,-1
 53 303 l 1,166,-1
 64 303 l 1,167,-1
 64 315 l 1,168,-1
 76 315 l 1,169,-1
 76 326 l 1,170,-1
 86 326 l 1,171,-1
 86 336 l 1,172,-1
 97 336 l 1,173,-1
 97 348 l 1,174,-1
 109 348 l 1,175,-1
 109 359 l 1,176,-1
 119 359 l 1,177,-1
 119 371 l 1,178,-1
 131 371 l 1,179,-1
 131 394 l 1,180,-1
 119 394 l 1,181,-1
 119 404 l 1,182,-1
 109 404 l 1,183,-1
 109 416 l 1,184,-1
 97 416 l 1,185,-1
 97 427 l 1,186,-1
 86 427 l 1,187,-1
 86 449 l 1,188,-1
 76 449 l 1,189,-1
 76 497 l 1,190,-1
 64 497 l 1,191,-1
 64 586 l 1,192,-1
 77 586 l 1,193,-1
 77 641 l 1,194,-1
 86 641 l 1,195,-1
 86 652 l 1,196,-1
 97 652 l 1,197,-1
 97 674 l 1,198,-1
 109 674 l 1,199,-1
 109 685 l 1,200,-1
 119 685 l 1,201,-1
 119 697 l 1,202,-1
 131 697 l 1,203,-1
 131 708 l 1,204,-1
 154 708 l 1,205,-1
 154 720 l 1,206,-1
 176 720 l 1,207,-1
 176 730 l 1,208,-1
 210 730 l 1,209,-1
 210 742 l 1,210,-1
 265 742 l 1,211,-1
 265 752 l 1,212,-1
 288 752 l 1,213,-1
 288 742 l 1,0,-1
EndSplineSet
EndChar

StartChar: F
Encoding: 70 70 43
Width: 541
GlyphClass: 2
Flags: W
LayerCount: 2
Fore
SplineSet
208 310 m 1,0,-1
 274 310 l 1,1,-1
 274 319 l 1,2,-1
 290 319 l 1,3,-1
 290 332 l 1,4,-1
 320 332 l 1,5,-1
 320 344 l 1,6,-1
 334 344 l 1,7,-1
 334 357 l 1,8,-1
 355 357 l 1,9,-1
 355 372 l 1,10,-1
 366 372 l 1,11,-1
 366 388 l 1,12,-1
 382 388 l 1,13,-1
 382 402 l 1,14,-1
 399 402 l 1,15,-1
 399 423 l 1,16,-1
 410 423 l 1,17,-1
 410 446 l 1,18,-1
 422 446 l 1,19,-1
 422 469 l 1,20,-1
 433 469 l 1,21,-1
 433 564 l 1,22,-1
 427 564 l 1,23,-1
 427 581 l 1,24,-1
 414 581 l 1,25,-1
 414 603 l 1,26,-1
 398 603 l 1,27,-1
 398 615 l 1,28,-1
 387 615 l 1,29,-1
 387 626 l 1,30,-1
 375 626 l 1,31,-1
 375 638 l 1,32,-1
 365 638 l 1,33,-1
 365 649 l 1,34,-1
 353 649 l 1,35,-1
 353 659 l 1,36,-1
 342 659 l 1,37,-1
 342 664 l 1,38,-1
 311 664 l 1,39,-1
 311 671 l 1,40,-1
 251 670 l 1,41,-1
 251 659 l 1,42,-1
 226 659 l 1,43,-1
 226 644 l 1,44,-1
 207 644 l 1,45,-1
 207 631 l 1,46,-1
 187 631 l 1,47,-1
 187 492 l 1,48,-1
 182 492 l 1,49,-1
 182 470 l 1,50,-1
 186 470 l 1,51,-1
 186 413 l 1,52,-1
 193 413 l 1,53,-1
 193 315 l 1,54,-1
 208 315 l 1,55,-1
 208 310 l 1,0,-1
78 741 m 1,56,-1
 165 741 l 1,57,-1
 165 730 l 1,58,-1
 175 730 l 1,59,-1
 175 722 l 1,60,-1
 187 722 l 1,61,-1
 187 730 l 1,62,-1
 232 730 l 1,63,-1
 232 741 l 1,64,-1
 265 741 l 1,65,-1
 265 750 l 1,66,-1
 341 750 l 1,67,-1
 341 741 l 1,68,-1
 363 741 l 1,69,-1
 363 730 l 1,70,-1
 392 730 l 1,71,-1
 392 718 l 1,72,-1
 414 718 l 1,73,-1
 414 707 l 1,74,-1
 426 707 l 1,75,-1
 426 697 l 1,76,-1
 437 697 l 1,77,-1
 437 690 l 1,78,-1
 449 690 l 1,79,-1
 449 674 l 1,80,-1
 459 674 l 1,81,-1
 459 662 l 1,82,-1
 471 662 l 1,83,-1
 471 640 l 1,84,-1
 482 640 l 1,85,-1
 482 629 l 1,86,-1
 494 629 l 1,87,-1
 494 594 l 1,88,-1
 504 594 l 1,89,-1
 504 564 l 1,90,-1
 513 564 l 1,91,-1
 513 492 l 1,92,-1
 519 492 l 1,93,-1
 519 445 l 1,94,-1
 509 445 l 1,95,-1
 509 422 l 1,96,-1
 499 422 l 1,97,-1
 499 399 l 1,98,-1
 487 399 l 1,99,-1
 487 378 l 1,100,-1
 476 378 l 1,101,-1
 476 356 l 1,102,-1
 464 356 l 1,103,-1
 464 344 l 1,104,-1
 454 344 l 1,105,-1
 454 333 l 1,106,-1
 442 333 l 1,107,-1
 442 321 l 1,108,-1
 431 321 l 1,109,-1
 431 310 l 1,110,-1
 419 310 l 1,111,-1
 419 299 l 1,112,-1
 398 299 l 1,113,-1
 398 286 l 1,114,-1
 384 286 l 1,115,-1
 384 274 l 1,116,-1
 370 274 l 1,117,-1
 370 260 l 1,118,-1
 342 260 l 1,119,-1
 342 248 l 1,120,-1
 308 248 l 1,121,-1
 308 240 l 1,122,-1
 298 240 l 1,123,-1
 298 231 l 1,124,-1
 265 231 l 1,125,-1
 265 223 l 1,126,-1
 239 223 l 1,127,-1
 239 216 l 1,128,-1
 185 216 l 1,129,-1
 185 117 l 1,130,-1
 197 117 l 1,131,-1
 197 72 l 1,132,-1
 219 72 l 1,133,-1
 219 61 l 1,134,-1
 290 61 l 1,135,-1
 290 49 l 1,136,-1
 303 49 l 1,137,-1
 303 4 l 1,138,-1
 280 4 l 1,139,-1
 280 -7 l 1,140,-1
 63 -7 l 1,141,-1
 63 2 l 1,142,-1
 40 2 l 1,143,-1
 40 49 l 1,144,-1
 51 49 l 1,145,-1
 51 61 l 1,146,-1
 85 61 l 1,147,-1
 85 72 l 1,148,-1
 96 72 l 1,149,-1
 96 106 l 1,150,-1
 107 106 l 1,151,-1
 107 256 l 1,152,-1
 99 256 l 1,153,-1
 99 458 l 1,154,-1
 107 458 l 1,155,-1
 107 640 l 1,156,-1
 97 640 l 1,157,-1
 97 652 l 1,158,-1
 66 652 l 1,159,-1
 66 662 l 1,160,-1
 34 662 l 1,161,-1
 34 674 l 1,162,-1
 22 674 l 1,163,-1
 22 707 l 1,164,-1
 34 707 l 1,165,-1
 34 718 l 1,166,-1
 56 718 l 1,167,-1
 56 730 l 1,168,-1
 78 730 l 1,169,-1
 78 741 l 1,56,-1
EndSplineSet
EndChar

StartChar: G
Encoding: 71 71 44
Width: 692
GlyphClass: 2
Flags: W
LayerCount: 2
Fore
SplineSet
381 676 m 1,0,-1
 381 665 l 1,1,-1
 368 665 l 1,2,-1
 368 631 l 1,3,-1
 352 631 l 1,4,-1
 352 583 l 1,5,-1
 362 583 l 1,6,-1
 362 570 l 1,7,-1
 369 570 l 1,8,-1
 369 556 l 1,9,-1
 378 556 l 1,10,-1
 378 545 l 1,11,-1
 392 545 l 1,12,-1
 392 537 l 1,13,-1
 403 537 l 1,14,-1
 403 524 l 1,15,-1
 420 524 l 1,16,-1
 420 512 l 1,17,-1
 463 512 l 1,18,-1
 463 500 l 1,19,-1
 527 500 l 1,20,-1
 527 505 l 1,21,-1
 546 505 l 1,22,-1
 546 517 l 1,23,-1
 538 517 l 1,24,-1
 538 550 l 1,25,-1
 527 550 l 1,26,-1
 527 573 l 1,27,-1
 515 573 l 1,28,-1
 515 596 l 1,29,-1
 504 596 l 1,30,-1
 504 618 l 1,31,-1
 492 618 l 1,32,-1
 492 630 l 1,33,-1
 482 630 l 1,34,-1
 482 641 l 1,35,-1
 470 641 l 1,36,-1
 470 653 l 1,37,-1
 437 653 l 1,38,-1
 437 663 l 1,39,-1
 404 663 l 1,40,-1
 404 676 l 1,41,-1
 381 676 l 1,0,-1
296 676 m 1,42,-1
 286 676 l 1,43,-1
 286 665 l 1,44,-1
 253 665 l 1,45,-1
 253 655 l 1,46,-1
 220 655 l 1,47,-1
 220 643 l 1,48,-1
 208 643 l 1,49,-1
 208 632 l 1,50,-1
 198 632 l 1,51,-1
 198 620 l 1,52,-1
 186 620 l 1,53,-1
 186 598 l 1,54,-1
 175 598 l 1,55,-1
 175 575 l 1,56,-1
 163 575 l 1,57,-1
 163 552 l 1,58,-1
 152 552 l 1,59,-1
 152 519 l 1,60,-1
 140 519 l 1,61,-1
 140 474 l 1,62,-1
 124 474 l 1,63,-1
 124 160 l 1,64,-1
 128 160 l 1,65,-1
 128 137 l 1,66,-1
 138 137 l 1,67,-1
 138 115 l 1,68,-1
 150 115 l 1,69,-1
 150 92 l 1,70,-1
 161 92 l 1,71,-1
 161 80 l 1,72,-1
 173 80 l 1,73,-1
 173 70 l 1,74,-1
 186 70 l 1,75,-1
 186 59 l 1,76,-1
 224 59 l 1,77,-1
 224 70 l 1,78,-1
 238 70 l 1,79,-1
 238 80 l 1,80,-1
 251 80 l 1,81,-1
 251 92 l 1,82,-1
 262 92 l 1,83,-1
 262 103 l 1,84,-1
 274 103 l 1,85,-1
 274 125 l 1,86,-1
 284 125 l 1,87,-1
 284 165 l 1,88,-1
 296 165 l 1,89,-1
 296 205 l 1,90,-1
 305 205 l 1,91,-1
 305 369 l 1,92,-1
 316 369 l 1,93,-1
 316 393 l 1,94,-1
 373 393 l 1,95,-1
 373 367 l 1,96,-1
 385 367 l 1,97,-1
 385 203 l 1,98,-1
 394 203 l 1,99,-1
 394 172 l 1,100,-1
 406 172 l 1,101,-1
 406 123 l 1,102,-1
 416 123 l 1,103,-1
 416 101 l 1,104,-1
 428 101 l 1,105,-1
 428 90 l 1,106,-1
 439 90 l 1,107,-1
 439 78 l 1,108,-1
 452 78 l 1,109,-1
 452 68 l 1,110,-1
 466 68 l 1,111,-1
 466 57 l 1,112,-1
 504 57 l 1,113,-1
 504 68 l 1,114,-1
 517 68 l 1,115,-1
 517 78 l 1,116,-1
 529 78 l 1,117,-1
 529 90 l 1,118,-1
 540 90 l 1,119,-1
 540 113 l 1,120,-1
 552 113 l 1,121,-1
 552 135 l 1,122,-1
 558 135 l 1,123,-1
 558 158 l 1,124,-1
 564 158 l 1,125,-1
 564 427 l 1,126,-1
 551 427 l 1,127,-1
 551 417 l 1,128,-1
 450 417 l 1,129,-1
 450 426 l 1,130,-1
 416 426 l 1,131,-1
 416 436 l 1,132,-1
 391 436 l 1,133,-1
 391 446 l 1,134,-1
 374 446 l 1,135,-1
 374 455 l 1,136,-1
 363 455 l 1,137,-1
 363 465 l 1,138,-1
 353 465 l 1,139,-1
 353 474 l 1,140,-1
 340 474 l 1,141,-1
 340 484 l 1,142,-1
 326 484 l 1,143,-1
 326 495 l 1,144,-1
 314 495 l 1,145,-1
 314 506 l 1,146,-1
 303 506 l 1,147,-1
 303 519 l 1,148,-1
 295 518 l 1,149,-1
 295 566 l 1,150,-1
 289 566 l 1,151,-1
 289 621 l 1,152,-1
 296 621 l 1,153,-1
 296 676 l 1,42,-1
286 756 m 1,154,-1
 404 756 l 1,155,-1
 404 742 l 1,156,-1
 437 742 l 1,157,-1
 437 731 l 1,158,-1
 482 731 l 1,159,-1
 482 719 l 1,160,-1
 504 719 l 1,161,-1
 504 708 l 1,162,-1
 515 708 l 1,163,-1
 515 698 l 1,164,-1
 538 698 l 1,165,-1
 538 686 l 1,166,-1
 550 686 l 1,167,-1
 550 675 l 1,168,-1
 562 675 l 1,169,-1
 562 667 l 1,170,-1
 572 667 l 1,171,-1
 572 657 l 1,172,-1
 583 657 l 1,173,-1
 583 641 l 1,174,-1
 593 641 l 1,175,-1
 593 630 l 1,176,-1
 605 630 l 1,177,-1
 605 610 l 1,178,-1
 616 610 l 1,179,-1
 616 585 l 1,180,-1
 633 585 l 1,181,-1
 633 550 l 1,182,-1
 646 550 l 1,183,-1
 646 529 l 1,184,-1
 658 529 l 1,185,-1
 658 449 l 1,186,-1
 670 449 l 1,187,-1
 670 203 l 1,188,-1
 661 203 l 1,189,-1
 661 146 l 1,190,-1
 653 146 l 1,191,-1
 653 123 l 1,192,-1
 641 123 l 1,193,-1
 641 101 l 1,194,-1
 630 101 l 1,195,-1
 630 78 l 1,196,-1
 618 78 l 1,197,-1
 618 59 l 1,198,-1
 608 59 l 1,199,-1
 608 45 l 1,200,-1
 590 45 l 1,201,-1
 590 34 l 1,202,-1
 573 34 l 1,203,-1
 573 22 l 1,204,-1
 562 22 l 1,205,-1
 562 12 l 1,206,-1
 540 12 l 1,207,-1
 540 0 l 1,208,-1
 516 0 l 1,209,-1
 516 -11 l 1,210,-1
 448 -11 l 1,211,-1
 448 0 l 1,212,-1
 429 0 l 1,213,-1
 429 12 l 1,214,-1
 410 12 l 1,215,-1
 410 22 l 1,216,-1
 399 22 l 1,217,-1
 399 34 l 1,218,-1
 385 34 l 1,219,-1
 385 45 l 1,220,-1
 373 45 l 1,221,-1
 373 68 l 1,222,-1
 363 68 l 1,223,-1
 363 80 l 1,224,-1
 351 80 l 1,225,-1
 351 91 l 1,226,-1
 339 91 l 1,227,-1
 339 80 l 1,228,-1
 327 80 l 1,229,-1
 327 70 l 1,230,-1
 317 70 l 1,231,-1
 317 47 l 1,232,-1
 305 47 l 1,233,-1
 305 36 l 1,234,-1
 291 36 l 1,235,-1
 291 24 l 1,236,-1
 280 24 l 1,237,-1
 280 14 l 1,238,-1
 261 14 l 1,239,-1
 261 2 l 1,240,-1
 242 2 l 1,241,-1
 242 -9 l 1,242,-1
 174 -9 l 1,243,-1
 174 2 l 1,244,-1
 150 2 l 1,245,-1
 150 14 l 1,246,-1
 128 14 l 1,247,-1
 128 24 l 1,248,-1
 117 24 l 1,249,-1
 117 36 l 1,250,-1
 100 36 l 1,251,-1
 100 47 l 1,252,-1
 82 47 l 1,253,-1
 82 62 l 1,254,-1
 72 62 l 1,255,-1
 72 80 l 1,256,-1
 60 80 l 1,257,-1
 60 103 l 1,258,-1
 49 103 l 1,259,-1
 49 125 l 1,260,-1
 37 125 l 1,261,-1
 37 148 l 1,262,-1
 27 148 l 1,263,-1
 27 205 l 1,264,-1
 22 205 l 1,265,-1
 22 451 l 1,266,-1
 40 451 l 1,267,-1
 40 531 l 1,268,-1
 52 531 l 1,269,-1
 52 552 l 1,270,-1
 62 552 l 1,271,-1
 62 587 l 1,272,-1
 74 587 l 1,273,-1
 74 614 l 1,274,-1
 85 614 l 1,275,-1
 85 629 l 1,276,-1
 97 629 l 1,277,-1
 97 643 l 1,278,-1
 107 643 l 1,279,-1
 107 655 l 1,280,-1
 118 655 l 1,281,-1
 118 667 l 1,282,-1
 129 667 l 1,283,-1
 129 677 l 1,284,-1
 140 677 l 1,285,-1
 140 688 l 1,286,-1
 152 688 l 1,287,-1
 152 700 l 1,288,-1
 175 700 l 1,289,-1
 175 710 l 1,290,-1
 186 710 l 1,291,-1
 186 721 l 1,292,-1
 208 721 l 1,293,-1
 208 733 l 1,294,-1
 253 733 l 1,295,-1
 253 744 l 1,296,-1
 286 744 l 1,297,-1
 286 756 l 1,154,-1
EndSplineSet
EndChar

StartChar: H
Encoding: 72 72 45
Width: 642
GlyphClass: 2
Flags: W
LayerCount: 2
Fore
SplineSet
310 307 m 1,0,-1
 310 90 l 1,1,-1
 333 90 l 1,2,-1
 333 80 l 1,3,-1
 366 80 l 1,4,-1
 366 66 l 1,5,-1
 530 66 l 1,6,-1
 530 56 l 1,7,-1
 541 56 l 1,8,-1
 541 20 l 1,9,-1
 530 20 l 1,10,-1
 530 0 l 1,11,-1
 130 0 l 1,12,-1
 130 12 l 1,13,-1
 119 12 l 1,14,-1
 119 22 l 1,15,-1
 107 22 l 1,16,-1
 107 34 l 1,17,-1
 119 34 l 1,18,-1
 119 58 l 1,19,-1
 130 58 l 1,20,-1
 130 68 l 1,21,-1
 152 68 l 1,22,-1
 152 80 l 1,23,-1
 164 80 l 1,24,-1
 164 68 l 1,25,-1
 210 68 l 1,26,-1
 210 80 l 1,27,-1
 220 80 l 1,28,-1
 220 90 l 1,29,-1
 232 90 l 1,30,-1
 232 226 l 1,31,-1
 220 226 l 1,32,-1
 220 272 l 1,33,-1
 232 272 l 1,34,-1
 232 282 l 1,35,-1
 220 282 l 1,36,37
 220 282 220 282 220 311 c 2,38,39
 220 311 220 311 220 322 c 1,40,-1
 156 322 l 1,41,-1
 156 332 l 1,42,-1
 131 332 l 1,43,-1
 131 341 l 1,44,-1
 109 341 l 1,45,-1
 109 353 l 1,46,-1
 97 353 l 1,47,-1
 97 363 l 1,48,-1
 86 363 l 1,49,-1
 86 374 l 1,50,-1
 74 374 l 1,51,-1
 74 386 l 1,52,-1
 64 386 l 1,53,-1
 64 408 l 1,54,-1
 48 408 l 1,55,-1
 48 444 l 1,56,-1
 40 444 l 1,57,-1
 40 463 l 1,58,-1
 32 463 l 1,59,-1
 32 489 l 1,60,-1
 22 489 l 1,61,-1
 22 630 l 1,62,-1
 27 630 l 1,63,-1
 27 653 l 1,64,-1
 38 653 l 1,65,-1
 38 666 l 1,66,-1
 49 666 l 1,67,-1
 49 680 l 1,68,-1
 63 680 l 1,69,-1
 63 692 l 1,70,-1
 75 692 l 1,71,-1
 75 703 l 1,72,-1
 86 703 l 1,73,-1
 86 714 l 1,74,-1
 104 714 l 1,75,-1
 104 707 l 1,76,-1
 112 707 l 1,77,-1
 112 698 l 1,78,-1
 126 698 l 1,79,-1
 126 685 l 1,80,-1
 134 685 l 1,81,-1
 134 639 l 1,82,-1
 123 639 l 1,83,-1
 123 608 l 1,84,-1
 113 608 l 1,85,-1
 113 598 l 1,86,-1
 109 598 l 1,87,-1
 109 590 l 1,88,-1
 102 590 l 1,89,-1
 102 512 l 1,90,-1
 108 512 l 1,91,-1
 108 498 l 1,92,-1
 114 498 l 1,93,-1
 114 486 l 1,94,-1
 117 486 l 1,95,-1
 117 469 l 1,96,-1
 122 469 l 1,97,-1
 122 451 l 1,98,-1
 129 451 l 1,99,-1
 129 444 l 1,100,-1
 146 444 l 1,101,-1
 146 432 l 1,102,-1
 157 432 l 1,103,-1
 157 422 l 1,104,-1
 179 422 l 1,105,-1
 179 410 l 1,106,-1
 220 410 l 1,107,-1
 220 608 l 1,108,-1
 232 608 l 1,109,-1
 232 644 l 1,110,-1
 243 644 l 1,111,-1
 243 676 l 1,112,-1
 253 676 l 1,113,-1
 253 688 l 1,114,-1
 265 688 l 1,115,-1
 265 700 l 1,116,-1
 276 700 l 1,117,-1
 276 710 l 1,118,-1
 288 710 l 1,119,-1
 288 722 l 1,120,-1
 310 722 l 1,121,-1
 310 732 l 1,122,-1
 356 732 l 1,123,-1
 356 744 l 1,124,-1
 401 744 l 1,125,-1
 401 751 l 1,126,-1
 411 751 l 1,127,-1
 411 746 l 1,128,-1
 439 746 l 1,129,-1
 439 734 l 1,130,-1
 484 734 l 1,131,-1
 484 724 l 1,132,-1
 517 724 l 1,133,-1
 517 712 l 1,134,-1
 540 712 l 1,135,-1
 540 702 l 1,136,-1
 564 702 l 1,137,-1
 564 690 l 1,138,-1
 574 690 l 1,139,-1
 574 678 l 1,140,-1
 586 678 l 1,141,-1
 586 652 l 1,142,-1
 598 652 l 1,143,-1
 598 630 l 1,144,-1
 611 630 l 1,145,-1
 611 618 l 1,146,-1
 620 618 l 1,147,-1
 620 481 l 1,148,-1
 610 481 l 1,149,-1
 610 472 l 1,150,-1
 599 472 l 1,151,-1
 599 422 l 1,152,-1
 588 422 l 1,153,-1
 588 402 l 1,154,-1
 574 402 l 1,155,-1
 574 390 l 1,156,-1
 564 390 l 1,157,-1
 564 380 l 1,158,-1
 541 380 l 1,159,-1
 541 358 l 1,160,-1
 518 358 l 1,161,-1
 518 346 l 1,162,-1
 485 346 l 1,163,-1
 485 334 l 1,164,-1
 440 334 l 1,165,-1
 440 324 l 1,166,-1
 398 324 l 1,167,-1
 397 307 l 1,168,-1
 310 307 l 1,0,-1
311 396 m 1,169,-1
 411 395 l 1,170,-1
 411 406 l 1,171,-1
 467 406 l 1,172,-1
 467 419 l 1,173,-1
 490 419 l 1,174,-1
 490 429 l 1,175,-1
 505 429 l 1,176,-1
 505 442 l 1,177,-1
 515 442 l 1,178,-1
 515 451 l 1,179,-1
 523 451 l 1,180,-1
 523 488 l 1,181,-1
 531 488 l 1,182,-1
 531 518 l 1,183,-1
 540 518 l 1,184,-1
 540 578 l 1,185,-1
 534 578 l 1,186,-1
 534 602 l 1,187,-1
 523 602 l 1,188,-1
 523 624 l 1,189,-1
 511 624 l 1,190,-1
 511 634 l 1,191,-1
 501 634 l 1,192,-1
 501 646 l 1,193,-1
 489 646 l 1,194,-1
 489 656 l 1,195,-1
 462 656 l 1,196,-1
 462 666 l 1,197,-1
 411 666 l 1,198,-1
 411 672 l 1,199,-1
 401 672 l 1,200,-1
 401 666 l 1,201,-1
 366 666 l 1,202,-1
 366 654 l 1,203,-1
 344 654 l 1,204,-1
 344 644 l 1,205,-1
 333 644 l 1,206,-1
 333 632 l 1,207,-1
 321 632 l 1,208,-1
 321 608 l 1,209,-1
 310 608 l 1,210,-1
 311 396 l 1,169,-1
EndSplineSet
EndChar

StartChar: I
Encoding: 73 73 46
Width: 544
GlyphClass: 2
Flags: W
LayerCount: 2
Fore
SplineSet
133 730 m 1,0,-1
 133 740 l 1,1,-1
 153 740 l 1,2,-1
 153 747 l 1,3,-1
 197 747 l 1,4,-1
 198 739 l 1,5,-1
 228 739 l 1,6,-1
 228 746 l 1,7,-1
 304 746 l 1,8,-1
 304 741 l 1,9,-1
 319 741 l 1,10,-1
 319 735 l 1,11,-1
 339 735 l 1,12,-1
 339 726 l 1,13,-1
 374 726 l 1,14,-1
 374 714 l 1,15,-1
 385 714 l 1,16,-1
 385 705 l 1,17,-1
 397 705 l 1,18,-1
 397 692 l 1,19,-1
 408 692 l 1,20,-1
 408 680 l 1,21,-1
 419 680 l 1,22,-1
 419 670 l 1,23,-1
 428 670 l 1,24,-1
 428 662 l 1,25,-1
 437 662 l 1,26,-1
 437 650 l 1,27,-1
 448 650 l 1,28,-1
 448 628 l 1,29,-1
 460 628 l 1,30,-1
 460 617 l 1,31,-1
 471 617 l 1,32,-1
 471 594 l 1,33,-1
 483 594 l 1,34,-1
 483 583 l 1,35,-1
 493 583 l 1,36,-1
 493 561 l 1,37,-1
 505 561 l 1,38,-1
 505 539 l 1,39,-1
 516 539 l 1,40,-1
 516 479 l 1,41,-1
 522 480 l 1,42,-1
 522 170 l 1,43,-1
 505 170 l 1,44,-1
 505 146 l 1,45,-1
 493 146 l 1,46,-1
 493 124 l 1,47,-1
 482 124 l 1,48,-1
 482 101 l 1,49,-1
 470 101 l 1,50,-1
 470 91 l 1,51,-1
 460 91 l 1,52,-1
 460 68 l 1,53,-1
 448 68 l 1,54,-1
 448 57 l 1,55,-1
 425 57 l 1,56,-1
 425 45 l 1,57,-1
 414 45 l 1,58,-1
 414 35 l 1,59,-1
 392 35 l 1,60,-1
 392 23 l 1,61,-1
 359 23 l 1,62,-1
 359 12 l 1,63,-1
 324 12 l 1,64,-1
 324 0 l 1,65,-1
 229 0 l 1,66,-1
 229 11 l 1,67,-1
 174 11 l 1,68,-1
 174 22 l 1,69,-1
 151 22 l 1,70,-1
 151 34 l 1,71,-1
 129 34 l 1,72,-1
 129 44 l 1,73,-1
 118 44 l 1,74,-1
 118 56 l 1,75,-1
 89 56 l 1,76,-1
 89 68 l 1,77,-1
 77 68 l 1,78,-1
 77 91 l 1,79,-1
 67 91 l 1,80,-1
 67 101 l 1,81,-1
 55 101 l 1,82,-1
 55 124 l 1,83,-1
 44 124 l 1,84,-1
 44 158 l 1,85,-1
 34 158 l 1,86,-1
 34 192 l 1,87,-1
 22 192 l 1,88,-1
 22 315 l 1,89,-1
 34 315 l 1,90,-1
 34 350 l 1,91,-1
 44 350 l 1,92,-1
 44 372 l 1,93,-1
 55 372 l 1,94,-1
 55 395 l 1,95,-1
 67 395 l 1,96,-1
 67 418 l 1,97,-1
 77 418 l 1,98,-1
 77 428 l 1,99,-1
 89 428 l 1,100,-1
 89 439 l 1,101,-1
 100 439 l 1,102,-1
 100 451 l 1,103,-1
 112 451 l 1,104,-1
 112 461 l 1,105,-1
 123 461 l 1,106,-1
 123 473 l 1,107,-1
 145 473 l 1,108,-1
 145 484 l 1,109,-1
 180 484 l 1,110,-1
 180 496 l 1,111,-1
 336 496 l 1,112,-1
 336 484 l 1,113,-1
 359 484 l 1,114,-1
 359 473 l 1,115,-1
 381 473 l 1,116,-1
 381 461 l 1,117,-1
 404 461 l 1,118,-1
 404 450 l 1,119,-1
 438 450 l 1,120,-1
 438 479 l 1,121,-1
 427 479 l 1,122,-1
 427 502 l 1,123,-1
 415 502 l 1,124,-1
 415 539 l 1,125,-1
 404 539 l 1,126,-1
 404 562 l 1,127,-1
 382 562 l 1,128,-1
 382 584 l 1,129,-1
 368 584 l 1,130,-1
 368 595 l 1,131,-1
 357 595 l 1,132,-1
 357 606 l 1,133,-1
 345 606 l 1,134,-1
 345 620 l 1,135,-1
 334 620 l 1,136,-1
 334 632 l 1,137,-1
 324 632 l 1,138,-1
 324 644 l 1,139,-1
 306 644 l 1,140,-1
 306 652 l 1,141,-1
 281 652 l 1,142,-1
 281 662 l 1,143,-1
 223 662 l 1,144,-1
 223 667 l 1,145,-1
 145 667 l 1,146,-1
 144 655 l 1,147,-1
 132 655 l 1,148,-1
 132 644 l 1,149,-1
 116 644 l 1,150,-1
 116 618 l 1,151,-1
 103 618 l 1,152,-1
 103 598 l 1,153,-1
 64 598 l 1,154,-1
 64 616 l 1,155,-1
 48 616 l 1,156,-1
 48 632 l 1,157,-1
 29 632 l 1,158,-1
 29 669 l 1,159,-1
 44 669 l 1,160,-1
 44 689 l 1,161,-1
 64 689 l 1,162,-1
 64 702 l 1,163,-1
 77 702 l 1,164,-1
 77 717 l 1,165,-1
 90 717 l 1,166,-1
 90 730 l 1,167,-1
 133 730 l 1,0,-1
99 293 m 1,168,-1
 99 226 l 1,169,-1
 110 226 l 1,170,-1
 110 158 l 1,171,-1
 122 158 l 1,172,-1
 122 146 l 1,173,-1
 132 146 l 1,174,-1
 132 124 l 1,175,-1
 144 124 l 1,176,-1
 144 113 l 1,177,-1
 155 113 l 1,178,-1
 155 101 l 1,179,-1
 177 101 l 1,180,-1
 177 91 l 1,181,-1
 200 91 l 1,182,-1
 200 80 l 1,183,-1
 222 80 l 1,184,-1
 222 68 l 1,185,-1
 314 68 l 1,186,-1
 314 80 l 1,187,-1
 347 80 l 1,188,-1
 347 91 l 1,189,-1
 369 91 l 1,190,-1
 369 101 l 1,191,-1
 381 101 l 1,192,-1
 381 113 l 1,193,-1
 392 113 l 1,194,-1
 392 136 l 1,195,-1
 404 136 l 1,196,-1
 404 158 l 1,197,-1
 414 158 l 1,198,-1
 414 181 l 1,199,-1
 425 181 l 1,200,-1
 425 327 l 1,201,-1
 414 327 l 1,202,-1
 414 338 l 1,203,-1
 404 338 l 1,204,-1
 404 350 l 1,205,-1
 392 350 l 1,206,-1
 392 372 l 1,207,-1
 369 372 l 1,208,-1
 369 383 l 1,209,-1
 359 383 l 1,210,-1
 359 395 l 1,211,-1
 347 395 l 1,212,-1
 347 406 l 1,213,-1
 324 406 l 1,214,-1
 324 418 l 1,215,-1
 200 418 l 1,216,-1
 200 406 l 1,217,-1
 177 406 l 1,218,-1
 177 395 l 1,219,-1
 155 395 l 1,220,-1
 155 383 l 1,221,-1
 144 383 l 1,222,-1
 144 372 l 1,223,-1
 132 372 l 1,224,-1
 132 350 l 1,225,-1
 122 350 l 1,226,-1
 122 338 l 1,227,-1
 110 338 l 1,228,-1
 110 293 l 1,229,-1
 99 293 l 1,168,-1
EndSplineSet
EndChar

StartChar: J
Encoding: 74 74 47
Width: 533
GlyphClass: 2
Flags: W
LayerCount: 2
Fore
SplineSet
324 229 m 1,0,-1
 324 238 l 1,1,-1
 292 238 l 1,2,-1
 292 226 l 1,3,-1
 257 226 l 1,4,-1
 257 214 l 1,5,-1
 213 214 l 1,6,-1
 213 224 l 1,7,-1
 168 224 l 1,8,-1
 168 236 l 1,9,-1
 133 236 l 1,10,-1
 133 247 l 1,11,-1
 123 247 l 1,12,-1
 123 259 l 1,13,-1
 112 259 l 1,14,-1
 112 269 l 1,15,-1
 100 269 l 1,16,-1
 100 281 l 1,17,-1
 90 281 l 1,18,-1
 90 292 l 1,19,-1
 78 292 l 1,20,-1
 78 304 l 1,21,-1
 67 304 l 1,22,-1
 67 326 l 1,23,-1
 55 326 l 1,24,-1
 55 349 l 1,25,-1
 44 349 l 1,26,-1
 44 382 l 1,27,-1
 32 382 l 1,28,-1
 32 415 l 1,29,-1
 22 415 l 1,30,-1
 22 526 l 1,31,-1
 32 526 l 1,32,-1
 32 559 l 1,33,-1
 44 559 l 1,34,-1
 44 581 l 1,35,-1
 55 581 l 1,36,-1
 55 604 l 1,37,-1
 67 604 l 1,38,-1
 67 626 l 1,39,-1
 78 626 l 1,40,-1
 78 638 l 1,41,-1
 90 638 l 1,42,-1
 90 649 l 1,43,-1
 100 649 l 1,44,-1
 100 661 l 1,45,-1
 112 661 l 1,46,-1
 112 672 l 1,47,-1
 123 672 l 1,48,-1
 123 683 l 1,49,-1
 133 683 l 1,50,-1
 133 694 l 1,51,-1
 156 694 l 1,52,-1
 156 706 l 1,53,-1
 168 706 l 1,54,-1
 168 717 l 1,55,-1
 201 717 l 1,56,-1
 201 727 l 1,57,-1
 236 727 l 1,58,-1
 236 741 l 1,59,-1
 282 741 l 1,60,-1
 282 752 l 1,61,-1
 333 752 l 1,62,-1
 333 744 l 1,63,-1
 384 744 l 1,64,-1
 384 734 l 1,65,-1
 417 734 l 1,66,-1
 417 724 l 1,67,-1
 439 724 l 1,68,-1
 439 713 l 1,69,-1
 451 713 l 1,70,-1
 451 701 l 1,71,-1
 462 701 l 1,72,-1
 462 690 l 1,73,-1
 472 690 l 1,74,-1
 472 679 l 1,75,-1
 484 679 l 1,76,-1
 484 656 l 1,77,-1
 495 656 l 1,78,-1
 495 600 l 1,79,-1
 505 600 l 1,80,-1
 505 578 l 1,81,-1
 495 578 l 1,82,-1
 495 555 l 1,83,-1
 484 555 l 1,84,-1
 484 544 l 1,85,-1
 429 544 l 1,86,-1
 429 555 l 1,87,-1
 393 555 l 1,88,-1
 393 578 l 1,89,-1
 380 578 l 1,90,-1
 380 645 l 1,91,-1
 370 645 l 1,92,-1
 370 656 l 1,93,-1
 358 656 l 1,94,-1
 358 668 l 1,95,-1
 338 668 l 1,96,-1
 338 677 l 1,97,-1
 311 677 l 1,98,-1
 311 682 l 1,99,-1
 279 682 l 1,100,-1
 279 674 l 1,101,-1
 246 674 l 1,102,-1
 246 661 l 1,103,-1
 224 661 l 1,104,-1
 224 649 l 1,105,-1
 201 649 l 1,106,-1
 201 638 l 1,107,-1
 190 638 l 1,108,-1
 190 626 l 1,109,-1
 178 626 l 1,110,-1
 178 616 l 1,111,-1
 168 616 l 1,112,-1
 168 604 l 1,113,-1
 156 604 l 1,114,-1
 156 593 l 1,115,-1
 145 593 l 1,116,-1
 145 571 l 1,117,-1
 133 571 l 1,118,-1
 133 537 l 1,119,-1
 122 537 l 1,120,-1
 122 415 l 1,121,-1
 133 415 l 1,122,-1
 133 382 l 1,123,-1
 145 382 l 1,124,-1
 145 372 l 1,125,-1
 156 372 l 1,126,-1
 156 349 l 1,127,-1
 168 349 l 1,128,-1
 168 337 l 1,129,-1
 178 337 l 1,130,-1
 178 326 l 1,131,-1
 201 326 l 1,132,-1
 201 314 l 1,133,-1
 224 314 l 1,134,-1
 224 302 l 1,135,-1
 257 302 l 1,136,-1
 257 312 l 1,137,-1
 325 312 l 1,138,-1
 325 319 l 1,139,-1
 347 319 l 1,140,-1
 347 328 l 1,141,-1
 380 328 l 1,142,-1
 380 346 l 1,143,-1
 432 346 l 1,144,-1
 432 357 l 1,145,-1
 484 357 l 1,146,-1
 484 346 l 1,147,-1
 500 346 l 1,148,-1
 500 329 l 1,149,-1
 511 329 l 1,150,-1
 511 287 l 1,151,-1
 500 287 l 1,152,-1
 500 276 l 1,153,-1
 485 276 l 1,154,-1
 485 265 l 1,155,-1
 477 265 l 1,156,-1
 477 245 l 1,157,-1
 468 245 l 1,158,-1
 468 233 l 1,159,-1
 458 233 l 1,160,-1
 458 222 l 1,161,-1
 450 222 l 1,162,-1
 450 210 l 1,163,-1
 442 210 l 1,164,-1
 442 198 l 1,165,-1
 433 198 l 1,166,-1
 433 186 l 1,167,-1
 424 186 l 1,168,-1
 424 176 l 1,169,-1
 415 176 l 1,170,-1
 415 167 l 1,171,-1
 407 167 l 1,172,-1
 407 155 l 1,173,-1
 396 155 l 1,174,-1
 396 142 l 1,175,-1
 387 142 l 1,176,-1
 387 128 l 1,177,-1
 377 128 l 1,178,-1
 377 116 l 1,179,-1
 367 116 l 1,180,-1
 367 103 l 1,181,-1
 357 103 l 1,182,-1
 357 90 l 1,183,-1
 348 90 l 1,184,-1
 348 77 l 1,185,-1
 339 77 l 1,186,-1
 339 62 l 1,187,-1
 329 62 l 1,188,-1
 329 29 l 1,189,-1
 317 29 l 1,190,-1
 317 14 l 1,191,-1
 304 14 l 1,192,-1
 304 1 l 1,193,-1
 216 0 l 1,194,-1
 216 10 l 1,195,-1
 204 10 l 1,196,-1
 204 30 l 1,197,-1
 209 30 l 1,198,-1
 209 60 l 1,199,-1
 219 60 l 1,200,-1
 219 71 l 1,201,-1
 227 71 l 1,202,-1
 227 84 l 1,203,-1
 237 84 l 1,204,-1
 237 98 l 1,205,-1
 245 98 l 1,206,-1
 245 108 l 1,207,-1
 255 108 l 1,208,-1
 255 119 l 1,209,-1
 264 119 l 1,210,-1
 264 131 l 1,211,-1
 273 131 l 1,212,-1
 273 143 l 1,213,-1
 281 143 l 1,214,-1
 281 156 l 1,215,-1
 290 156 l 1,216,-1
 290 165 l 1,217,-1
 302 165 l 1,218,-1
 302 175 l 1,219,-1
 312 175 l 1,220,-1
 312 187 l 1,221,-1
 322 187 l 1,222,-1
 322 200 l 1,223,-1
 333 200 l 1,224,-1
 333 213 l 1,225,-1
 342 213 l 1,226,-1
 342 229 l 1,227,-1
 324 229 l 1,0,-1
EndSplineSet
EndChar

StartChar: K
Encoding: 75 75 48
Width: 691
GlyphClass: 2
Flags: W
LayerCount: 2
Fore
SplineSet
286 756 m 1,0,-1
 404 756 l 1,1,-1
 404 742 l 1,2,-1
 437 742 l 1,3,-1
 437 731 l 1,4,-1
 482 731 l 1,5,-1
 482 719 l 1,6,-1
 504 719 l 1,7,-1
 504 708 l 1,8,-1
 515 708 l 1,9,-1
 515 698 l 1,10,-1
 538 698 l 1,11,-1
 538 686 l 1,12,-1
 550 686 l 1,13,-1
 550 675 l 1,14,-1
 562 675 l 1,15,-1
 562 667 l 1,16,-1
 572 667 l 1,17,-1
 572 657 l 1,18,-1
 583 657 l 1,19,-1
 583 641 l 1,20,-1
 593 641 l 1,21,-1
 593 630 l 1,22,-1
 605 630 l 1,23,-1
 605 610 l 1,24,-1
 616 610 l 1,25,-1
 616 585 l 1,26,-1
 633 585 l 1,27,-1
 633 550 l 1,28,-1
 646 550 l 1,29,-1
 646 529 l 1,30,-1
 658 529 l 1,31,-1
 658 449 l 1,32,-1
 669 449 l 1,33,-1
 669 213 l 1,34,-1
 661 213 l 1,35,-1
 661 156 l 1,36,-1
 653 156 l 1,37,-1
 653 133 l 1,38,-1
 641 133 l 1,39,-1
 641 111 l 1,40,-1
 630 111 l 1,41,-1
 630 78 l 1,42,-1
 618 78 l 1,43,-1
 618 59 l 1,44,-1
 608 59 l 1,45,-1
 608 45 l 1,46,-1
 590 45 l 1,47,-1
 590 34 l 1,48,-1
 573 34 l 1,49,-1
 573 22 l 1,50,-1
 562 22 l 1,51,-1
 562 12 l 1,52,-1
 540 12 l 1,53,-1
 540 0 l 1,54,-1
 516 0 l 1,55,-1
 516 -11 l 1,56,-1
 448 -11 l 1,57,-1
 448 0 l 1,58,-1
 429 0 l 1,59,-1
 429 12 l 1,60,-1
 410 12 l 1,61,-1
 410 22 l 1,62,-1
 399 22 l 1,63,-1
 399 34 l 1,64,-1
 385 34 l 1,65,-1
 385 45 l 1,66,-1
 373 45 l 1,67,-1
 373 68 l 1,68,-1
 363 68 l 1,69,-1
 363 80 l 1,70,-1
 351 80 l 1,71,-1
 351 101 l 1,72,-1
 339 101 l 1,73,-1
 339 80 l 1,74,-1
 327 80 l 1,75,-1
 327 70 l 1,76,-1
 317 70 l 1,77,-1
 317 47 l 1,78,-1
 305 47 l 1,79,-1
 305 36 l 1,80,-1
 291 36 l 1,81,-1
 291 24 l 1,82,-1
 280 24 l 1,83,-1
 280 14 l 1,84,-1
 261 14 l 1,85,-1
 261 2 l 1,86,-1
 242 2 l 1,87,-1
 242 -9 l 1,88,-1
 174 -9 l 1,89,-1
 174 2 l 1,90,-1
 150 2 l 1,91,-1
 150 14 l 1,92,-1
 128 14 l 1,93,-1
 128 24 l 1,94,-1
 117 24 l 1,95,-1
 117 36 l 1,96,-1
 100 36 l 1,97,-1
 100 47 l 1,98,-1
 82 47 l 1,99,-1
 82 62 l 1,100,-1
 72 62 l 1,101,-1
 72 80 l 1,102,-1
 60 80 l 1,103,-1
 60 113 l 1,104,-1
 49 113 l 1,105,-1
 49 135 l 1,106,-1
 37 135 l 1,107,-1
 37 158 l 1,108,-1
 27 158 l 1,109,-1
 27 215 l 1,110,-1
 22 215 l 1,111,-1
 22 451 l 1,112,-1
 40 451 l 1,113,-1
 40 531 l 1,114,-1
 52 531 l 1,115,-1
 52 552 l 1,116,-1
 62 552 l 1,117,-1
 62 587 l 1,118,-1
 74 587 l 1,119,-1
 74 614 l 1,120,-1
 85 614 l 1,121,-1
 85 629 l 1,122,-1
 97 629 l 1,123,-1
 97 643 l 1,124,-1
 107 643 l 1,125,-1
 107 655 l 1,126,-1
 118 655 l 1,127,-1
 118 667 l 1,128,-1
 129 667 l 1,129,-1
 129 677 l 1,130,-1
 140 677 l 1,131,-1
 140 688 l 1,132,-1
 152 688 l 1,133,-1
 152 700 l 1,134,-1
 175 700 l 1,135,-1
 175 710 l 1,136,-1
 186 710 l 1,137,-1
 186 721 l 1,138,-1
 208 721 l 1,139,-1
 208 733 l 1,140,-1
 253 733 l 1,141,-1
 253 744 l 1,142,-1
 286 744 l 1,143,-1
 286 756 l 1,0,-1
316 393 m 1,144,-1
 373 393 l 1,145,-1
 373 367 l 1,146,-1
 385 367 l 1,147,-1
 385 213 l 1,148,-1
 394 213 l 1,149,-1
 394 182 l 1,150,-1
 406 182 l 1,151,-1
 406 133 l 1,152,-1
 416 133 l 1,153,-1
 416 111 l 1,154,-1
 428 111 l 1,155,-1
 428 100 l 1,156,-1
 439 100 l 1,157,-1
 439 78 l 1,158,-1
 452 78 l 1,159,-1
 452 68 l 1,160,-1
 466 68 l 1,161,-1
 466 57 l 1,162,-1
 504 57 l 1,163,-1
 504 68 l 1,164,-1
 517 68 l 1,165,-1
 517 78 l 1,166,-1
 529 78 l 1,167,-1
 529 100 l 1,168,-1
 540 100 l 1,169,-1
 540 123 l 1,170,-1
 552 123 l 1,171,-1
 552 145 l 1,172,-1
 558 145 l 1,173,-1
 558 168 l 1,174,-1
 564 168 l 1,175,-1
 564 472 l 1,176,-1
 550 472 l 1,177,-1
 550 517 l 1,178,-1
 538 517 l 1,179,-1
 538 550 l 1,180,-1
 527 550 l 1,181,-1
 527 573 l 1,182,-1
 515 573 l 1,183,-1
 515 596 l 1,184,-1
 504 596 l 1,185,-1
 504 618 l 1,186,-1
 492 618 l 1,187,-1
 492 630 l 1,188,-1
 482 630 l 1,189,-1
 482 641 l 1,190,-1
 470 641 l 1,191,-1
 470 653 l 1,192,-1
 437 653 l 1,193,-1
 437 663 l 1,194,-1
 404 663 l 1,195,-1
 404 676 l 1,196,-1
 286 676 l 1,197,-1
 286 665 l 1,198,-1
 253 665 l 1,199,-1
 253 655 l 1,200,-1
 220 655 l 1,201,-1
 220 643 l 1,202,-1
 208 643 l 1,203,-1
 208 632 l 1,204,-1
 198 632 l 1,205,-1
 198 620 l 1,206,-1
 186 620 l 1,207,-1
 186 598 l 1,208,-1
 175 598 l 1,209,-1
 175 575 l 1,210,-1
 163 575 l 1,211,-1
 163 552 l 1,212,-1
 152 552 l 1,213,-1
 152 519 l 1,214,-1
 140 519 l 1,215,-1
 140 474 l 1,216,-1
 124 474 l 1,217,-1
 124 170 l 1,218,-1
 128 170 l 1,219,-1
 128 147 l 1,220,-1
 138 147 l 1,221,-1
 138 125 l 1,222,-1
 150 125 l 1,223,-1
 150 102 l 1,224,-1
 161 102 l 1,225,-1
 161 80 l 1,226,-1
 173 80 l 1,227,-1
 173 70 l 1,228,-1
 186 70 l 1,229,-1
 186 59 l 1,230,-1
 224 59 l 1,231,-1
 224 70 l 1,232,-1
 238 70 l 1,233,-1
 238 80 l 1,234,-1
 251 80 l 1,235,-1
 251 102 l 1,236,-1
 262 102 l 1,237,-1
 262 113 l 1,238,-1
 274 113 l 1,239,-1
 274 135 l 1,240,-1
 284 135 l 1,241,-1
 284 175 l 1,242,-1
 296 175 l 1,243,-1
 296 215 l 1,244,-1
 305 215 l 1,245,-1
 305 369 l 1,246,-1
 316 369 l 1,247,-1
 316 393 l 1,144,-1
EndSplineSet
EndChar

StartChar: L
Encoding: 76 76 49
Width: 634
GlyphClass: 2
Flags: W
LayerCount: 2
Fore
SplineSet
310 728 m 1,0,-1
 319 728 l 1,1,-1
 319 693 l 1,2,-1
 310 693 l 1,3,-1
 310 683 l 1,4,-1
 294 683 l 1,5,-1
 294 671 l 1,6,-1
 261 671 l 1,7,-1
 261 660 l 1,8,-1
 238 660 l 1,9,-1
 238 136 l 1,10,-1
 249 136 l 1,11,-1
 249 113 l 1,12,-1
 261 113 l 1,13,-1
 261 101 l 1,14,-1
 272 101 l 1,15,-1
 272 91 l 1,16,-1
 294 91 l 1,17,-1
 294 79 l 1,18,-1
 329 79 l 1,19,-1
 329 68 l 1,20,-1
 339 68 l 1,21,-1
 339 79 l 1,22,-1
 440 79 l 1,23,-1
 440 91 l 1,24,-1
 463 91 l 1,25,-1
 463 101 l 1,26,-1
 475 101 l 1,27,-1
 475 113 l 1,28,-1
 485 113 l 1,29,-1
 485 124 l 1,30,-1
 497 124 l 1,31,-1
 497 146 l 1,32,-1
 508 146 l 1,33,-1
 508 169 l 1,34,-1
 518 169 l 1,35,-1
 518 192 l 1,36,-1
 530 192 l 1,37,-1
 530 204 l 1,38,-1
 553 204 l 1,39,-1
 553 214 l 1,40,-1
 564 214 l 1,41,-1
 564 204 l 1,42,-1
 598 204 l 1,43,-1
 598 192 l 1,44,-1
 612 192 l 1,45,-1
 612 113 l 1,46,-1
 598 113 l 1,47,-1
 598 68 l 1,48,-1
 586 68 l 1,49,-1
 586 56 l 1,50,-1
 576 56 l 1,51,-1
 576 45 l 1,52,-1
 541 45 l 1,53,-1
 541 35 l 1,54,-1
 518 35 l 1,55,-1
 518 23 l 1,56,-1
 485 23 l 1,57,-1
 485 12 l 1,58,-1
 440 12 l 1,59,-1
 440 0 l 1,60,-1
 339 0 l 1,61,-1
 339 -10 l 1,62,-1
 329 -10 l 1,63,-1
 329 0 l 1,64,-1
 284 0 l 1,65,-1
 284 12 l 1,66,-1
 238 12 l 1,67,-1
 238 23 l 1,68,-1
 216 23 l 1,69,-1
 216 35 l 1,70,-1
 204 35 l 1,71,-1
 204 45 l 1,72,-1
 193 45 l 1,73,-1
 193 56 l 1,74,-1
 181 56 l 1,75,-1
 181 68 l 1,76,-1
 171 68 l 1,77,-1
 171 101 l 1,78,-1
 160 101 l 1,79,-1
 160 136 l 1,80,-1
 148 136 l 1,81,-1
 148 469 l 1,82,-1
 160 469 l 1,83,-1
 160 479 l 1,84,-1
 148 479 l 1,85,-1
 148 525 l 1,86,-1
 160 525 l 1,87,-1
 160 660 l 1,88,-1
 148 660 l 1,89,-1
 148 671 l 1,90,-1
 138 671 l 1,91,-1
 138 683 l 1,92,-1
 79 683 l 1,93,-1
 79 671 l 1,94,-1
 67 671 l 1,95,-1
 67 683 l 1,96,-1
 45 683 l 1,97,-1
 45 693 l 1,98,-1
 34 693 l 1,99,-1
 34 716 l 1,100,-1
 22 716 l 1,101,-1
 22 728 l 1,102,-1
 34 728 l 1,103,-1
 34 738 l 1,104,-1
 45 738 l 1,105,-1
 45 749 l 1,106,-1
 310 749 l 1,107,-1
 310 728 l 1,0,-1
EndSplineSet
EndChar

StartChar: M
Encoding: 77 77 50
Width: 596
GlyphClass: 2
Flags: W
LayerCount: 2
Fore
SplineSet
338 3 m 1,0,-1
 338 -9 l 1,1,-1
 214 -9 l 1,2,-1
 214 3 l 1,3,-1
 157 3 l 1,4,-1
 157 14 l 1,5,-1
 56 14 l 1,6,-1
 56 24 l 1,7,-1
 46 24 l 1,8,-1
 46 47 l 1,9,-1
 34 47 l 1,10,-1
 34 69 l 1,11,-1
 22 69 l 1,12,-1
 22 156 l 1,13,-1
 34 156 l 1,14,-1
 34 179 l 1,15,-1
 46 179 l 1,16,-1
 46 190 l 1,17,-1
 56 190 l 1,18,-1
 56 201 l 1,19,-1
 102 201 l 1,20,-1
 102 190 l 1,21,-1
 112 190 l 1,22,-1
 112 167 l 1,23,-1
 124 167 l 1,24,-1
 124 137 l 1,25,-1
 135 137 l 1,26,-1
 135 115 l 1,27,-1
 147 115 l 1,28,-1
 147 104 l 1,29,-1
 157 104 l 1,30,-1
 157 92 l 1,31,-1
 190 92 l 1,32,-1
 190 81 l 1,33,-1
 218 81 l 1,34,-1
 218 69 l 1,35,-1
 244 69 l 1,36,-1
 244 63 l 1,37,-1
 290 63 l 1,38,-1
 290 69 l 1,39,-1
 326 69 l 1,40,-1
 326 81 l 1,41,-1
 348 81 l 1,42,-1
 348 92 l 1,43,-1
 371 92 l 1,44,-1
 371 104 l 1,45,-1
 383 104 l 1,46,-1
 383 115 l 1,47,-1
 394 115 l 1,48,-1
 394 126 l 1,49,-1
 406 126 l 1,50,-1
 406 149 l 1,51,-1
 416 149 l 1,52,-1
 416 160 l 1,53,-1
 428 160 l 1,54,-1
 428 182 l 1,55,-1
 439 182 l 1,56,-1
 439 216 l 1,57,-1
 449 216 l 1,58,-1
 449 261 l 1,59,-1
 461 261 l 1,60,-1
 461 362 l 1,61,-1
 472 362 l 1,62,-1
 472 396 l 1,63,-1
 461 396 l 1,64,-1
 461 487 l 1,65,-1
 449 487 l 1,66,-1
 449 530 l 1,67,-1
 439 530 l 1,68,-1
 439 565 l 1,69,-1
 428 565 l 1,70,-1
 428 576 l 1,71,-1
 416 576 l 1,72,-1
 416 598 l 1,73,-1
 406 598 l 1,74,-1
 406 610 l 1,75,-1
 394 610 l 1,76,-1
 394 621 l 1,77,-1
 383 621 l 1,78,-1
 383 633 l 1,79,-1
 360 633 l 1,80,-1
 360 643 l 1,81,-1
 338 643 l 1,82,-1
 338 655 l 1,83,-1
 315 655 l 1,84,-1
 315 666 l 1,85,-1
 283 666 l 1,86,-1
 283 675 l 1,87,-1
 239 675 l 1,88,-1
 239 666 l 1,89,-1
 214 666 l 1,90,-1
 214 655 l 1,91,-1
 192 655 l 1,92,-1
 192 643 l 1,93,-1
 169 643 l 1,94,-1
 169 633 l 1,95,-1
 157 633 l 1,96,-1
 157 621 l 1,97,-1
 147 621 l 1,98,-1
 147 598 l 1,99,-1
 135 598 l 1,100,-1
 135 588 l 1,101,-1
 124 588 l 1,102,-1
 124 542 l 1,103,-1
 112 542 l 1,104,-1
 112 509 l 1,105,-1
 102 509 l 1,106,-1
 102 497 l 1,107,-1
 91 497 l 1,108,-1
 91 487 l 1,109,-1
 56 487 l 1,110,-1
 56 497 l 1,111,-1
 34 497 l 1,112,-1
 34 506 l 1,113,-1
 26 506 l 1,114,-1
 26 630 l 1,115,-1
 34 630 l 1,116,-1
 34 643 l 1,117,-1
 46 643 l 1,118,-1
 46 655 l 1,119,-1
 56 655 l 1,120,-1
 56 666 l 1,121,-1
 68 666 l 1,122,-1
 68 678 l 1,123,-1
 91 678 l 1,124,-1
 91 689 l 1,125,-1
 102 689 l 1,126,-1
 102 699 l 1,127,-1
 124 699 l 1,128,-1
 124 711 l 1,129,-1
 147 711 l 1,130,-1
 147 722 l 1,131,-1
 192 722 l 1,132,-1
 192 734 l 1,133,-1
 237 734 l 1,134,-1
 237 744 l 1,135,-1
 303 744 l 1,136,-1
 303 734 l 1,137,-1
 360 734 l 1,138,-1
 360 722 l 1,139,-1
 394 722 l 1,140,-1
 394 711 l 1,141,-1
 416 711 l 1,142,-1
 416 699 l 1,143,-1
 439 699 l 1,144,-1
 439 689 l 1,145,-1
 449 689 l 1,146,-1
 449 678 l 1,147,-1
 461 678 l 1,148,-1
 461 666 l 1,149,-1
 472 666 l 1,150,-1
 472 655 l 1,151,-1
 484 655 l 1,152,-1
 484 643 l 1,153,-1
 494 643 l 1,154,-1
 494 621 l 1,155,-1
 506 621 l 1,156,-1
 506 610 l 1,157,-1
 517 610 l 1,158,-1
 517 598 l 1,159,-1
 529 598 l 1,160,-1
 529 565 l 1,161,-1
 540 565 l 1,162,-1
 540 542 l 1,163,-1
 552 542 l 1,164,-1
 552 509 l 1,165,-1
 562 509 l 1,166,-1
 562 452 l 1,167,-1
 574 452 l 1,168,-1
 574 295 l 1,169,-1
 562 295 l 1,170,-1
 562 250 l 1,171,-1
 552 250 l 1,172,-1
 552 216 l 1,173,-1
 540 216 l 1,174,-1
 540 182 l 1,175,-1
 529 182 l 1,176,-1
 529 160 l 1,177,-1
 517 160 l 1,178,-1
 517 137 l 1,179,-1
 506 137 l 1,180,-1
 506 126 l 1,181,-1
 494 126 l 1,182,-1
 494 104 l 1,183,-1
 484 104 l 1,184,-1
 484 92 l 1,185,-1
 472 92 l 1,186,-1
 472 81 l 1,187,-1
 461 81 l 1,188,-1
 461 69 l 1,189,-1
 449 69 l 1,190,-1
 449 59 l 1,191,-1
 439 59 l 1,192,-1
 439 47 l 1,193,-1
 428 47 l 1,194,-1
 428 36 l 1,195,-1
 406 36 l 1,196,-1
 406 24 l 1,197,-1
 394 24 l 1,198,-1
 394 14 l 1,199,-1
 371 14 l 1,200,-1
 371 3 l 1,201,-1
 338 3 l 1,0,-1
EndSplineSet
EndChar

StartChar: N
Encoding: 78 78 51
Width: 559
GlyphClass: 2
Flags: W
LayerCount: 2
Fore
SplineSet
250 425 m 1,0,-1
 250 439 l 1,1,-1
 261 439 l 1,2,-1
 261 456 l 1,3,-1
 272 456 l 1,4,-1
 272 482 l 1,5,-1
 284 482 l 1,6,-1
 284 510 l 1,7,-1
 294 510 l 1,8,-1
 294 553 l 1,9,-1
 305 553 l 1,10,-1
 305 567 l 1,11,-1
 343 567 l 1,12,-1
 343 581 l 1,13,-1
 410 581 l 1,14,-1
 410 596 l 1,15,-1
 484 596 l 1,16,-1
 484 582 l 1,17,-1
 496 582 l 1,18,-1
 496 562 l 1,19,-1
 484 562 l 1,20,-1
 484 489 l 1,21,-1
 463 489 l 1,22,-1
 463 472 l 1,23,-1
 442 472 l 1,24,-1
 442 114 l 1,25,-1
 460 114 l 1,26,-1
 460 93 l 1,27,-1
 519 93 l 1,28,-1
 519 73 l 1,29,-1
 530 73 l 1,30,-1
 530 59 l 1,31,-1
 537 59 l 1,32,-1
 537 44 l 1,33,-1
 530 44 l 1,34,-1
 530 4 l 1,35,-1
 514 4 l 1,36,-1
 514 -9 l 1,37,-1
 298 -9 l 1,38,-1
 298 3 l 1,39,-1
 233 3 l 1,40,-1
 233 57 l 1,41,-1
 243 57 l 1,42,-1
 243 71 l 1,43,-1
 255 71 l 1,44,-1
 255 85 l 1,45,-1
 298 85 l 1,46,-1
 298 98 l 1,47,-1
 344 98 l 1,48,-1
 344 112 l 1,49,-1
 354 112 l 1,50,-1
 354 166 l 1,51,-1
 364 166 l 1,52,-1
 364 274 l 1,53,-1
 372 274 l 1,54,-1
 372 317 l 1,55,-1
 364 317 l 1,56,-1
 364 411 l 1,57,-1
 356 411 l 1,58,-1
 356 432 l 1,59,-1
 336 432 l 1,60,-1
 336 411 l 1,61,-1
 322 411 l 1,62,-1
 322 394 l 1,63,-1
 311 394 l 1,64,-1
 311 380 l 1,65,-1
 299 380 l 1,66,-1
 299 362 l 1,67,-1
 288 362 l 1,68,-1
 288 345 l 1,69,-1
 275 345 l 1,70,-1
 275 329 l 1,71,-1
 264 329 l 1,72,-1
 264 302 l 1,73,-1
 252 302 l 1,74,-1
 252 279 l 1,75,-1
 240 279 l 1,76,-1
 240 253 l 1,77,-1
 229 253 l 1,78,-1
 229 225 l 1,79,-1
 218 225 l 1,80,-1
 218 200 l 1,81,-1
 207 200 l 1,82,-1
 207 185 l 1,83,-1
 195 185 l 1,84,-1
 195 172 l 1,85,-1
 185 172 l 1,86,-1
 185 132 l 1,87,-1
 110 132 l 1,88,-1
 110 145 l 1,89,-1
 86 145 l 1,90,-1
 86 407 l 1,91,-1
 77 407 l 1,92,-1
 77 542 l 1,93,-1
 89 542 l 1,94,-1
 89 571 l 1,95,-1
 77 571 l 1,96,-1
 77 650 l 1,97,-1
 55 650 l 1,98,-1
 55 663 l 1,99,-1
 33 663 l 1,100,-1
 33 674 l 1,101,-1
 22 674 l 1,102,-1
 22 733 l 1,103,-1
 33 733 l 1,104,-1
 33 739 l 1,105,-1
 262 739 l 1,106,-1
 262 720 l 1,107,-1
 272 720 l 1,108,-1
 272 670 l 1,109,-1
 250 670 l 1,110,-1
 250 657 l 1,111,-1
 228 657 l 1,112,-1
 228 645 l 1,113,-1
 185 645 l 1,114,-1
 185 626 l 1,115,-1
 173 626 l 1,116,-1
 173 598 l 1,117,-1
 169 598 l 1,118,-1
 169 507 l 1,119,-1
 163 507 l 1,120,-1
 163 347 l 1,121,-1
 179 347 l 1,122,-1
 179 367 l 1,123,-1
 198 367 l 1,124,-1
 198 379 l 1,125,-1
 212 379 l 1,126,-1
 212 394 l 1,127,-1
 226 394 l 1,128,-1
 226 410 l 1,129,-1
 239 410 l 1,130,-1
 239 425 l 1,131,-1
 250 425 l 1,0,-1
EndSplineSet
EndChar

StartChar: O
Encoding: 79 79 52
Width: 628
GlyphClass: 2
Flags: W
LayerCount: 2
Fore
SplineSet
493 249 m 1,0,-1
 493 328 l 1,1,-1
 505 328 l 1,2,-1
 505 429 l 1,3,-1
 493 429 l 1,4,-1
 493 497 l 1,5,-1
 483 497 l 1,6,-1
 483 542 l 1,7,-1
 471 542 l 1,8,-1
 471 552 l 1,9,-1
 460 552 l 1,10,-1
 460 575 l 1,11,-1
 448 575 l 1,12,-1
 448 598 l 1,13,-1
 437 598 l 1,14,-1
 437 620 l 1,15,-1
 427 620 l 1,16,-1
 427 632 l 1,17,-1
 404 632 l 1,18,-1
 404 643 l 1,19,-1
 382 643 l 1,20,-1
 382 655 l 1,21,-1
 359 655 l 1,22,-1
 359 665 l 1,23,-1
 325 665 l 1,24,-1
 325 677 l 1,25,-1
 279 677 l 1,26,-1
 279 665 l 1,27,-1
 246 665 l 1,28,-1
 246 655 l 1,29,-1
 213 655 l 1,30,-1
 213 643 l 1,31,-1
 201 643 l 1,32,-1
 201 632 l 1,33,-1
 191 632 l 1,34,-1
 191 620 l 1,35,-1
 179 620 l 1,36,-1
 179 598 l 1,37,-1
 168 598 l 1,38,-1
 168 575 l 1,39,-1
 156 575 l 1,40,-1
 156 552 l 1,41,-1
 145 552 l 1,42,-1
 145 519 l 1,43,-1
 133 519 l 1,44,-1
 133 474 l 1,45,-1
 123 474 l 1,46,-1
 123 272 l 1,47,-1
 133 272 l 1,48,-1
 133 227 l 1,49,-1
 145 227 l 1,50,-1
 145 194 l 1,51,-1
 156 194 l 1,52,-1
 156 171 l 1,53,-1
 168 171 l 1,54,-1
 168 148 l 1,55,-1
 179 148 l 1,56,-1
 179 136 l 1,57,-1
 191 136 l 1,58,-1
 191 126 l 1,59,-1
 201 126 l 1,60,-1
 201 114 l 1,61,-1
 213 114 l 1,62,-1
 213 103 l 1,63,-1
 236 103 l 1,64,-1
 236 91 l 1,65,-1
 258 91 l 1,66,-1
 258 81 l 1,67,-1
 291 81 l 1,68,-1
 291 69 l 1,69,-1
 325 69 l 1,70,-1
 325 81 l 1,71,-1
 370 81 l 1,72,-1
 370 91 l 1,73,-1
 392 91 l 1,74,-1
 392 103 l 1,75,-1
 415 103 l 1,76,-1
 415 114 l 1,77,-1
 427 114 l 1,78,-1
 427 126 l 1,79,-1
 437 126 l 1,80,-1
 437 148 l 1,81,-1
 448 148 l 1,82,-1
 448 159 l 1,83,-1
 460 159 l 1,84,-1
 460 182 l 1,85,-1
 471 182 l 1,86,-1
 471 204 l 1,87,-1
 483 204 l 1,88,-1
 483 249 l 1,89,-1
 493 249 l 1,0,-1
279 744 m 1,90,-1
 279 756 l 1,91,-1
 314 756 l 1,92,-1
 314 744 l 1,93,-1
 382 744 l 1,94,-1
 382 733 l 1,95,-1
 427 733 l 1,96,-1
 427 721 l 1,97,-1
 448 721 l 1,98,-1
 448 710 l 1,99,-1
 460 710 l 1,100,-1
 460 700 l 1,101,-1
 471 700 l 1,102,-1
 471 688 l 1,103,-1
 493 688 l 1,104,-1
 493 677 l 1,105,-1
 505 677 l 1,106,-1
 505 655 l 1,107,-1
 516 655 l 1,108,-1
 516 643 l 1,109,-1
 528 643 l 1,110,-1
 528 632 l 1,111,-1
 538 632 l 1,112,-1
 538 620 l 1,113,-1
 550 620 l 1,114,-1
 550 598 l 1,115,-1
 561 598 l 1,116,-1
 561 564 l 1,117,-1
 573 564 l 1,118,-1
 573 542 l 1,119,-1
 583 542 l 1,120,-1
 583 497 l 1,121,-1
 595 497 l 1,122,-1
 595 441 l 1,123,-1
 606 441 l 1,124,-1
 606 305 l 1,125,-1
 595 305 l 1,126,-1
 595 249 l 1,127,-1
 583 249 l 1,128,-1
 583 194 l 1,129,-1
 573 194 l 1,130,-1
 573 171 l 1,131,-1
 561 171 l 1,132,-1
 561 148 l 1,133,-1
 550 148 l 1,134,-1
 550 126 l 1,135,-1
 538 126 l 1,136,-1
 538 103 l 1,137,-1
 528 103 l 1,138,-1
 528 91 l 1,139,-1
 505 91 l 1,140,-1
 505 81 l 1,141,-1
 493 81 l 1,142,-1
 493 69 l 1,143,-1
 483 69 l 1,144,-1
 483 58 l 1,145,-1
 471 58 l 1,146,-1
 471 46 l 1,147,-1
 460 46 l 1,148,-1
 460 35 l 1,149,-1
 437 35 l 1,150,-1
 437 25 l 1,151,-1
 415 25 l 1,152,-1
 415 13 l 1,153,-1
 347 13 l 1,154,-1
 347 2 l 1,155,-1
 246 2 l 1,156,-1
 246 13 l 1,157,-1
 201 13 l 1,158,-1
 201 25 l 1,159,-1
 179 25 l 1,160,-1
 179 35 l 1,161,-1
 156 35 l 1,162,-1
 156 46 l 1,163,-1
 133 46 l 1,164,-1
 133 58 l 1,165,-1
 123 58 l 1,166,-1
 123 69 l 1,167,-1
 111 69 l 1,168,-1
 111 91 l 1,169,-1
 100 91 l 1,170,-1
 100 103 l 1,171,-1
 90 103 l 1,172,-1
 90 114 l 1,173,-1
 78 114 l 1,174,-1
 78 136 l 1,175,-1
 67 136 l 1,176,-1
 67 148 l 1,177,-1
 55 148 l 1,178,-1
 55 182 l 1,179,-1
 45 182 l 1,180,-1
 45 215 l 1,181,-1
 33 215 l 1,182,-1
 33 260 l 1,183,-1
 22 260 l 1,184,-1
 22 451 l 1,185,-1
 33 451 l 1,186,-1
 33 531 l 1,187,-1
 45 531 l 1,188,-1
 45 552 l 1,189,-1
 55 552 l 1,190,-1
 55 587 l 1,191,-1
 67 587 l 1,192,-1
 67 598 l 1,193,-1
 78 598 l 1,194,-1
 78 632 l 1,195,-1
 90 632 l 1,196,-1
 90 643 l 1,197,-1
 100 643 l 1,198,-1
 100 655 l 1,199,-1
 111 655 l 1,200,-1
 111 677 l 1,201,-1
 133 677 l 1,202,-1
 133 688 l 1,203,-1
 145 688 l 1,204,-1
 145 700 l 1,205,-1
 168 700 l 1,206,-1
 168 710 l 1,207,-1
 179 710 l 1,208,-1
 179 721 l 1,209,-1
 201 721 l 1,210,-1
 201 733 l 1,211,-1
 246 733 l 1,212,-1
 246 744 l 1,213,-1
 279 744 l 1,90,-1
EndSplineSet
Substitution2: "Single Substitution lookup 10 subtable" ordmasculine
Substitution2: "'aalt' Access All Alternates in Latin lookup 0 subtable" ordmasculine
EndChar

StartChar: P
Encoding: 80 80 53
Width: 674
GlyphClass: 2
Flags: W
LayerCount: 2
Fore
SplineSet
629 -5 m 1,0,-1
 337 -5 l 1,1,-1
 337 7 l 1,2,-1
 314 7 l 1,3,-1
 314 28 l 1,4,-1
 304 28 l 1,5,-1
 304 40 l 1,6,-1
 314 40 l 1,7,-1
 314 51 l 1,8,-1
 326 51 l 1,9,-1
 326 63 l 1,10,-1
 349 63 l 1,11,-1
 349 73 l 1,12,-1
 405 73 l 1,13,-1
 405 85 l 1,14,-1
 415 85 l 1,15,-1
 415 96 l 1,16,-1
 427 96 l 1,17,-1
 427 153 l 1,18,-1
 415 153 l 1,19,-1
 415 186 l 1,20,-1
 427 186 l 1,21,-1
 427 220 l 1,22,-1
 415 220 l 1,23,-1
 415 265 l 1,24,-1
 427 265 l 1,25,-1
 427 625 l 1,26,-1
 415 625 l 1,27,-1
 415 647 l 1,28,-1
 393 647 l 1,29,-1
 393 659 l 1,30,-1
 269 659 l 1,31,-1
 269 647 l 1,32,-1
 180 647 l 1,33,-1
 180 637 l 1,34,-1
 146 637 l 1,35,-1
 146 625 l 1,36,-1
 123 625 l 1,37,-1
 123 569 l 1,38,-1
 113 569 l 1,39,-1
 112 543 l 1,40,-1
 100 543 l 1,41,-1
 100 533 l 1,42,-1
 44 533 l 1,43,-1
 44 543 l 1,44,-1
 32 543 l 1,45,-1
 33 659 l 1,46,-1
 22 659 l 1,47,-1
 22 693 l 1,48,-1
 33 693 l 1,49,-1
 33 726 l 1,50,-1
 56 726 l 1,51,-1
 56 738 l 1,52,-1
 135 738 l 1,53,-1
 135 726 l 1,54,-1
 596 726 l 1,55,-1
 596 715 l 1,56,-1
 618 715 l 1,57,-1
 618 693 l 1,58,-1
 629 693 l 1,59,-1
 629 682 l 1,60,-1
 618 682 l 1,61,-1
 618 670 l 1,62,-1
 606 670 l 1,63,-1
 606 659 l 1,64,-1
 596 659 l 1,65,-1
 596 647 l 1,66,-1
 528 647 l 1,67,-1
 528 637 l 1,68,-1
 518 637 l 1,69,-1
 518 589 l 1,70,-1
 510 589 l 1,71,-1
 510 509 l 1,72,-1
 518 509 l 1,73,-1
 518 164 l 1,74,-1
 506 164 l 1,75,-1
 506 96 l 1,76,-1
 518 96 l 1,77,-1
 518 85 l 1,78,-1
 528 85 l 1,79,-1
 528 73 l 1,80,-1
 629 73 l 1,81,-1
 629 63 l 1,82,-1
 652 63 l 1,83,-1
 652 7 l 1,84,-1
 629 7 l 1,85,-1
 629 -5 l 1,0,-1
EndSplineSet
EndChar

StartChar: Q
Encoding: 81 81 54
Width: 652
GlyphClass: 2
Flags: W
LayerCount: 2
Fore
SplineSet
517 260 m 1,0,-1
 517 328 l 1,1,-1
 528 328 l 1,2,-1
 528 406 l 1,3,-1
 517 406 l 1,4,-1
 517 484 l 1,5,-1
 505 484 l 1,6,-1
 505 519 l 1,7,-1
 495 519 l 1,8,-1
 495 552 l 1,9,-1
 484 552 l 1,10,-1
 484 564 l 1,11,-1
 472 564 l 1,12,-1
 472 585 l 1,13,-1
 461 585 l 1,14,-1
 461 597 l 1,15,-1
 449 597 l 1,16,-1
 449 620 l 1,17,-1
 416 619 l 1,18,-1
 416 630 l 1,19,-1
 406 630 l 1,20,-1
 406 641 l 1,21,-1
 394 641 l 1,22,-1
 394 652 l 1,23,-1
 384 652 l 1,24,-1
 384 664 l 1,25,-1
 338 664 l 1,26,-1
 338 675 l 1,27,-1
 226 675 l 1,28,-1
 226 664 l 1,29,-1
 225 665 l 1,30,-1
 225 653 l 1,31,-1
 213 653 l 1,32,-1
 213 272 l 1,33,-1
 203 272 l 1,34,-1
 203 237 l 1,35,-1
 213 237 l 1,36,-1
 213 81 l 1,37,-1
 225 81 l 1,38,-1
 225 69 l 1,39,-1
 258 69 l 1,40,-1
 258 58 l 1,41,-1
 326 58 l 1,42,-1
 326 69 l 1,43,-1
 359 69 l 1,44,-1
 359 81 l 1,45,-1
 394 81 l 1,46,-1
 394 91 l 1,47,-1
 416 91 l 1,48,-1
 416 103 l 1,49,-1
 439 103 l 1,50,-1
 439 126 l 1,51,-1
 449 126 l 1,52,-1
 449 136 l 1,53,-1
 461 136 l 1,54,-1
 461 148 l 1,55,-1
 472 148 l 1,56,-1
 472 171 l 1,57,-1
 484 171 l 1,58,-1
 484 194 l 1,59,-1
 495 194 l 1,60,-1
 495 227 l 1,61,-1
 505 227 l 1,62,-1
 505 260 l 1,63,-1
 517 260 l 1,0,-1
45 742 m 1,64,-1
 45 754 l 1,65,-1
 124 754 l 1,66,-1
 124 742 l 1,67,-1
 238 742 l 1,68,-1
 238 753 l 1,69,-1
 260 753 l 1,70,-1
 260 742 l 1,71,-1
 372 742 l 1,72,-1
 372 732 l 1,73,-1
 406 732 l 1,74,-1
 406 720 l 1,75,-1
 428 720 l 1,76,-1
 428 709 l 1,77,-1
 461 710 l 1,78,-1
 461 698 l 1,79,-1
 484 698 l 1,80,-1
 484 688 l 1,81,-1
 495 688 l 1,82,-1
 495 676 l 1,83,-1
 505 676 l 1,84,-1
 505 665 l 1,85,-1
 517 665 l 1,86,-1
 517 653 l 1,87,-1
 528 653 l 1,88,-1
 528 642 l 1,89,-1
 540 642 l 1,90,-1
 540 631 l 1,91,-1
 550 631 l 1,92,-1
 550 620 l 1,93,-1
 562 620 l 1,94,-1
 562 597 l 1,95,-1
 573 597 l 1,96,-1
 573 585 l 1,97,-1
 585 585 l 1,98,-1
 585 564 l 1,99,-1
 595 564 l 1,100,-1
 595 530 l 1,101,-1
 607 530 l 1,102,-1
 607 484 l 1,103,-1
 618 484 l 1,104,-1
 618 429 l 1,105,-1
 630 429 l 1,106,-1
 630 295 l 1,107,-1
 618 295 l 1,108,-1
 618 227 l 1,109,-1
 607 227 l 1,110,-1
 607 194 l 1,111,-1
 595 194 l 1,112,-1
 595 159 l 1,113,-1
 585 159 l 1,114,-1
 585 136 l 1,115,-1
 573 136 l 1,116,-1
 573 114 l 1,117,-1
 562 114 l 1,118,-1
 562 103 l 1,119,-1
 550 103 l 1,120,-1
 550 91 l 1,121,-1
 540 91 l 1,122,-1
 540 81 l 1,123,-1
 528 81 l 1,124,-1
 528 58 l 1,125,-1
 505 58 l 1,126,-1
 505 46 l 1,127,-1
 495 46 l 1,128,-1
 495 35 l 1,129,-1
 484 35 l 1,130,-1
 484 25 l 1,131,-1
 461 25 l 1,132,-1
 461 13 l 1,133,-1
 449 13 l 1,134,-1
 449 2 l 1,135,-1
 382 2 l 1,136,-1
 382 -10 l 1,137,-1
 57 -10 l 1,138,-1
 57 2 l 1,139,-1
 45 2 l 1,140,-1
 45 13 l 1,141,-1
 34 13 l 1,142,-1
 34 46 l 1,143,-1
 57 46 l 1,144,-1
 57 58 l 1,145,-1
 90 58 l 1,146,-1
 90 69 l 1,147,-1
 112 69 l 1,148,-1
 112 81 l 1,149,-1
 124 81 l 1,150,-1
 124 541 l 1,151,-1
 135 541 l 1,152,-1
 135 597 l 1,153,-1
 124 597 l 1,154,-1
 124 620 l 1,155,-1
 135 620 l 1,156,-1
 135 642 l 1,157,-1
 124 642 l 1,158,-1
 124 665 l 1,159,-1
 112 665 l 1,160,-1
 112 676 l 1,161,-1
 79 676 l 1,162,-1
 79 688 l 1,163,-1
 34 688 l 1,164,-1
 34 698 l 1,165,-1
 22 698 l 1,166,-1
 22 733 l 1,167,-1
 34 733 l 1,168,-1
 34 742 l 1,169,-1
 45 742 l 1,64,-1
EndSplineSet
EndChar

StartChar: R
Encoding: 82 82 55
Width: 641
GlyphClass: 2
Flags: W
LayerCount: 2
Fore
SplineSet
322 281 m 1,0,-1
 322 400 l 1,1,-1
 301 403 l 1,2,-1
 301 431 l 1,3,-1
 281 431 l 1,4,-1
 281 454 l 1,5,-1
 258 454 l 1,6,-1
 258 469 l 1,7,-1
 230 469 l 1,8,-1
 230 485 l 1,9,-1
 200 485 l 1,10,-1
 200 494 l 1,11,-1
 151 494 l 1,12,-1
 151 483 l 1,13,-1
 135 483 l 1,14,-1
 135 472 l 1,15,-1
 124 472 l 1,16,-1
 124 459 l 1,17,-1
 119 459 l 1,18,-1
 119 447 l 1,19,-1
 111 447 l 1,20,-1
 111 394 l 1,21,-1
 120 394 l 1,22,-1
 120 368 l 1,23,-1
 133 368 l 1,24,-1
 133 356 l 1,25,-1
 143 356 l 1,26,-1
 143 342 l 1,27,-1
 155 342 l 1,28,-1
 155 331 l 1,29,-1
 164 331 l 1,30,-1
 164 321 l 1,31,-1
 188 321 l 1,32,-1
 188 311 l 1,33,-1
 198 311 l 1,34,-1
 198 303 l 1,35,-1
 225 303 l 1,36,-1
 225 291 l 1,37,-1
 253 291 l 1,38,-1
 253 281 l 1,39,-1
 322 281 l 1,0,-1
321 198 m 1,40,-1
 228 198 l 1,41,-1
 228 212 l 1,42,-1
 183 212 l 1,43,-1
 183 224 l 1,44,-1
 159 224 l 1,45,-1
 159 241 l 1,46,-1
 141 241 l 1,47,-1
 141 256 l 1,48,-1
 117 256 l 1,49,-1
 117 267 l 1,50,-1
 81 267 l 1,51,-1
 81 280 l 1,52,-1
 70 280 l 1,53,-1
 70 294 l 1,54,-1
 56 294 l 1,55,-1
 56 316 l 1,56,-1
 35 316 l 1,57,-1
 35 358 l 1,58,-1
 22 358 l 1,59,-1
 22 476 l 1,60,-1
 39 476 l 1,61,-1
 40 508 l 1,62,-1
 55 508 l 1,63,-1
 55 523 l 1,64,-1
 68 523 l 1,65,-1
 68 537 l 1,66,-1
 79 537 l 1,67,-1
 79 550 l 1,68,-1
 115 550 l 1,69,-1
 115 561 l 1,70,-1
 152 561 l 1,71,-1
 152 571 l 1,72,-1
 223 571 l 1,73,-1
 223 561 l 1,74,-1
 242 561 l 1,75,-1
 242 549 l 1,76,-1
 264 549 l 1,77,-1
 264 537 l 1,78,-1
 288 537 l 1,79,-1
 288 524 l 1,80,-1
 305 524 l 1,81,-1
 305 508 l 1,82,-1
 320 508 l 1,83,-1
 320 498 l 1,84,-1
 339 498 l 1,85,-1
 339 642 l 1,86,-1
 305 642 l 1,87,-1
 305 656 l 1,88,-1
 237 656 l 1,89,-1
 237 675 l 1,90,-1
 211 675 l 1,91,-1
 211 739 l 1,92,-1
 254 739 l 1,93,-1
 254 753 l 1,94,-1
 365 753 l 1,95,-1
 365 739 l 1,96,-1
 402 739 l 1,97,-1
 402 727 l 1,98,-1
 414 727 l 1,99,-1
 414 698 l 1,100,-1
 426 698 l 1,101,-1
 426 329 l 1,102,-1
 414 329 l 1,103,-1
 414 317 l 1,104,-1
 426 317 l 1,105,-1
 426 304 l 1,106,-1
 440 304 l 1,107,-1
 440 316 l 1,108,-1
 460 316 l 1,109,-1
 460 334 l 1,110,-1
 479 334 l 1,111,-1
 479 352 l 1,112,-1
 496 353 l 1,113,-1
 496 365 l 1,114,-1
 511 365 l 1,115,-1
 511 384 l 1,116,-1
 527 384 l 1,117,-1
 527 435 l 1,118,-1
 514 435 l 1,119,-1
 514 455 l 1,120,-1
 497 455 l 1,121,-1
 497 472 l 1,122,-1
 485 472 l 1,123,-1
 485 491 l 1,124,-1
 470 491 l 1,125,-1
 470 518 l 1,126,-1
 457 518 l 1,127,-1
 457 565 l 1,128,-1
 521 565 l 1,129,-1
 521 548 l 1,130,-1
 539 548 l 1,131,-1
 539 536 l 1,132,-1
 558 536 l 1,133,-1
 558 522 l 1,134,-1
 573 522 l 1,135,-1
 573 500 l 1,136,-1
 590 500 l 1,137,-1
 590 477 l 1,138,-1
 602 477 l 1,139,-1
 602 451 l 1,140,-1
 611 451 l 1,141,-1
 611 428 l 1,142,-1
 619 428 l 1,143,-1
 619 398 l 1,144,-1
 613 398 l 1,145,-1
 613 375 l 1,146,-1
 608 375 l 1,147,-1
 608 348 l 1,148,-1
 597 348 l 1,149,-1
 597 330 l 1,150,-1
 586 330 l 1,151,-1
 586 316 l 1,152,-1
 574 316 l 1,153,-1
 574 303 l 1,154,-1
 562 303 l 1,155,-1
 562 291 l 1,156,-1
 549 291 l 1,157,-1
 549 279 l 1,158,-1
 527 279 l 1,159,-1
 527 267 l 1,160,-1
 503 267 l 1,161,-1
 503 246 l 1,162,-1
 475 246 l 1,163,-1
 475 223 l 1,164,-1
 449 223 l 1,165,-1
 449 200 l 1,166,-1
 414 200 l 1,167,-1
 414 105 l 1,168,-1
 426 105 l 1,169,-1
 426 93 l 1,170,-1
 437 93 l 1,171,-1
 437 79 l 1,172,-1
 517 79 l 1,173,-1
 517 93 l 1,174,-1
 529 93 l 1,175,-1
 529 79 l 1,176,-1
 552 79 l 1,177,-1
 552 67 l 1,178,-1
 564 67 l 1,179,-1
 564 40 l 1,180,-1
 577 40 l 1,181,-1
 577 26 l 1,182,-1
 564 26 l 1,183,-1
 564 14 l 1,184,-1
 552 14 l 1,185,-1
 552 1 l 1,186,-1
 214 3 l 1,187,-1
 214 27 l 1,188,-1
 203 27 l 1,189,-1
 203 68 l 1,190,-1
 214 68 l 1,191,-1
 214 78 l 1,192,-1
 273 78 l 1,193,-1
 273 93 l 1,194,-1
 306 93 l 1,195,-1
 306 106 l 1,196,-1
 321 106 l 1,197,-1
 321 198 l 1,40,-1
EndSplineSet
EndChar

StartChar: S
Encoding: 83 83 56
Width: 798
GlyphClass: 2
Flags: W
LayerCount: 2
Fore
SplineSet
210 225 m 1,0,-1
 210 192 l 1,1,-1
 222 192 l 1,2,-1
 222 157 l 1,3,-1
 233 157 l 1,4,-1
 233 134 l 1,5,-1
 245 134 l 1,6,-1
 245 111 l 1,7,-1
 255 111 l 1,8,-1
 255 101 l 1,9,-1
 267 101 l 1,10,-1
 267 89 l 1,11,-1
 278 89 l 1,12,-1
 278 78 l 1,13,-1
 312 78 l 1,14,-1
 312 66 l 1,15,-1
 345 66 l 1,16,-1
 345 56 l 1,17,-1
 421 56 l 1,18,-1
 421 66 l 1,19,-1
 454 66 l 1,20,-1
 454 78 l 1,21,-1
 476 78 l 1,22,-1
 476 89 l 1,23,-1
 499 89 l 1,24,-1
 499 101 l 1,25,-1
 511 101 l 1,26,-1
 511 111 l 1,27,-1
 521 111 l 1,28,-1
 521 134 l 1,29,-1
 533 134 l 1,30,-1
 533 146 l 1,31,-1
 544 146 l 1,32,-1
 544 190 l 1,33,-1
 555 190 l 1,34,-1
 555 214 l 1,35,-1
 544 214 l 1,36,-1
 544 259 l 1,37,-1
 533 259 l 1,38,-1
 533 282 l 1,39,-1
 521 282 l 1,40,-1
 521 305 l 1,41,-1
 511 305 l 1,42,-1
 511 315 l 1,43,-1
 499 315 l 1,44,-1
 499 327 l 1,45,-1
 476 327 l 1,46,-1
 476 338 l 1,47,-1
 454 338 l 1,48,-1
 454 348 l 1,49,-1
 431 348 l 1,50,-1
 431 360 l 1,51,-1
 345 360 l 1,52,-1
 345 348 l 1,53,-1
 300 348 l 1,54,-1
 300 338 l 1,55,-1
 278 338 l 1,56,-1
 278 327 l 1,57,-1
 267 327 l 1,58,-1
 267 315 l 1,59,-1
 255 315 l 1,60,-1
 255 305 l 1,61,-1
 245 305 l 1,62,-1
 245 282 l 1,63,-1
 233 282 l 1,64,-1
 233 259 l 1,65,-1
 222 259 l 1,66,-1
 222 225 l 1,67,-1
 210 225 l 1,0,-1
521 529 m 1,68,-1
 521 562 l 1,69,-1
 533 562 l 1,70,-1
 534 573 l 1,71,-1
 522 573 l 1,72,-1
 522 618 l 1,73,-1
 512 618 l 1,74,-1
 512 629 l 1,75,-1
 500 629 l 1,76,-1
 500 651 l 1,77,-1
 488 651 l 1,78,-1
 488 662 l 1,79,-1
 466 662 l 1,80,-1
 466 674 l 1,81,-1
 444 674 l 1,82,-1
 444 685 l 1,83,-1
 336 685 l 1,84,-1
 336 674 l 1,85,-1
 312 674 l 1,86,-1
 312 662 l 1,87,-1
 290 662 l 1,88,-1
 290 651 l 1,89,-1
 278 651 l 1,90,-1
 278 641 l 1,91,-1
 268 641 l 1,92,-1
 268 629 l 1,93,-1
 256 629 l 1,94,-1
 256 596 l 1,95,-1
 246 596 l 1,96,-1
 245 540 l 1,97,-1
 255 540 l 1,98,-1
 255 517 l 1,99,-1
 267 517 l 1,100,-1
 267 507 l 1,101,-1
 278 507 l 1,102,-1
 278 496 l 1,103,-1
 290 496 l 1,104,-1
 290 484 l 1,105,-1
 300 484 l 1,106,-1
 300 473 l 1,107,-1
 323 473 l 1,108,-1
 323 461 l 1,109,-1
 356 461 l 1,110,-1
 356 451 l 1,111,-1
 431 451 l 1,112,-1
 431 461 l 1,113,-1
 454 461 l 1,114,-1
 454 473 l 1,115,-1
 476 473 l 1,116,-1
 476 484 l 1,117,-1
 499 484 l 1,118,-1
 499 507 l 1,119,-1
 511 507 l 1,120,-1
 511 529 l 1,121,-1
 521 529 l 1,68,-1
570 428 m 1,122,-1
 605 428 l 1,123,-1
 605 417 l 1,124,-1
 635 417 l 1,125,-1
 635 404 l 1,126,-1
 661 404 l 1,127,-1
 661 395 l 1,128,-1
 696 395 l 1,129,-1
 696 381 l 1,130,-1
 721 381 l 1,131,-1
 721 368 l 1,132,-1
 750 368 l 1,133,-1
 750 344 l 1,134,-1
 763 344 l 1,135,-1
 763 316 l 1,136,-1
 776 316 l 1,137,-1
 776 195 l 1,138,-1
 768 195 l 1,139,-1
 768 180 l 1,140,-1
 762 180 l 1,141,-1
 762 159 l 1,142,-1
 744 159 l 1,143,-1
 744 151 l 1,144,-1
 733 151 l 1,145,-1
 733 158 l 1,146,-1
 706 158 l 1,147,-1
 706 178 l 1,148,-1
 696 178 l 1,149,-1
 696 220 l 1,150,-1
 690 221 l 1,151,-1
 690 256 l 1,152,-1
 697 256 l 1,153,-1
 697 266 l 1,154,-1
 686 266 l 1,155,-1
 686 288 l 1,156,-1
 671 288 l 1,157,-1
 671 308 l 1,158,-1
 647 308 l 1,159,-1
 647 327 l 1,160,-1
 635 327 l 1,161,-1
 636 336 l 1,162,-1
 619 336 l 1,163,-1
 619 331 l 1,164,-1
 606 331 l 1,165,-1
 606 316 l 1,166,-1
 621 316 l 1,167,-1
 621 305 l 1,168,-1
 634 305 l 1,169,-1
 634 282 l 1,170,-1
 645 282 l 1,171,-1
 645 237 l 1,172,-1
 657 237 l 1,173,-1
 657 179 l 1,174,-1
 645 179 l 1,175,-1
 645 134 l 1,176,-1
 634 134 l 1,177,-1
 634 111 l 1,178,-1
 622 111 l 1,179,-1
 622 101 l 1,180,-1
 612 101 l 1,181,-1
 612 89 l 1,182,-1
 600 89 l 1,183,-1
 600 78 l 1,184,-1
 589 78 l 1,185,-1
 589 66 l 1,186,-1
 577 66 l 1,187,-1
 577 56 l 1,188,-1
 567 56 l 1,189,-1
 567 44 l 1,190,-1
 555 44 l 1,191,-1
 555 33 l 1,192,-1
 544 33 l 1,193,-1
 544 21 l 1,194,-1
 521 21 l 1,195,-1
 521 10 l 1,196,-1
 499 10 l 1,197,-1
 499 0 l 1,198,-1
 431 0 l 1,199,-1
 431 -12 l 1,200,-1
 345 -12 l 1,201,-1
 345 0 l 1,202,-1
 267 0 l 1,203,-1
 267 10 l 1,204,-1
 245 10 l 1,205,-1
 245 21 l 1,206,-1
 222 21 l 1,207,-1
 222 33 l 1,208,-1
 210 33 l 1,209,-1
 210 44 l 1,210,-1
 199 44 l 1,211,-1
 199 56 l 1,212,-1
 188 56 l 1,213,-1
 188 66 l 1,214,-1
 177 66 l 1,215,-1
 177 78 l 1,216,-1
 166 78 l 1,217,-1
 166 101 l 1,218,-1
 154 101 l 1,219,-1
 154 123 l 1,220,-1
 144 123 l 1,221,-1
 144 134 l 1,222,-1
 132 134 l 1,223,-1
 132 190 l 1,224,-1
 121 190 l 1,225,-1
 121 214 l 1,226,-1
 132 214 l 1,227,-1
 132 270 l 1,228,-1
 144 270 l 1,229,-1
 144 293 l 1,230,-1
 154 293 l 1,231,-1
 154 315 l 1,232,-1
 166 315 l 1,233,-1
 166 327 l 1,234,-1
 177 327 l 1,235,-1
 177 338 l 1,236,-1
 188 338 l 1,237,-1
 188 348 l 1,238,-1
 210 348 l 1,239,-1
 210 360 l 1,240,-1
 222 360 l 1,241,-1
 222 371 l 1,242,-1
 233 371 l 1,243,-1
 233 383 l 1,244,-1
 245 383 l 1,245,-1
 245 389 l 1,246,-1
 196 389 l 1,247,-1
 197 397 l 1,248,-1
 167 397 l 1,249,-1
 167 406 l 1,250,-1
 141 406 l 1,251,-1
 141 415 l 1,252,-1
 106 415 l 1,253,-1
 106 429 l 1,254,-1
 81 429 l 1,255,-1
 81 442 l 1,256,-1
 52 442 l 1,257,-1
 52 466 l 1,258,-1
 39 466 l 1,259,-1
 39 494 l 1,260,-1
 22 494 l 1,261,-1
 22 615 l 1,262,-1
 34 615 l 1,263,-1
 34 640 l 1,264,-1
 40 640 l 1,265,-1
 40 661 l 1,266,-1
 58 661 l 1,267,-1
 58 669 l 1,268,-1
 69 669 l 1,269,-1
 69 663 l 1,270,-1
 97 663 l 1,271,-1
 97 642 l 1,272,-1
 106 642 l 1,273,-1
 106 590 l 1,274,-1
 112 590 l 1,275,-1
 112 555 l 1,276,-1
 105 555 l 1,277,-1
 105 545 l 1,278,-1
 116 545 l 1,279,-1
 116 522 l 1,280,-1
 131 522 l 1,281,-1
 131 502 l 1,282,-1
 155 502 l 1,283,-1
 155 483 l 1,284,-1
 167 483 l 1,285,-1
 167 474 l 1,286,-1
 188 474 l 1,287,-1
 188 484 l 1,288,-1
 177 484 l 1,289,-1
 177 517 l 1,290,-1
 166 517 l 1,291,-1
 166 552 l 1,292,-1
 154 552 l 1,293,-1
 154 584 l 1,294,-1
 166 584 l 1,295,-1
 166 618 l 1,296,-1
 178 618 l 1,297,-1
 178 651 l 1,298,-1
 188 651 l 1,299,-1
 188 674 l 1,300,-1
 200 674 l 1,301,-1
 200 685 l 1,302,-1
 210 685 l 1,303,-1
 210 697 l 1,304,-1
 222 697 l 1,305,-1
 222 707 l 1,306,-1
 246 707 l 1,307,-1
 246 719 l 1,308,-1
 256 719 l 1,309,-1
 256 730 l 1,310,-1
 290 730 l 1,311,-1
 290 742 l 1,312,-1
 324 742 l 1,313,-1
 324 752 l 1,314,-1
 454 752 l 1,315,-1
 454 742 l 1,316,-1
 500 742 l 1,317,-1
 500 730 l 1,318,-1
 522 730 l 1,319,-1
 522 719 l 1,320,-1
 544 719 l 1,321,-1
 544 707 l 1,322,-1
 556 707 l 1,323,-1
 556 697 l 1,324,-1
 568 697 l 1,325,-1
 568 674 l 1,326,-1
 578 674 l 1,327,-1
 578 662 l 1,328,-1
 590 662 l 1,329,-1
 590 641 l 1,330,-1
 600 641 l 1,331,-1
 600 618 l 1,332,-1
 612 618 l 1,333,-1
 612 529 l 1,334,-1
 600 529 l 1,335,-1
 600 507 l 1,336,-1
 589 507 l 1,337,-1
 589 484 l 1,338,-1
 577 484 l 1,339,-1
 577 473 l 1,340,-1
 567 473 l 1,341,-1
 567 461 l 1,342,-1
 555 461 l 1,343,-1
 555 451 l 1,344,-1
 544 451 l 1,345,-1
 544 439 l 1,346,-1
 570 439 l 1,347,-1
 570 428 l 1,122,-1
EndSplineSet
EndChar

StartChar: T
Encoding: 84 84 57
Width: 618
GlyphClass: 2
Flags: W
LayerCount: 2
Fore
SplineSet
247 21 m 1,0,-1
 236 21 l 1,1,-1
 236 60 l 1,2,-1
 247 60 l 1,3,-1
 247 70 l 1,4,-1
 337 70 l 1,5,-1
 337 82 l 1,6,-1
 370 82 l 1,7,-1
 370 93 l 1,8,-1
 393 93 l 1,9,-1
 393 599 l 1,10,-1
 382 599 l 1,11,-1
 382 622 l 1,12,-1
 370 622 l 1,13,-1
 370 634 l 1,14,-1
 359 634 l 1,15,-1
 359 644 l 1,16,-1
 337 644 l 1,17,-1
 337 656 l 1,18,-1
 302 656 l 1,19,-1
 302 667 l 1,20,-1
 292 667 l 1,21,-1
 292 656 l 1,22,-1
 191 656 l 1,23,-1
 191 644 l 1,24,-1
 168 644 l 1,25,-1
 168 634 l 1,26,-1
 156 634 l 1,27,-1
 156 622 l 1,28,-1
 146 622 l 1,29,-1
 146 611 l 1,30,-1
 134 611 l 1,31,-1
 134 589 l 1,32,-1
 123 589 l 1,33,-1
 123 566 l 1,34,-1
 113 566 l 1,35,-1
 113 543 l 1,36,-1
 101 543 l 1,37,-1
 101 531 l 1,38,-1
 78 531 l 1,39,-1
 78 521 l 1,40,-1
 67 521 l 1,41,-1
 67 531 l 1,42,-1
 33 531 l 1,43,-1
 33 543 l 1,44,-1
 22 543 l 1,45,-1
 22 622 l 1,46,-1
 33 622 l 1,47,-1
 33 667 l 1,48,-1
 45 667 l 1,49,-1
 45 679 l 1,50,-1
 55 679 l 1,51,-1
 55 690 l 1,52,-1
 90 690 l 1,53,-1
 90 700 l 1,54,-1
 113 700 l 1,55,-1
 113 712 l 1,56,-1
 146 712 l 1,57,-1
 146 723 l 1,58,-1
 191 723 l 1,59,-1
 191 735 l 1,60,-1
 292 735 l 1,61,-1
 292 745 l 1,62,-1
 302 745 l 1,63,-1
 302 735 l 1,64,-1
 347 735 l 1,65,-1
 347 723 l 1,66,-1
 393 723 l 1,67,-1
 393 712 l 1,68,-1
 415 712 l 1,69,-1
 415 700 l 1,70,-1
 427 700 l 1,71,-1
 427 690 l 1,72,-1
 438 690 l 1,73,-1
 438 679 l 1,74,-1
 450 679 l 1,75,-1
 450 667 l 1,76,-1
 460 667 l 1,77,-1
 460 634 l 1,78,-1
 471 634 l 1,79,-1
 471 599 l 1,80,-1
 483 599 l 1,81,-1
 483 284 l 1,82,-1
 471 284 l 1,83,-1
 471 274 l 1,84,-1
 483 274 l 1,85,-1
 483 228 l 1,86,-1
 471 228 l 1,87,-1
 471 93 l 1,88,-1
 483 93 l 1,89,-1
 483 82 l 1,90,-1
 493 82 l 1,91,-1
 493 70 l 1,92,-1
 539 70 l 1,93,-1
 539 82 l 1,94,-1
 551 82 l 1,95,-1
 551 70 l 1,96,-1
 573 70 l 1,97,-1
 573 60 l 1,98,-1
 584 60 l 1,99,-1
 584 37 l 1,100,-1
 596 37 l 1,101,-1
 596 21 l 1,102,-1
 584 21 l 1,103,-1
 584 11 l 1,104,-1
 573 11 l 1,105,-1
 573 0 l 1,106,-1
 247 0 l 1,107,-1
 247 21 l 1,0,-1
EndSplineSet
EndChar

StartChar: U
Encoding: 85 85 58
Width: 628
GlyphClass: 2
Flags: W
LayerCount: 2
Fore
SplineSet
269 93 m 1,0,-1
 269 257 l 1,1,-1
 268 257 l 1,2,-1
 268 473 l 1,3,-1
 277 473 l 1,4,-1
 277 665 l 1,5,-1
 246 665 l 1,6,-1
 246 655 l 1,7,-1
 213 655 l 1,8,-1
 213 643 l 1,9,-1
 201 643 l 1,10,-1
 201 632 l 1,11,-1
 191 632 l 1,12,-1
 191 620 l 1,13,-1
 179 620 l 1,14,-1
 179 598 l 1,15,-1
 168 598 l 1,16,-1
 168 575 l 1,17,-1
 156 575 l 1,18,-1
 156 552 l 1,19,-1
 145 552 l 1,20,-1
 145 519 l 1,21,-1
 133 519 l 1,22,-1
 133 474 l 1,23,-1
 123 474 l 1,24,-1
 123 272 l 1,25,-1
 133 272 l 1,26,-1
 133 227 l 1,27,-1
 145 227 l 1,28,-1
 145 194 l 1,29,-1
 156 194 l 1,30,-1
 156 171 l 1,31,-1
 168 171 l 1,32,-1
 168 148 l 1,33,-1
 179 148 l 1,34,-1
 179 136 l 1,35,-1
 191 136 l 1,36,-1
 191 126 l 1,37,-1
 201 126 l 1,38,-1
 201 114 l 1,39,-1
 213 114 l 1,40,-1
 213 103 l 1,41,-1
 236 103 l 1,42,-1
 236 93 l 1,43,-1
 269 93 l 1,0,-1
368 91 m 1,44,-1
 392 91 l 1,45,-1
 392 103 l 1,46,-1
 415 103 l 1,47,-1
 415 114 l 1,48,-1
 427 114 l 1,49,-1
 427 126 l 1,50,-1
 437 126 l 1,51,-1
 437 148 l 1,52,-1
 448 148 l 1,53,-1
 448 159 l 1,54,-1
 460 159 l 1,55,-1
 460 182 l 1,56,-1
 471 182 l 1,57,-1
 471 204 l 1,58,-1
 483 204 l 1,59,-1
 483 249 l 1,60,-1
 493 249 l 1,61,-1
 493 328 l 1,62,-1
 505 328 l 1,63,-1
 505 429 l 1,64,-1
 493 429 l 1,65,-1
 493 497 l 1,66,-1
 483 497 l 1,67,-1
 483 542 l 1,68,-1
 471 542 l 1,69,-1
 471 552 l 1,70,-1
 460 552 l 1,71,-1
 460 575 l 1,72,-1
 448 575 l 1,73,-1
 448 598 l 1,74,-1
 437 598 l 1,75,-1
 437 620 l 1,76,-1
 427 620 l 1,77,-1
 427 632 l 1,78,-1
 404 632 l 1,79,-1
 404 643 l 1,80,-1
 372 643 l 1,81,-1
 372 665 l 1,82,-1
 360 665 l 1,83,-1
 360 481 l 1,84,-1
 360 260 l 1,85,-1
 368 260 l 1,86,-1
 368 91 l 1,44,-1
279 744 m 1,87,-1
 279 756 l 1,88,-1
 314 756 l 1,89,-1
 314 744 l 1,90,-1
 382 744 l 1,91,-1
 382 733 l 1,92,-1
 427 733 l 1,93,-1
 427 721 l 1,94,-1
 448 721 l 1,95,-1
 448 710 l 1,96,-1
 460 710 l 1,97,-1
 460 700 l 1,98,-1
 471 700 l 1,99,-1
 471 688 l 1,100,-1
 493 688 l 1,101,-1
 493 677 l 1,102,-1
 505 677 l 1,103,-1
 505 655 l 1,104,-1
 516 655 l 1,105,-1
 516 643 l 1,106,-1
 528 643 l 1,107,-1
 528 632 l 1,108,-1
 538 632 l 1,109,-1
 538 620 l 1,110,-1
 550 620 l 1,111,-1
 550 598 l 1,112,-1
 561 598 l 1,113,-1
 561 564 l 1,114,-1
 573 564 l 1,115,-1
 573 542 l 1,116,-1
 583 542 l 1,117,-1
 583 497 l 1,118,-1
 595 497 l 1,119,-1
 595 441 l 1,120,-1
 606 441 l 1,121,-1
 606 305 l 1,122,-1
 595 305 l 1,123,-1
 595 249 l 1,124,-1
 583 249 l 1,125,-1
 583 194 l 1,126,-1
 573 194 l 1,127,-1
 573 171 l 1,128,-1
 561 171 l 1,129,-1
 561 148 l 1,130,-1
 550 148 l 1,131,-1
 550 126 l 1,132,-1
 538 126 l 1,133,-1
 538 103 l 1,134,-1
 528 103 l 1,135,-1
 528 91 l 1,136,-1
 505 91 l 1,137,-1
 505 81 l 1,138,-1
 493 81 l 1,139,-1
 493 69 l 1,140,-1
 483 69 l 1,141,-1
 483 58 l 1,142,-1
 471 58 l 1,143,-1
 471 46 l 1,144,-1
 460 46 l 1,145,-1
 460 35 l 1,146,-1
 437 35 l 1,147,-1
 437 25 l 1,148,-1
 415 25 l 1,149,-1
 415 13 l 1,150,-1
 347 13 l 1,151,-1
 347 2 l 1,152,-1
 246 2 l 1,153,-1
 246 13 l 1,154,-1
 201 13 l 1,155,-1
 201 25 l 1,156,-1
 179 25 l 1,157,-1
 179 35 l 1,158,-1
 156 35 l 1,159,-1
 156 46 l 1,160,-1
 133 46 l 1,161,-1
 133 58 l 1,162,-1
 123 58 l 1,163,-1
 123 69 l 1,164,-1
 111 69 l 1,165,-1
 111 91 l 1,166,-1
 100 91 l 1,167,-1
 100 103 l 1,168,-1
 90 103 l 1,169,-1
 90 114 l 1,170,-1
 78 114 l 1,171,-1
 78 136 l 1,172,-1
 67 136 l 1,173,-1
 67 148 l 1,174,-1
 55 148 l 1,175,-1
 55 182 l 1,176,-1
 45 182 l 1,177,-1
 45 215 l 1,178,-1
 33 215 l 1,179,-1
 33 260 l 1,180,-1
 22 260 l 1,181,-1
 22 451 l 1,182,-1
 33 451 l 1,183,-1
 33 531 l 1,184,-1
 45 531 l 1,185,-1
 45 552 l 1,186,-1
 55 552 l 1,187,-1
 55 587 l 1,188,-1
 67 587 l 1,189,-1
 67 598 l 1,190,-1
 78 598 l 1,191,-1
 78 632 l 1,192,-1
 90 632 l 1,193,-1
 90 643 l 1,194,-1
 100 643 l 1,195,-1
 100 655 l 1,196,-1
 111 655 l 1,197,-1
 111 677 l 1,198,-1
 133 677 l 1,199,-1
 133 688 l 1,200,-1
 145 688 l 1,201,-1
 145 700 l 1,202,-1
 168 700 l 1,203,-1
 168 710 l 1,204,-1
 179 710 l 1,205,-1
 179 721 l 1,206,-1
 201 721 l 1,207,-1
 201 733 l 1,208,-1
 246 733 l 1,209,-1
 246 744 l 1,210,-1
 279 744 l 1,87,-1
EndSplineSet
EndChar

StartChar: V
Encoding: 86 86 59
Width: 623
GlyphClass: 2
Flags: W
LayerCount: 2
Fore
SplineSet
347 688 m 1,0,-1
 267 688 l 1,1,-1
 267 675 l 1,2,-1
 243 675 l 1,3,-1
 243 667 l 1,4,-1
 221 667 l 1,5,-1
 221 656 l 1,6,-1
 198 656 l 1,7,-1
 198 637 l 1,8,-1
 179 637 l 1,9,-1
 179 623 l 1,10,-1
 164 623 l 1,11,-1
 164 600 l 1,12,-1
 154 600 l 1,13,-1
 154 584 l 1,14,-1
 143 584 l 1,15,-1
 143 566 l 1,16,-1
 134 566 l 1,17,-1
 134 520 l 1,18,-1
 119 520 l 1,19,-1
 119 429 l 1,20,-1
 109 429 l 1,21,-1
 109 316 l 1,22,-1
 121 316 l 1,23,-1
 121 237 l 1,24,-1
 131 237 l 1,25,-1
 131 192 l 1,26,-1
 144 192 l 1,27,-1
 144 170 l 1,28,-1
 158 170 l 1,29,-1
 158 145 l 1,30,-1
 173 145 l 1,31,-1
 173 130 l 1,32,-1
 187 130 l 1,33,-1
 187 114 l 1,34,-1
 197 114 l 1,35,-1
 197 102 l 1,36,-1
 209 102 l 1,37,-1
 209 91 l 1,38,-1
 232 91 l 1,39,-1
 232 79 l 1,40,-1
 254 79 l 1,41,-1
 254 68 l 1,42,-1
 299 68 l 1,43,-1
 299 57 l 1,44,-1
 373 57 l 1,45,-1
 373 67 l 1,46,-1
 407 67 l 1,47,-1
 407 79 l 1,48,-1
 430 79 l 1,49,-1
 430 89 l 1,50,-1
 441 89 l 1,51,-1
 441 101 l 1,52,-1
 453 101 l 1,53,-1
 453 112 l 1,54,-1
 463 112 l 1,55,-1
 463 134 l 1,56,-1
 475 134 l 1,57,-1
 475 157 l 1,58,-1
 486 157 l 1,59,-1
 486 191 l 1,60,-1
 498 191 l 1,61,-1
 498 281 l 1,62,-1
 486 281 l 1,63,-1
 486 305 l 1,64,-1
 475 305 l 1,65,-1
 475 326 l 1,66,-1
 456 326 l 1,67,-1
 456 348 l 1,68,-1
 441 348 l 1,69,-1
 441 360 l 1,70,-1
 430 360 l 1,71,-1
 430 383 l 1,72,-1
 407 383 l 1,73,-1
 407 393 l 1,74,-1
 317 393 l 1,75,-1
 317 405 l 1,76,-1
 307 405 l 1,77,-1
 307 416 l 1,78,-1
 295 416 l 1,79,-1
 295 451 l 1,80,-1
 307 451 l 1,81,-1
 307 461 l 1,82,-1
 373 461 l 1,83,-1
 373 473 l 1,84,-1
 407 473 l 1,85,-1
 407 484 l 1,86,-1
 430 484 l 1,87,-1
 430 504 l 1,88,-1
 458 504 l 1,89,-1
 458 532 l 1,90,-1
 470 532 l 1,91,-1
 470 610 l 1,92,-1
 456 610 l 1,93,-1
 456 628 l 1,94,-1
 444 628 l 1,95,-1
 444 642 l 1,96,-1
 425 642 l 1,97,-1
 425 653 l 1,98,-1
 399 653 l 1,99,-1
 399 667 l 1,100,-1
 376 667 l 1,101,-1
 376 678 l 1,102,-1
 347 678 l 1,103,-1
 347 688 l 1,0,-1
242 749 m 1,104,-1
 354 749 l 1,105,-1
 354 735 l 1,106,-1
 409 735 l 1,107,-1
 409 723 l 1,108,-1
 443 723 l 1,109,-1
 443 713 l 1,110,-1
 465 713 l 1,111,-1
 465 693 l 1,112,-1
 487 693 l 1,113,-1
 487 682 l 1,114,-1
 499 682 l 1,115,-1
 499 670 l 1,116,-1
 509 670 l 1,117,-1
 509 659 l 1,118,-1
 521 659 l 1,119,-1
 521 637 l 1,120,-1
 532 637 l 1,121,-1
 532 626 l 1,122,-1
 542 626 l 1,123,-1
 542 598 l 1,124,-1
 553 598 l 1,125,-1
 553 541 l 1,126,-1
 541 541 l 1,127,-1
 541 506 l 1,128,-1
 531 506 l 1,129,-1
 531 484 l 1,130,-1
 520 484 l 1,131,-1
 520 473 l 1,132,-1
 508 473 l 1,133,-1
 508 461 l 1,134,-1
 498 461 l 1,135,-1
 498 451 l 1,136,-1
 486 451 l 1,137,-1
 486 428 l 1,138,-1
 498 428 l 1,139,-1
 498 416 l 1,140,-1
 508 416 l 1,141,-1
 508 405 l 1,142,-1
 520 405 l 1,143,-1
 520 393 l 1,144,-1
 531 393 l 1,145,-1
 531 383 l 1,146,-1
 541 383 l 1,147,-1
 541 360 l 1,148,-1
 553 360 l 1,149,-1
 553 348 l 1,150,-1
 564 348 l 1,151,-1
 564 326 l 1,152,-1
 576 326 l 1,153,-1
 576 303 l 1,154,-1
 587 303 l 1,155,-1
 587 258 l 1,156,-1
 601 258 l 1,157,-1
 601 191 l 1,158,-1
 587 191 l 1,159,-1
 587 157 l 1,160,-1
 576 157 l 1,161,-1
 576 124 l 1,162,-1
 564 124 l 1,163,-1
 564 101 l 1,164,-1
 553 101 l 1,165,-1
 553 79 l 1,166,-1
 541 79 l 1,167,-1
 541 67 l 1,168,-1
 531 67 l 1,169,-1
 531 56 l 1,170,-1
 520 56 l 1,171,-1
 520 44 l 1,172,-1
 508 44 l 1,173,-1
 508 33 l 1,174,-1
 498 33 l 1,175,-1
 498 23 l 1,176,-1
 475 23 l 1,177,-1
 475 11 l 1,178,-1
 449 11 l 1,179,-1
 449 0 l 1,180,-1
 427 0 l 1,181,-1
 427 -11 l 1,182,-1
 230 -11 l 1,183,-1
 230 1 l 1,184,-1
 209 1 l 1,185,-1
 209 13 l 1,186,-1
 187 13 l 1,187,-1
 187 23 l 1,188,-1
 164 23 l 1,189,-1
 164 34 l 1,190,-1
 149 34 l 1,191,-1
 149 46 l 1,192,-1
 134 46 l 1,193,-1
 134 60 l 1,194,-1
 121 60 l 1,195,-1
 121 72 l 1,196,-1
 110 72 l 1,197,-1
 110 86 l 1,198,-1
 96 86 l 1,199,-1
 96 98 l 1,200,-1
 86 98 l 1,201,-1
 86 114 l 1,202,-1
 74 114 l 1,203,-1
 74 136 l 1,204,-1
 63 136 l 1,205,-1
 63 159 l 1,206,-1
 51 159 l 1,207,-1
 51 182 l 1,208,-1
 41 182 l 1,209,-1
 41 237 l 1,210,-1
 29 237 l 1,211,-1
 29 293 l 1,212,-1
 22 293 l 1,213,-1
 22 441 l 1,214,-1
 35 441 l 1,215,-1
 35 543 l 1,216,-1
 50 543 l 1,217,-1
 50 565 l 1,218,-1
 62 565 l 1,219,-1
 62 599 l 1,220,-1
 73 599 l 1,221,-1
 73 624 l 1,222,-1
 85 624 l 1,223,-1
 85 643 l 1,224,-1
 95 643 l 1,225,-1
 95 657 l 1,226,-1
 107 657 l 1,227,-1
 107 667 l 1,228,-1
 118 667 l 1,229,-1
 118 677 l 1,230,-1
 127 677 l 1,231,-1
 127 687 l 1,232,-1
 138 687 l 1,233,-1
 138 699 l 1,234,-1
 153 699 l 1,235,-1
 153 709 l 1,236,-1
 164 709 l 1,237,-1
 164 721 l 1,238,-1
 176 721 l 1,239,-1
 176 730 l 1,240,-1
 197 730 l 1,241,-1
 197 737 l 1,242,-1
 242 737 l 1,243,-1
 242 749 l 1,104,-1
EndSplineSet
EndChar

StartChar: W
Encoding: 87 87 60
Width: 706
GlyphClass: 2
Flags: W
LayerCount: 2
Fore
SplineSet
182 -8 m 1,0,-1
 182 2 l 1,1,-1
 159 2 l 1,2,-1
 159 15 l 1,3,-1
 137 15 l 1,4,-1
 137 25 l 1,5,-1
 126 25 l 1,6,-1
 126 37 l 1,7,-1
 108 37 l 1,8,-1
 108 48 l 1,9,-1
 91 48 l 1,10,-1
 91 62 l 1,11,-1
 81 62 l 1,12,-1
 81 81 l 1,13,-1
 69 81 l 1,14,-1
 69 104 l 1,15,-1
 58 104 l 1,16,-1
 58 126 l 1,17,-1
 46 126 l 1,18,-1
 46 149 l 1,19,-1
 31 149 l 1,20,-1
 31 235 l 1,21,-1
 22 235 l 1,22,-1
 22 557 l 1,23,-1
 35 557 l 1,24,-1
 35 637 l 1,25,-1
 56 637 l 1,26,-1
 56 676 l 1,27,-1
 71 676 l 1,28,-1
 71 706 l 1,29,-1
 82 706 l 1,30,-1
 82 722 l 1,31,-1
 99 722 l 1,32,-1
 99 740 l 1,33,-1
 163 740 l 1,34,-1
 163 719 l 1,35,-1
 174 719 l 1,36,-1
 174 658 l 1,37,-1
 162 658 l 1,38,-1
 162 625 l 1,39,-1
 149 626 l 1,40,-1
 149 581 l 1,41,-1
 134 581 l 1,42,-1
 134 161 l 1,43,-1
 140 161 l 1,44,-1
 140 138 l 1,45,-1
 147 138 l 1,46,-1
 147 116 l 1,47,-1
 159 116 l 1,48,-1
 159 93 l 1,49,-1
 170 93 l 1,50,-1
 170 81 l 1,51,-1
 182 81 l 1,52,-1
 182 71 l 1,53,-1
 194 71 l 1,54,-1
 194 60 l 1,55,56
 194 60 194 60 230 60 c 1,57,-1
 230 71 l 1,58,-1
 244 71 l 1,59,-1
 244 81 l 1,60,-1
 257 81 l 1,61,-1
 257 93 l 1,62,-1
 268 93 l 1,63,-1
 268 104 l 1,64,-1
 280 104 l 1,65,-1
 280 126 l 1,66,-1
 290 126 l 1,67,-1
 290 166 l 1,68,-1
 302 166 l 1,69,-1
 302 235 l 1,70,-1
 311 235 l 1,71,-1
 311 432 l 1,72,-1
 322 432 l 1,73,-1
 322 456 l 1,74,-1
 380 456 l 1,75,-1
 380 430 l 1,76,-1
 392 430 l 1,77,-1
 392 233 l 1,78,-1
 400 233 l 1,79,-1
 400 173 l 1,80,-1
 412 173 l 1,81,-1
 412 124 l 1,82,-1
 422 124 l 1,83,-1
 422 102 l 1,84,-1
 434 102 l 1,85,-1
 434 91 l 1,86,-1
 445 91 l 1,87,-1
 445 79 l 1,88,-1
 458 79 l 1,89,-1
 458 69 l 1,90,-1
 472 69 l 1,91,-1
 472 58 l 1,92,-1
 511 58 l 1,93,-1
 511 69 l 1,94,-1
 523 69 l 1,95,-1
 523 79 l 1,96,-1
 535 79 l 1,97,-1
 535 91 l 1,98,-1
 546 91 l 1,99,-1
 546 114 l 1,100,-1
 558 114 l 1,101,-1
 558 136 l 1,102,-1
 565 136 l 1,103,-1
 565 159 l 1,104,-1
 571 159 l 1,105,-1
 571 579 l 1,106,-1
 555 579 l 1,107,-1
 555 624 l 1,108,-1
 542 623 l 1,109,-1
 542 656 l 1,110,-1
 531 656 l 1,111,-1
 531 717 l 1,112,-1
 542 717 l 1,113,-1
 542 738 l 1,114,-1
 606 738 l 1,115,-1
 606 720 l 1,116,-1
 623 720 l 1,117,-1
 623 704 l 1,118,-1
 634 704 l 1,119,-1
 634 674 l 1,120,-1
 649 674 l 1,121,-1
 649 635 l 1,122,-1
 670 635 l 1,123,-1
 670 555 l 1,124,-1
 684 555 l 1,125,-1
 684 233 l 1,126,-1
 674 233 l 1,127,-1
 674 147 l 1,128,-1
 659 147 l 1,129,-1
 659 124 l 1,130,-1
 647 124 l 1,131,-1
 647 102 l 1,132,-1
 636 102 l 1,133,-1
 636 79 l 1,134,-1
 624 79 l 1,135,-1
 624 60 l 1,136,-1
 614 60 l 1,137,-1
 614 46 l 1,138,-1
 596 46 l 1,139,-1
 596 35 l 1,140,-1
 579 35 l 1,141,-1
 579 23 l 1,142,-1
 568 23 l 1,143,-1
 568 13 l 1,144,-1
 546 13 l 1,145,-1
 546 2 l 1,146,-1
 523 2 l 1,147,-1
 523 -10 l 1,148,-1
 454 -10 l 1,149,-1
 454 2 l 1,150,-1
 435 2 l 1,151,-1
 435 13 l 1,152,-1
 416 13 l 1,153,-1
 416 23 l 1,154,-1
 405 23 l 1,155,-1
 405 35 l 1,156,-1
 391 35 l 1,157,-1
 391 46 l 1,158,-1
 379 46 l 1,159,-1
 379 69 l 1,160,-1
 369 69 l 1,161,-1
 369 81 l 1,162,-1
 357 81 l 1,163,-1
 357 92 l 1,164,-1
 345 92 l 1,165,-1
 345 81 l 1,166,-1
 333 81 l 1,167,-1
 333 71 l 1,168,-1
 323 71 l 1,169,-1
 323 48 l 1,170,-1
 311 48 l 1,171,-1
 311 37 l 1,172,-1
 297 37 l 1,173,-1
 297 25 l 1,174,-1
 286 25 l 1,175,-1
 286 15 l 1,176,-1
 267 15 l 1,177,-1
 267 2 l 1,178,-1
 249 2 l 1,179,-1
 249 -8 l 1,180,181
 249 -8 249 -8 182 -8 c 1,0,-1
EndSplineSet
EndChar

StartChar: X
Encoding: 88 88 61
Width: 558
GlyphClass: 2
Flags: W
LayerCount: 2
Fore
SplineSet
220 743 m 1,0,-1
 220 756 l 1,1,-1
 384 756 l 1,2,-1
 384 743 l 1,3,-1
 489 743 l 1,4,-1
 489 732 l 1,5,-1
 500 732 l 1,6,-1
 500 698 l 1,7,-1
 513 698 l 1,8,-1
 513 685 l 1,9,-1
 500 685 l 1,10,-1
 500 651 l 1,11,-1
 513 651 l 1,12,-1
 513 627 l 1,13,-1
 500 627 l 1,14,-1
 500 615 l 1,15,-1
 513 615 l 1,16,-1
 513 568 l 1,17,-1
 500 568 l 1,18,-1
 500 545 l 1,19,-1
 489 545 l 1,20,-1
 489 534 l 1,21,-1
 466 534 l 1,22,-1
 466 523 l 1,23,-1
 453 523 l 1,24,-1
 453 534 l 1,25,-1
 430 534 l 1,26,-1
 430 557 l 1,27,-1
 419 557 l 1,28,-1
 419 615 l 1,29,-1
 406 615 l 1,30,-1
 406 627 l 1,31,-1
 395 627 l 1,32,-1
 395 651 l 1,33,-1
 372 651 l 1,34,-1
 372 662 l 1,35,-1
 361 662 l 1,36,-1
 361 674 l 1,37,-1
 314 674 l 1,38,-1
 314 685 l 1,39,-1
 220 685 l 1,40,-1
 220 674 l 1,41,-1
 186 674 l 1,42,-1
 186 662 l 1,43,-1
 174 662 l 1,44,-1
 174 651 l 1,45,-1
 163 651 l 1,46,-1
 163 638 l 1,47,-1
 150 638 l 1,48,-1
 150 627 l 1,49,-1
 139 627 l 1,50,-1
 139 604 l 1,51,-1
 127 604 l 1,52,-1
 127 523 l 1,53,-1
 139 523 l 1,54,-1
 139 499 l 1,55,-1
 150 499 l 1,56,-1
 150 476 l 1,57,-1
 163 476 l 1,58,-1
 163 463 l 1,59,-1
 174 463 l 1,60,-1
 174 452 l 1,61,-1
 209 452 l 1,62,-1
 209 440 l 1,63,-1
 244 440 l 1,64,-1
 244 429 l 1,65,-1
 267 429 l 1,66,-1
 267 416 l 1,67,-1
 314 416 l 1,68,-1
 314 405 l 1,69,-1
 372 405 l 1,70,-1
 372 393 l 1,71,-1
 395 393 l 1,72,-1
 395 382 l 1,73,-1
 419 382 l 1,74,-1
 419 369 l 1,75,-1
 442 369 l 1,76,-1
 442 358 l 1,77,-1
 453 358 l 1,78,-1
 453 347 l 1,79,-1
 466 347 l 1,80,-1
 466 335 l 1,81,-1
 477 335 l 1,82,-1
 477 324 l 1,83,-1
 489 324 l 1,84,-1
 489 311 l 1,85,-1
 500 311 l 1,86,-1
 500 300 l 1,87,-1
 513 300 l 1,88,-1
 513 265 l 1,89,-1
 524 265 l 1,90,-1
 524 230 l 1,91,-1
 536 230 l 1,92,-1
 536 160 l 1,93,-1
 524 160 l 1,94,-1
 524 125 l 1,95,-1
 513 125 l 1,96,-1
 513 102 l 1,97,-1
 500 102 l 1,98,-1
 500 78 l 1,99,-1
 489 78 l 1,100,-1
 489 66 l 1,101,-1
 477 66 l 1,102,-1
 477 55 l 1,103,-1
 466 55 l 1,104,-1
 466 42 l 1,105,-1
 453 42 l 1,106,-1
 453 31 l 1,107,-1
 442 31 l 1,108,-1
 442 19 l 1,109,-1
 419 19 l 1,110,-1
 419 8 l 1,111,-1
 395 8 l 1,112,-1
 395 -3 l 1,113,-1
 361 -3 l 1,114,-1
 361 -16 l 1,115,-1
 163 -16 l 1,116,-1
 163 -3 l 1,117,-1
 103 -3 l 1,118,-1
 103 -16 l 1,119,-1
 56 -16 l 1,120,-1
 56 -3 l 1,121,-1
 34 -3 l 1,122,-1
 34 19 l 1,123,-1
 22 19 l 1,124,-1
 22 183 l 1,125,-1
 34 183 l 1,126,-1
 34 207 l 1,127,-1
 45 207 l 1,128,-1
 45 218 l 1,129,-1
 92 218 l 1,130,-1
 92 194 l 1,131,-1
 103 194 l 1,132,-1
 103 160 l 1,133,-1
 116 160 l 1,134,-1
 116 125 l 1,135,-1
 127 125 l 1,136,-1
 127 102 l 1,137,-1
 139 102 l 1,138,-1
 139 89 l 1,139,-1
 150 89 l 1,140,-1
 150 78 l 1,141,-1
 174 78 l 1,142,-1
 174 66 l 1,143,-1
 197 66 l 1,144,-1
 197 55 l 1,145,-1
 338 55 l 1,146,-1
 338 66 l 1,147,-1
 361 66 l 1,148,-1
 361 78 l 1,149,-1
 384 78 l 1,150,-1
 384 89 l 1,151,-1
 395 89 l 1,152,-1
 395 102 l 1,153,-1
 406 102 l 1,154,-1
 406 113 l 1,155,-1
 419 113 l 1,156,-1
 419 125 l 1,157,-1
 430 125 l 1,158,-1
 430 172 l 1,159,-1
 442 172 l 1,160,-1
 442 207 l 1,161,-1
 430 207 l 1,162,-1
 430 241 l 1,163,-1
 419 241 l 1,164,-1
 419 265 l 1,165,-1
 406 265 l 1,166,-1
 406 277 l 1,167,-1
 395 277 l 1,168,-1
 395 288 l 1,169,-1
 384 288 l 1,170,-1
 384 300 l 1,171,-1
 361 300 l 1,172,-1
 361 311 l 1,173,-1
 325 311 l 1,174,-1
 325 324 l 1,175,-1
 291 324 l 1,176,-1
 291 335 l 1,177,-1
 255 335 l 1,178,-1
 255 347 l 1,179,-1
 197 347 l 1,180,-1
 197 358 l 1,181,-1
 163 358 l 1,182,-1
 163 369 l 1,183,-1
 139 369 l 1,184,-1
 139 382 l 1,185,-1
 127 382 l 1,186,-1
 127 393 l 1,187,-1
 103 393 l 1,188,-1
 103 405 l 1,189,-1
 80 405 l 1,190,-1
 80 416 l 1,191,-1
 69 416 l 1,192,-1
 69 440 l 1,193,-1
 56 440 l 1,194,-1
 56 452 l 1,195,-1
 45 452 l 1,196,-1
 45 476 l 1,197,-1
 34 476 l 1,198,-1
 34 510 l 1,199,-1
 22 510 l 1,200,-1
 22 557 l 1,201,-1
 34 557 l 1,202,-1
 34 604 l 1,203,-1
 45 604 l 1,204,-1
 45 627 l 1,205,-1
 56 627 l 1,206,-1
 56 651 l 1,207,-1
 69 651 l 1,208,-1
 69 674 l 1,209,-1
 80 674 l 1,210,-1
 80 685 l 1,211,-1
 103 685 l 1,212,-1
 103 698 l 1,213,-1
 116 698 l 1,214,-1
 116 709 l 1,215,-1
 127 709 l 1,216,-1
 127 720 l 1,217,-1
 150 720 l 1,218,-1
 150 732 l 1,219,-1
 186 732 l 1,220,-1
 186 743 l 1,221,-1
 220 743 l 1,0,-1
EndSplineSet
EndChar

